<svg xmlns="http://www.w3.org/2000/svg" xmlns:xlink="http://www.w3.org/1999/xlink" width="48.6" height="130.4"><path d="M24.40 60.30L5.80 67.10L4 62.40L19.40 56.90Q15.30 54.10 12.60 50.85Q9.90 47.60 9.90 42.90L9.90 42.90Q9.90 36.80 14.40 33.05Q18.90 29.30 26.60 29.30L26.60 29.30Q29.70 29.30 32.45 29.70Q35.20 30.10 38 30.70L38 30.70L37 35.60Q34.40 35.00 32.10 34.65Q29.80 34.30 27.10 34.30L27.10 34.30Q21.30 34.30 18.30 36.70Q15.30 39.10 15.30 43.30L15.30 43.30Q15.30 46.80 17.90 49.55Q20.50 52.30 24.90 54.90L24.90 54.90L45.20 47.50L47.20 52.20L29.90 58.30Q35.40 61.70 39 65.75Q42.60 69.80 42.60 75.70L42.60 75.70Q42.60 79.60 40.65 83.00Q38.70 86.40 34.65 88.50Q30.60 90.60 24.20 90.60L24.20 90.60Q17.40 90.60 12 88.40Q6.60 86.20 2 82.80L2 82.80L5 78.60Q9.80 82.20 14.35 83.90Q18.90 85.60 24 85.60L24 85.60Q30.70 85.60 33.90 82.85Q37.10 80.10 37.10 75.60L37.10 75.60Q37.10 71.10 33.85 67.55Q30.60 64 24.40 60.30L24.40 60.30ZM32.90 116.30L32.90 116.30Q26.30 116.30 21.15 114.05Q16 111.80 11.85 108.00Q7.70 104.20 4.20 99.40L4.20 99.40L8.40 96.50Q13.50 103.20 19.10 107.30Q24.70 111.40 32.90 111.40L32.90 111.40Q38.60 111.40 41.60 109.20Q44.60 107.00 44.60 102.70L44.60 102.70Q44.60 98.80 42 96.80Q39.40 94.80 35 94.80L35 94.80Q32.50 94.80 30.30 95.35Q28.10 95.90 25.90 96.80L25.90 96.80L24.10 92.30Q26.70 91.20 29.30 90.65Q31.90 90.10 34.70 90.10L34.70 90.10Q41.80 90.10 45.70 93.65Q49.60 97.20 49.60 103.10L49.60 103.10Q49.60 109.30 45.15 112.80Q40.70 116.30 32.90 116.30Z"/></svg>