<svg xmlns="http://www.w3.org/2000/svg" xmlns:xlink="http://www.w3.org/1999/xlink" width="61.2" height="130.4"><path d="M30.80 90.60L30.80 90.60Q20.40 90.60 14.70 85.45Q9 80.30 9 72.20L9 72.20Q9 64.20 14.60 59.20L14.60 59.20Q10.20 56.60 7.40 52.80Q4.60 49.00 4.60 43.60L4.60 43.60Q4.60 37.30 9.05 33.30Q13.50 29.30 21.10 29.30L21.10 29.30Q25.60 29.30 29.60 30.30L29.60 30.30L28.60 35.20Q27 34.80 25.20 34.55Q23.40 34.30 21.50 34.30L21.50 34.30Q16.20 34.30 13.10 36.85Q10 39.40 10 43.80L10 43.80Q10 48.00 12.25 51.00Q14.50 54.00 19.10 56.30L19.10 56.30Q23.40 54.40 28.80 54.40L28.80 54.40Q29.70 54.40 30.70 54.45Q31.70 54.50 32.60 54.60L32.60 54.60L32 59.50Q30.60 59.30 28.80 59.30L28.80 59.30Q22.50 59.30 18.40 62.65Q14.30 66 14.30 72.20L14.30 72.20Q14.30 78.50 18.65 82.05Q23 85.60 30.90 85.60L30.90 85.60Q40.30 85.60 45.70 80.50Q51.10 75.40 51.10 66.70L51.10 66.70Q51.10 61.40 49.40 57.20Q47.70 53.00 45.10 48.10L45.10 48.10Q42.70 43.80 41.30 40.20Q39.90 36.60 39.90 32.30L39.90 32.30Q39.90 27.70 42.10 23.95Q44.30 20.20 49.10 16.80L49.10 16.80L52.60 21.20Q48.80 23.90 47.10 26.40Q45.40 28.90 45.40 32.50L45.40 32.50Q45.40 36.00 46.70 39.15Q48 42.30 50.40 46.80L50.40 46.80Q52.90 51.60 54.75 56.30Q56.60 61.00 56.60 66.70L56.60 66.70Q56.60 73.40 53.80 78.80Q51 84.20 45.30 87.40Q39.60 90.60 30.80 90.60Z"/></svg>