<svg xmlns="http://www.w3.org/2000/svg" xmlns:xlink="http://www.w3.org/1999/xlink" width="60.900000000000006" height="130.4"><path d="M35.80 90.60L35.80 90.60Q27 90.60 20.35 86.30Q13.70 82.00 10 73.10Q6.30 64.20 6.30 50.40L6.30 50.40Q6.30 41.10 8.40 33.10Q10.50 25.10 14.75 19.05Q19 13 25.45 9.60Q31.90 6.20 40.60 6.20L40.60 6.20Q43.60 6.20 45.80 6.50Q48 6.80 50 7.30L50 7.30L49 12.20Q45.60 11.20 40.80 11.20L40.80 11.20Q33.20 11.20 27.70 14.25Q22.20 17.30 18.70 22.75Q15.20 28.20 13.50 35.30Q11.80 42.40 11.80 50.50L11.80 50.50Q11.80 62.70 14.80 70.45Q17.80 78.20 23.20 81.90Q28.60 85.60 35.70 85.60L35.70 85.60Q42.30 85.60 46.20 82.30Q50.10 79 50.10 73.20L50.10 73.20Q50.10 64.70 42.60 59.60L42.60 59.60Q38.10 61.00 32.40 61.40L32.40 61.40L31.40 56.40Q39.70 56.00 44.85 53.20Q50 50.40 50 44.50L50 44.50Q50 40.00 46.95 37.15Q43.90 34.30 38.30 34.30L38.30 34.30Q35.10 34.30 31.90 35.15Q28.70 36.00 25.30 37.50L25.30 37.50L23.50 32.90Q27.10 31.30 30.80 30.30Q34.50 29.30 38.30 29.30L38.30 29.30Q46.70 29.30 51 33.65Q55.30 38.00 55.30 44.30L55.30 44.30Q55.30 48.80 53.30 52.00Q51.30 55.20 47.80 57.30L47.80 57.30Q51.60 60.70 53.55 64.85Q55.50 69 55.50 73.30L55.50 73.30Q55.50 81.10 50.25 85.85Q45 90.60 35.80 90.60Z"/></svg>