<svg xmlns="http://www.w3.org/2000/svg" xmlns:xlink="http://www.w3.org/1999/xlink" width="86.30000000000001" height="130.4"><path d="M35.60 90.60L35.60 90.60Q26.90 90.60 20.30 86.35Q13.70 82.10 10 73.45Q6.30 64.80 6.30 51.60L6.30 51.60Q6.30 41.90 8.60 33.65Q10.90 25.40 15.50 19.20Q20.10 13 26.85 9.60Q33.60 6.20 42.60 6.20L42.60 6.20Q51 6.20 57.50 9.45Q64 12.70 68.60 18.40Q73.20 24.10 76.20 31.40L76.20 31.40L76.20 75.50Q76.20 78.70 76.70 80.35Q77.20 82.00 78.40 82.90L78.40 82.90Q79.60 84.10 81.55 84.35Q83.50 84.60 85.80 84.60L85.80 84.60L85.30 89.60L84.30 89.60Q77.60 89.60 74.40 86.60L74.40 86.60Q72.60 85.00 71.75 82.50Q70.90 80 70.90 75.80L70.90 75.80L70.90 32.80Q67.30 23.20 60.20 17.20Q53.10 11.20 42.80 11.20L42.80 11.20Q34.90 11.20 29.10 14.30Q23.30 17.40 19.45 22.90Q15.60 28.40 13.70 35.75Q11.80 43.10 11.80 51.50L11.80 51.50Q11.80 69 18.40 77.30Q25 85.60 35.70 85.60L35.70 85.60Q42.30 85.60 46.20 82.30Q50.10 79 50.10 73.20L50.10 73.20Q50.10 64.70 42.60 59.60L42.60 59.60Q38.10 61.00 32.40 61.40L32.40 61.40L31.40 56.40Q39.70 56.00 44.85 53.20Q50 50.40 50 44.50L50 44.50Q50 40.00 46.95 37.15Q43.90 34.30 38.30 34.30L38.30 34.30Q35.10 34.30 31.90 35.15Q28.70 36.00 25.30 37.50L25.30 37.50L23.50 32.90Q27.10 31.30 30.80 30.30Q34.50 29.30 38.30 29.30L38.30 29.30Q46.70 29.30 51 33.65Q55.30 38.00 55.30 44.30L55.30 44.30Q55.30 48.80 53.30 52.00Q51.30 55.20 47.80 57.30L47.80 57.30Q51.60 60.70 53.55 64.85Q55.50 69 55.50 73.30L55.50 73.30Q55.50 81.20 50.20 85.90Q44.90 90.60 35.60 90.60Z"/></svg>