<svg xmlns="http://www.w3.org/2000/svg" xmlns:xlink="http://www.w3.org/1999/xlink" width="81.80000000000001" height="130.4"><path d="M42 56.50L13.70 75.10L10.40 70.50L36.50 54.20Q32.60 49.00 29.35 46.20Q26.10 43.40 22.90 42.35Q19.70 41.30 16.10 41.30L16.10 41.30Q12.70 41.30 9.60 42.30Q6.50 43.30 3.10 45.00L3.10 45.00L1.10 40.20Q4.80 38.40 8.60 37.35Q12.40 36.30 15.90 36.30L15.90 36.30Q20.90 36.30 24.80 37.75Q28.70 39.20 32.45 42.55Q36.20 45.90 40.70 51.70L40.70 51.70L42 50.90L42 29.30L47.30 30.10L47.30 46.50Q50.20 49.20 53.75 50.70Q57.30 52.20 61.10 52.20L61.10 52.20Q63.90 52.20 65.90 51.40L65.90 51.40Q65.20 50.40 64.85 49.35Q64.50 48.30 64.50 47.10L64.50 47.10Q64.50 44.70 66.15 43.35Q67.80 42.00 70.20 42.00L70.20 42.00Q72.90 42.00 74.45 43.65Q76 45.30 76 47.80L76 47.80Q76 51.20 72.80 53.70L72.80 53.70Q75.20 57.70 76.40 60.80Q77.60 63.90 77.60 67.10L77.60 67.10Q77.60 72 74.90 75.30Q72.20 78.60 67.40 81.10L67.40 81.10L64.60 76.80Q68 75 70.15 72.75Q72.30 70.50 72.30 66.90L72.30 66.90Q72.30 64.30 71.40 61.70Q70.50 59.10 68.50 56.00L68.50 56.00Q65.30 57.10 61.60 57.10L61.60 57.10Q54.10 57.10 47.30 52.20L47.30 52.20L47.30 75.50Q47.30 78.80 47.80 80.35Q48.30 81.90 49.50 82.90L49.50 82.90Q50.70 84.10 52.70 84.35Q54.70 84.60 56.90 84.60L56.90 84.60L56.40 89.60L55.40 89.60Q48.70 89.60 45.50 86.60L45.50 86.60Q43.70 85.00 42.85 82.50Q42 80 42 75.80L42 75.80L42 56.50Z"/></svg>