<svg xmlns="http://www.w3.org/2000/svg" xmlns:xlink="http://www.w3.org/1999/xlink" width="85.9" height="130.4"><path d="M33.60 78.30L33.60 78.30Q26.80 78.30 21.45 75.05Q16.10 71.80 12.60 65L12.60 65Q12 65 11.30 65L11.30 65Q3.90 65 3.90 60.00L3.90 60.00Q3.90 58.40 5.10 57.20Q6.30 56.00 8.80 56.00L8.80 56.00Q11.20 56.00 12.95 57.05Q14.70 58.10 16.20 59.90L16.20 59.90Q21.70 58.60 25.10 55.00Q28.50 51.40 28.50 46.30L28.50 46.30Q28.50 40.90 25.25 37.60Q22 34.30 15.20 34.30L15.20 34.30Q12.90 34.30 10.30 34.90Q7.70 35.50 5.30 36.40L5.30 36.40L3.50 31.70Q5.90 30.70 9 30.00Q12.10 29.30 15.40 29.30L15.40 29.30Q24.10 29.30 29 34.05Q33.90 38.80 33.90 46.50L33.90 46.50Q33.90 53.00 29.45 57.75Q25 62.50 18.10 64.20L18.10 64.20Q20.30 68.40 24.05 70.85Q27.80 73.30 33.30 73.30L33.30 73.30Q40.60 73.30 44.60 69.20L44.60 69.20Q47 66.70 48 63.15Q49 59.60 49 54.60L49 54.60L49 45.00L54.30 45.70L54.30 55.70Q54.30 56.50 54.30 57.20L54.30 57.20Q56.50 60.70 61 60.60L61 60.60Q64 60.60 66.30 59.25Q68.60 57.90 70.50 55.60L70.50 55.60L70.50 29.30L75.80 30.10L75.80 75.50Q75.80 78.70 76.30 80.35Q76.80 82.00 78 82.90L78 82.90Q79.20 84.10 81.15 84.35Q83.10 84.60 85.40 84.60L85.40 84.60L84.90 89.60L83.90 89.60Q77.20 89.60 74 86.60L74 86.60Q72.20 85.00 71.35 82.50Q70.50 80 70.50 75.80L70.50 75.80L70.50 62.10Q68.70 63.70 66.40 64.60Q64.10 65.50 61.10 65.60L61.10 65.60Q59.10 65.50 57.15 64.95Q55.20 64.40 53.50 63.00L53.50 63.00Q51.80 70.40 46.55 74.30Q41.30 78.20 33.60 78.30ZM75.30 25.50L70.50 25.50Q68.30 17.90 66.30 13.40Q64.30 8.90 61.75 6.90Q59.20 4.90 55.30 4.90L55.30 4.90Q52.50 4.90 49.50 5.80L49.50 5.80L47.90 1.20Q49.90 0.60 51.85 0.30Q53.80 0 55.60 0L55.60 0Q60.30 0 63.80 2.15Q67.30 4.30 70.05 9.80Q72.80 15.30 75.30 25.50L75.30 25.50Z"/></svg>