<svg xmlns="http://www.w3.org/2000/svg" xmlns:xlink="http://www.w3.org/1999/xlink" width="111" height="130.4"><path d="M33.60 78.30L33.60 78.30Q26.80 78.30 21.45 75.05Q16.10 71.80 12.60 65L12.60 65Q12 65 11.30 65L11.30 65Q3.90 65 3.90 60.00L3.90 60.00Q3.90 58.40 5.10 57.20Q6.30 56.00 8.80 56.00L8.80 56.00Q11.20 56.00 12.95 57.05Q14.70 58.10 16.20 59.90L16.20 59.90Q21.70 58.60 25.10 55.00Q28.50 51.40 28.50 46.30L28.50 46.30Q28.50 40.90 25.25 37.60Q22 34.30 15.20 34.30L15.20 34.30Q12.90 34.30 10.30 34.90Q7.70 35.50 5.30 36.40L5.30 36.40L3.50 31.70Q5.90 30.70 9 30.00Q12.10 29.30 15.40 29.30L15.40 29.30Q24.10 29.30 29 34.05Q33.90 38.80 33.90 46.50L33.90 46.50Q33.90 53.00 29.45 57.75Q25 62.50 18.10 64.20L18.10 64.20Q20.30 68.40 24.05 70.85Q27.80 73.30 33.30 73.30L33.30 73.30Q40.60 73.30 44.60 69.20L44.60 69.20Q47 66.70 48 63.15Q49 59.60 49 54.60L49 54.60L49 45.00L54.30 45.70L54.30 55.70Q54.30 56.50 54.30 57.20L54.30 57.20Q56.50 60.70 61 60.60L61 60.60Q64 60.60 66.30 59.25Q68.60 57.90 70.50 55.60L70.50 55.60L70.50 29.30L75.80 30.10L75.80 75.50Q75.80 78.70 76.30 80.35Q76.80 82.00 78 82.90L78 82.90Q79.20 84.10 81.15 84.35Q83.10 84.60 85.40 84.60L85.40 84.60L84.90 89.60L83.90 89.60Q77.20 89.60 74 86.60L74 86.60Q72.20 85.00 71.35 82.50Q70.50 80 70.50 75.80L70.50 75.80L70.50 62.10Q68.70 63.70 66.40 64.60Q64.10 65.50 61.10 65.60L61.10 65.60Q59.10 65.50 57.15 64.95Q55.20 64.40 53.50 63.00L53.50 63.00Q51.80 70.40 46.55 74.30Q41.30 78.20 33.60 78.30ZM110 89.60L109 89.60Q102.30 89.60 99.10 86.60L99.10 86.60Q97.30 85.00 96.45 82.50Q95.60 80 95.60 75.80L95.60 75.80L95.60 29.30L100.90 30.10L100.90 75.50Q100.90 78.70 101.40 80.35Q101.90 82.00 103.10 82.90L103.10 82.90Q104.30 84.10 106.25 84.35Q108.20 84.60 110.50 84.60L110.50 84.60L110 89.60ZM100.40 25.50L95.60 25.50Q93.40 17.90 91.40 13.40Q89.40 8.90 86.85 6.90Q84.30 4.90 80.40 4.90L80.40 4.90Q77.60 4.90 74.60 5.80L74.60 5.80L73 1.20Q75 0.60 76.95 0.30Q78.90 0 80.70 0L80.70 0Q85.40 0 88.90 2.15Q92.40 4.30 95.15 9.80Q97.90 15.30 100.40 25.50L100.40 25.50Z"/></svg>