<svg xmlns="http://www.w3.org/2000/svg" xmlns:xlink="http://www.w3.org/1999/xlink" width="83.9" height="130.4"><path d="M26.90 78.40L26.90 78.40Q18.60 78.40 13.70 74.20Q8.80 70 8.80 63.50L8.80 63.50Q8.80 57.80 12.30 54.00L12.30 54.00Q9.10 51.70 7 48.60Q4.90 45.50 4.90 41.30L4.90 41.30Q4.90 35.70 8.95 31.75Q13 27.80 20.60 25.40L20.60 25.40L22.50 30.20Q15.90 32.10 13.10 35.05Q10.30 38.00 10.30 41.70L10.30 41.70Q10.30 47.40 16.20 51.10L16.20 51.10Q20.10 49.00 25.40 49.00L25.40 49.00Q26.80 49.00 28.35 49.20Q29.90 49.40 31.20 49.60L31.20 49.60L30.40 54.50Q29.30 54.30 28 54.15Q26.70 54.00 25.30 54.00L25.30 54.00Q20.40 54.00 17.30 56.45Q14.20 58.90 14.20 63.30L14.20 63.30Q14.20 68.10 17.55 70.80Q20.90 73.50 26.90 73.50L26.90 73.50Q31.60 73.50 35.50 71.95Q39.40 70.40 43.30 67L43.30 67L43.30 29.30L48.60 30.10L48.60 75.50Q48.60 78.70 49.15 80.35Q49.70 82.00 50.80 82.90L50.80 82.90Q52 84.10 54 84.35Q56 84.60 58.30 84.60L58.30 84.60L57.70 89.60L56.80 89.60Q50 89.60 46.80 86.60L46.80 86.60Q45.10 85.00 44.20 82.50Q43.30 80 43.30 75.80L43.30 75.80L43.30 73.20Q39.90 75.60 36 77Q32.10 78.40 26.90 78.40ZM82.80 89.60L81.90 89.60Q78.80 89.60 76.30 88.95Q73.80 88.30 72 86.60L72 86.60Q70.10 84.90 69.30 82.40Q68.50 79.90 68.50 75.80L68.50 75.80L68.50 22.40Q68.50 15.80 69.85 11.70Q71.20 7.60 74.60 4.70L74.60 4.70Q76.80 2.80 79.95 1.70Q83.10 0.60 87.20 0.60L87.20 0.60Q96.30 0.60 103.55 5.85Q110.80 11.10 118.10 19.60L118.10 19.60L114.20 22.70Q107.80 15.10 101.45 10.30Q95.10 5.50 87.50 5.50L87.50 5.50Q81.60 5.50 78.20 8.40L78.20 8.40Q75.80 10.50 74.80 14Q73.80 17.50 73.80 24.10L73.80 24.10L73.80 75.50Q73.80 78.70 74.30 80.35Q74.80 82.00 76 82.90L76 82.90Q77.20 84.10 79.15 84.35Q81.10 84.60 83.40 84.60L83.40 84.60L82.80 89.60Z"/></svg>