<?xml version="1.0" encoding="UTF-8" standalone="no"?>
<svg width="81.10" height="90.60" viewBox="0 0 81.10 90.60" version="1.1" id="svg4" xmlns:inkscape="http://www.inkscape.org/namespaces/inkscape" xmlns="http://www.w3.org/2000/svg">
  <g id="g0" inkscape:label="g0" transform="translate(0.00,29.40)">
    <path d="M 5.8,41.400000000000006 L 1.3,30.700000000000003 L 13.6,26.6 Q 10.700000000000001,24.300000000000004 8.750000000000002,21.400000000000006 Q 6.800000000000001,18.5 6.800000000000001,14.799999999999997 Q 6.800000000000001,8.0 12.700000000000001,4.0 Q 18.6,0.0 28.400000000000002,0.0 Q 31.0,0.0 34.00000000000001,0.25 Q 37.00000000000001,0.5 40.00000000000001,1.2999999999999972 L 37.7,12.200000000000003 Q 34.900000000000006,11.600000000000001 32.95,11.400000000000006 Q 31.0,11.200000000000003 29.000000000000004,11.200000000000003 Q 24.1,11.200000000000003 22.25,12.650000000000006 Q 20.400000000000002,14.100000000000001 20.400000000000002,16.1 Q 20.400000000000002,17.9 21.900000000000002,19.299999999999997 Q 23.400000000000002,20.700000000000003 26.200000000000003,22.200000000000003 L 46.2,15.0 L 50.900000000000006,25.800000000000004 L 38.300000000000004,30.0 Q 42.300000000000004,32.5 44.75000000000001,36.0 Q 47.2,39.5 47.2,44.7 Q 47.2,48.800000000000004 45.050000000000004,52.6 Q 42.900000000000006,56.400000000000006 37.85,58.800000000000004 Q 32.800000000000004,61.2 24.1,61.2 Q 17.300000000000004,61.2 11.15,59.5 Q 5.0,57.800000000000004 0.0,54.7 L 6.300000000000001,45.0 Q 10.4,47.2 14.4,48.5 Q 18.400000000000002,49.800000000000004 23.000000000000004,49.800000000000004 Q 27.900000000000002,49.800000000000004 30.700000000000003,48.2 Q 33.5,46.6 33.5,43.5 Q 33.5,41.400000000000006 31.85,39.25 Q 30.200000000000003,37.1 24.6,34.7 L 5.8,41.400000000000006" id="g0p0" inkscape:label="g0p0" />
    <path style="fill:none;stroke:#000000;stroke-width:1px;stroke-linecap:butt;stroke-linejoin:miter;stroke-opacity:1" d="M 33.291,5.741 C 34.286,5.029 35.504,4.156 36.276,3.603 C 36.374,3.533 36.025,3.784 35.899,3.875 C 35.738,3.991 35.595,4.138 35.417,4.223 C 34.349,4.735 33.305,5.478 32.161,5.665 C 30.580,5.924 28.874,5.471 27.241,5.562 C 25.581,5.655 23.875,5.781 22.282,6.215 C 20.804,6.619 19.314,7.250 18.029,8.075 C 16.820,8.851 15.593,9.851 14.801,11.016 C 14.123,12.016 13.700,13.364 13.620,14.570 C 13.538,15.796 13.821,17.173 14.313,18.312 C 14.880,19.626 15.936,20.748 16.796,21.931 C 17.794,23.305 18.763,24.720 19.888,25.982 C 20.570,26.748 21.299,27.657 22.218,28.014 C 23.458,28.495 24.990,28.287 26.365,28.496 C 27.769,28.708 29.387,28.644 30.555,29.277 C 31.431,29.752 31.787,31.024 32.495,31.818 C 33.564,33.017 34.807,34.063 35.887,35.254 C 36.933,36.408 38.114,37.522 38.874,38.855 C 39.569,40.072 40.090,41.519 40.252,42.903 C 40.411,44.257 40.239,45.762 39.836,47.068 C 39.447,48.329 38.748,49.615 37.875,50.604 C 36.934,51.672 35.667,52.566 34.396,53.237 C 32.976,53.987 31.376,54.507 29.803,54.869 C 28.187,55.241 26.491,55.377 24.827,55.438 C 23.048,55.502 21.246,55.424 19.474,55.244 C 17.773,55.070 16.071,54.770 14.408,54.374 C 12.788,53.988 11.211,53.414 9.626,52.896 C 9.167,52.746 8.720,52.541 8.276,52.370 C 8.272,52.369 8.285,52.378 8.281,52.379 C 8.080,52.444 7.868,52.503 7.662,52.568 C 7.403,52.650 6.895,52.813 6.887,52.821 C 6.879,52.829 7.372,52.684 7.614,52.616 C 7.857,52.548 8.099,52.480 8.342,52.411" id="g0s0" inkscape:label="g0s0" />
    <path style="fill:none;stroke:#000000;stroke-width:1px;stroke-linecap:butt;stroke-linejoin:miter;stroke-opacity:1" d="M 44.274,22.764 C 44.139,22.814 43.782,22.863 43.870,22.915 C 44.295,23.164 45.165,23.417 45.813,23.668 C 46.460,23.919 47.106,24.185 47.755,24.421 C 47.780,24.430 47.856,24.415 47.835,24.404 C 47.515,24.240 47.100,24.066 46.732,23.897 C 46.353,23.725 45.983,23.532 45.596,23.381 C 44.696,23.029 43.496,22.642 42.871,22.387 C 42.759,22.341 43.214,22.449 43.386,22.478 C 43.503,22.497 43.714,22.537 43.737,22.531 C 43.753,22.527 43.582,22.476 43.505,22.450 C 43.457,22.434 43.338,22.393 43.362,22.404 C 43.447,22.441 43.676,22.532 43.832,22.597 C 43.989,22.661 44.147,22.721 44.302,22.789 C 44.616,22.927 45.073,23.140 45.238,23.212 C 45.289,23.235 45.049,23.114 44.950,23.074 C 44.330,22.826 43.715,22.333 43.082,22.348 C 42.163,22.371 41.212,22.878 40.293,23.190 C 38.697,23.733 37.024,24.149 35.538,24.913 C 34.192,25.605 33.061,26.703 31.796,27.557 C 31.127,28.009 30.500,28.745 29.735,28.831 C 28.215,29.004 26.543,28.466 24.943,28.335 C 23.522,28.218 21.945,27.768 20.672,28.088 C 19.918,28.277 19.556,29.394 18.862,29.864 C 17.601,30.720 16.214,31.458 14.807,32.065 C 13.145,32.782 11.395,33.474 9.654,33.837 C 8.981,33.977 8.257,33.672 7.566,33.573 C 7.541,33.569 7.488,33.521 7.506,33.527 C 7.628,33.566 7.881,33.587 7.987,33.710 C 8.208,33.965 8.356,34.335 8.485,34.660 C 8.517,34.741 8.429,34.941 8.469,34.928 C 8.552,34.901 8.726,34.667 8.856,34.538 C 9.023,34.373 9.301,34.193 9.360,34.047 C 9.384,33.987 9.196,33.930 9.104,33.921 C 8.911,33.901 8.695,34.002 8.505,33.960 C 8.212,33.895 7.700,33.618 7.655,33.598 C 7.622,33.583 8.067,33.768 8.274,33.854 C 8.480,33.939 8.686,34.024 8.893,34.110" id="g0s1" inkscape:label="g0s1" />
  </g>
  <g id="g1" inkscape:label="g1" transform="translate(59.90,29.30)">
    <path d="M 17.500000000000004,60.300000000000004 Q 11.400000000000002,60.300000000000004 8.05,59.00000000000001 Q 4.699999999999999,57.70000000000001 3.0000000000000036,55.4 Q 1.5000000000000036,53.300000000000004 0.7500000000000036,50.449999999999996 Q 0.0,47.6 0.0,42.6 L 0.0,0.0 L 13.400000000000002,1.1000000000000014 L 13.400000000000002,41.6 Q 13.400000000000002,46.1 14.700000000000006,47.4 Q 15.8,48.4 17.099999999999998,48.65 Q 18.400000000000002,48.9 21.200000000000006,48.9 L 20.200000000000006,60.300000000000004 L 17.500000000000004,60.300000000000004" id="g1p0" inkscape:label="g1p0" />
    <path style="fill:none;stroke:#000000;stroke-width:1px;stroke-linecap:butt;stroke-linejoin:miter;stroke-opacity:1" d="M 5.610,6.073 C 4.665,5.058 3.556,3.861 2.774,3.027 C 2.698,2.947 2.950,3.228 3.038,3.329 C 3.126,3.429 3.212,3.532 3.303,3.630 C 4.323,4.743 5.650,5.712 6.369,6.963 C 6.778,7.675 6.655,8.662 6.687,9.519 C 6.761,11.430 6.687,13.351 6.687,15.267 C 6.688,17.183 6.687,19.099 6.687,21.015 C 6.687,22.931 6.687,24.847 6.687,26.763 C 6.687,28.679 6.687,30.595 6.687,32.512 C 6.687,34.428 6.684,36.344 6.687,38.260 C 6.691,40.139 6.578,42.029 6.711,43.898 C 6.821,45.453 6.952,47.067 7.418,48.533 C 7.782,49.676 8.360,50.910 9.200,51.725 C 10.108,52.605 11.506,52.991 12.662,53.619 C 13.652,54.156 14.726,54.591 15.638,55.219 C 15.971,55.449 16.264,56.026 16.397,56.193 C 16.439,56.246 16.241,55.983 16.163,55.879 C 16.130,55.834 16.054,55.732 16.063,55.745 C 16.080,55.768 16.182,55.907 16.243,55.988 C 16.316,56.085 16.508,56.291 16.466,56.280 C 16.383,56.260 16.053,56.041 15.867,55.894 C 15.460,55.575 15.080,55.221 14.686,54.885 C 14.292,54.548 13.899,54.211 13.505,53.875" id="g1s0" inkscape:label="g1s0" />
  </g>
  <g id="g2" inkscape:label="g2" transform="translate(31.20,11.10)">
    <path d="M 24.6,16.5 Q 19.0,12.5 15.399999999999999,11.25 Q 11.799999999999997,10.0 8.200000000000003,10.0 Q 7.0,10.0 5.649999999999999,10.150000000000006 Q 4.299999999999997,10.299999999999997 3.299999999999997,10.599999999999994 L 0.0,1.0 Q 2.0,0.3999999999999915 4.050000000000001,0.19999999999998863 Q 6.100000000000001,0.0 8.0,0.0 Q 12.700000000000003,0.0 16.25,1.1500000000000057 Q 19.8,2.299999999999997 23.1,4.400000000000006 Q 26.400000000000002,6.5 30.0,9.599999999999994 L 24.6,16.5" id="g2p0" inkscape:label="g2p0" />
    <path style="fill:none;stroke:#000000;stroke-width:1px;stroke-linecap:butt;stroke-linejoin:miter;stroke-opacity:1" d="M 5.972,4.505 C 5.781,4.388 5.589,4.273 5.399,4.155 C 4.944,3.872 4.490,3.587 4.035,3.303 C 3.580,3.020 2.939,2.624 2.671,2.452 C 2.603,2.408 2.907,2.589 3.025,2.657 C 3.153,2.732 3.284,2.803 3.410,2.882 C 3.908,3.194 4.735,3.725 4.896,3.829 C 4.978,3.882 4.391,3.511 4.138,3.353 C 3.886,3.194 3.621,3.030 3.381,2.876 C 3.376,2.873 3.395,2.879 3.401,2.882 C 3.445,2.905 3.489,2.930 3.532,2.956 C 4.438,3.521 5.262,4.317 6.246,4.655 C 7.251,5.000 8.417,4.875 9.500,5.005 C 10.861,5.168 12.249,5.222 13.577,5.535 C 14.973,5.864 16.354,6.353 17.670,6.930 C 19.155,7.581 20.562,8.424 21.980,9.219 C 22.571,9.550 23.411,10.126 23.698,10.309 C 23.793,10.370 23.317,10.068 23.126,9.949 C 22.973,9.854 22.664,9.654 22.664,9.665 C 22.664,9.676 22.972,9.899 23.126,10.016 C 23.279,10.133 23.551,10.339 23.587,10.367 C 23.609,10.384 23.395,10.222 23.300,10.149 C 23.152,10.037 23.003,9.926 22.856,9.813 C 22.823,9.788 22.744,9.725 22.759,9.735 C 22.798,9.762 22.929,9.865 23.018,9.924 C 23.269,10.091 23.688,10.355 23.778,10.411 C 23.821,10.438 23.537,10.253 23.417,10.174 C 23.296,10.095 23.120,9.975 23.055,9.937 C 23.035,9.925 23.125,9.995 23.161,10.023 C 23.227,10.073 23.280,10.159 23.359,10.172 C 23.680,10.222 24.159,10.189 24.363,10.213 C 24.413,10.219 24.201,10.245 24.121,10.261 C 24.001,10.284 23.871,10.365 23.761,10.330 C 23.490,10.243 23.053,9.874 22.977,9.896 C 22.921,9.913 23.236,10.263 23.365,10.446 C 23.495,10.629 23.636,10.805 23.754,10.996 C 24.109,11.571 24.278,12.429 24.785,12.746 C 25.274,13.051 26.217,12.559 26.743,12.861 C 27.502,13.297 28.007,14.259 28.640,14.957" id="g2s0" inkscape:label="g2s0" />
  </g>
  <g id="g3" inkscape:label="g3" transform="translate(42.90,0.00)">
    <path d="M 19.5,25.5 Q 18.4,20.0 17.2,16.60000000000001 Q 16.0,13.200000000000003 14.049999999999997,11.600000000000009 Q 12.099999999999998,10.0 8.7,10.0 Q 7.099999999999998,10.0 5.75,10.25 Q 4.399999999999999,10.5 3.299999999999997,10.799999999999997 L 0.0,1.4000000000000057 Q 2.0,0.7000000000000028 4.649999999999999,0.3500000000000085 Q 7.299999999999997,0.0 9.799999999999997,0.0 Q 13.0,0.0 16.1,0.75 Q 19.2,1.5 21.950000000000003,4.0 Q 24.700000000000003,6.5 26.85,11.600000000000009 Q 29.0,16.700000000000003 30.299999999999997,25.5 L 19.5,25.5" id="g3p0" inkscape:label="g3p0" />
    <path style="fill:none;stroke:#000000;stroke-width:1px;stroke-linecap:butt;stroke-linejoin:miter;stroke-opacity:1" d="M 6.623,5.123 C 5.071,4.219 3.365,3.234 1.968,2.411 C 1.897,2.369 2.134,2.489 2.217,2.528 C 2.300,2.567 2.387,2.599 2.466,2.645 C 3.657,3.351 4.766,4.301 6.027,4.784 C 6.817,5.086 7.754,4.925 8.618,5.000 C 10.078,5.128 11.586,5.062 12.998,5.392 C 14.350,5.709 15.774,6.175 16.911,6.941 C 18.084,7.731 19.111,8.887 19.927,10.060 C 20.832,11.360 21.483,12.879 22.076,14.363 C 22.689,15.899 22.864,17.635 23.547,19.121 C 23.949,19.995 24.643,20.762 25.332,21.446 C 26.243,22.350 27.797,23.441 28.348,23.886 C 28.509,24.016 27.762,23.408 27.469,23.170 C 27.176,22.931 26.877,22.700 26.590,22.454 C 25.638,21.637 24.698,20.805 23.752,19.981" id="g3s0" inkscape:label="g3s0" />
  </g>
</svg>