<svg xmlns="http://www.w3.org/2000/svg" xmlns:xlink="http://www.w3.org/1999/xlink" width="74.80000000000001" height="130.4"><path d="M25.40 90.60L25.40 90.60Q15.40 90.60 10.10 85.55Q4.80 80.50 4.80 72.70L4.80 72.70Q4.80 65.40 9.95 60.35Q15.10 55.30 24 54.10L24 54.10Q20.10 51.60 17.45 48.45Q14.80 45.30 14.80 40.90L14.80 40.90Q14.80 35.90 18.70 32.60Q22.60 29.30 29.70 29.30L29.70 29.30Q32 29.30 34.50 29.60Q37 29.90 39.70 30.50L39.70 30.50L38.70 35.30Q36.50 34.80 34.25 34.55Q32 34.30 29.80 34.30L29.80 34.30Q25 34.30 22.60 36.10Q20.20 37.90 20.20 41.00L20.20 41.00Q20.20 44.10 22.50 46.55Q24.80 49.00 30.90 52.70L30.90 52.70Q38.60 57.50 42.35 62.15Q46.10 66.80 46.10 73.60L46.10 73.60Q46.10 81.30 40.65 85.95Q35.20 90.60 25.40 90.60ZM10.30 72.80L10.30 72.80Q10.30 78.50 14.10 82.05Q17.90 85.60 25.30 85.60L25.30 85.60Q32.20 85.60 36.45 82.60Q40.70 79.60 40.60 73.40L40.60 73.40Q40.70 68.50 38.10 65.05Q35.50 61.60 30 58.00L30 58.00Q29.30 58.00 28.70 58.00L28.70 58.00Q23.40 58.00 19.25 59.80Q15.10 61.60 12.70 64.90Q10.30 68.20 10.30 72.80ZM73.70 89.60L72.80 89.60Q69.70 89.60 67.20 88.95Q64.70 88.30 62.90 86.60L62.90 86.60Q61 84.90 60.20 82.40Q59.40 79.90 59.40 75.80L59.40 75.80L59.40 22.40Q59.40 15.80 60.75 11.70Q62.10 7.60 65.50 4.70L65.50 4.70Q67.70 2.80 70.85 1.70Q74 0.60 78.10 0.60L78.10 0.60Q87.20 0.60 94.45 5.85Q101.70 11.10 109 19.60L109 19.60L105.10 22.70Q98.70 15.10 92.35 10.30Q86 5.50 78.40 5.50L78.40 5.50Q72.50 5.50 69.10 8.40L69.10 8.40Q66.70 10.50 65.70 14Q64.70 17.50 64.70 24.10L64.70 24.10L64.70 75.50Q64.70 78.70 65.20 80.35Q65.70 82.00 66.90 82.90L66.90 82.90Q68.10 84.10 70.05 84.35Q72 84.60 74.30 84.60L74.30 84.60L73.70 89.60Z"/></svg>