<svg xmlns="http://www.w3.org/2000/svg" xmlns:xlink="http://www.w3.org/1999/xlink" width="68.7" height="130.4"><path d="M24.30 90.60L24.30 90.60Q15.30 90.60 10.15 86.10Q5 81.60 5 74.30L5 74.30Q5 67.80 8.90 63.45Q12.80 59.10 20.60 54.80L20.60 54.80Q27.30 51.10 30.30 48.50Q33.30 45.90 33.30 41.90L33.30 41.90Q33.30 38.00 30.60 36.10Q27.90 34.20 23.20 34.20L23.20 34.20Q20 34.20 17.05 34.85Q14.10 35.50 10.90 36.80L10.90 36.80L9.20 32.20Q12.50 30.80 16 30.05Q19.50 29.30 23.30 29.30L23.30 29.30Q30.80 29.30 34.75 32.75Q38.70 36.20 38.70 41.80L38.70 41.80Q38.70 47.70 35.05 51.20Q31.40 54.70 24.70 58.50L24.70 58.50Q19.60 61.40 16.45 63.75Q13.30 66.10 11.90 68.70Q10.50 71.30 10.50 74.70L10.50 74.70Q10.50 79.60 14.15 82.60Q17.80 85.60 24.40 85.60L24.40 85.60Q29.10 85.60 32.80 84.40Q36.50 83.20 40.90 80.40L40.90 80.40L43.40 85.20Q38.60 88.00 34.35 89.30Q30.10 90.60 24.30 90.60ZM67.60 89.60L66.70 89.60Q63.60 89.60 61.10 88.95Q58.60 88.30 56.80 86.60L56.80 86.60Q54.90 84.90 54.10 82.40Q53.30 79.90 53.30 75.80L53.30 75.80L53.30 22.40Q53.30 15.80 54.65 11.70Q56 7.60 59.40 4.70L59.40 4.70Q61.60 2.80 64.75 1.70Q67.90 0.60 72 0.60L72 0.60Q81.10 0.60 88.35 5.85Q95.60 11.10 102.90 19.60L102.90 19.60L99 22.70Q92.60 15.10 86.25 10.30Q79.90 5.50 72.30 5.50L72.30 5.50Q66.40 5.50 63 8.40L63 8.40Q60.60 10.50 59.60 14Q58.60 17.50 58.60 24.10L58.60 24.10L58.60 75.50Q58.60 78.70 59.10 80.35Q59.60 82.00 60.80 82.90L60.80 82.90Q62 84.10 63.95 84.35Q65.90 84.60 68.20 84.60L68.20 84.60L67.60 89.60Z"/></svg>