<svg xmlns="http://www.w3.org/2000/svg" xmlns:xlink="http://www.w3.org/1999/xlink" width="103.80000000000001" height="130.4"><path d="M27.20 80.30L23.50 83.90Q15 76.80 10 68.75Q5 60.70 5 50.60L5 50.60Q5 44.30 7.40 39.50Q9.80 34.70 14.15 32.00Q18.50 29.30 24.30 29.30L24.30 29.30Q28.80 29.30 31.90 30.70Q35 32.10 37.20 34.50L37.20 34.50Q39.80 37.20 41.05 41.30Q42.30 45.40 42.30 51.40L42.30 51.40L42.30 54.70L63.20 54.70L63.20 29.40L68.50 30.10L68.50 75.50Q68.50 78.80 69.05 80.40Q69.60 82.00 70.90 83.00L70.90 83.00Q72.10 84.10 73.90 84.35Q75.70 84.60 78.20 84.60L78.20 84.60L77.60 89.60L76.70 89.60Q70 89.60 66.80 86.60L66.80 86.60Q65 85.00 64.10 82.50Q63.20 80 63.20 75.80L63.20 75.80L63.20 59.60L42.30 59.60L42.30 62.70Q42.30 65.50 41.20 66.70Q40.10 67.90 38.40 67.90L38.40 67.90Q36.30 67.90 34.25 66.30Q32.20 64.70 30.80 62.45Q29.40 60.20 29.40 58.30L29.40 58.30Q29.40 56.80 30.50 55.75Q31.60 54.70 34.10 54.70L34.10 54.70L37 54.70L37 51.60Q37 42.80 34 38.60L34 38.60Q32.40 36.60 30.20 35.45Q28 34.30 24.30 34.30L24.30 34.30Q17.60 34.30 14 38.90Q10.40 43.50 10.40 50.70L10.40 50.70Q10.40 59.60 14.90 66.80Q19.40 74 27.20 80.30L27.20 80.30ZM102.70 89.60L101.80 89.60Q98.70 89.60 96.20 88.95Q93.70 88.30 91.90 86.60L91.90 86.60Q90 84.90 89.20 82.40Q88.40 79.90 88.40 75.80L88.40 75.80L88.40 22.40Q88.40 15.80 89.75 11.70Q91.10 7.60 94.50 4.70L94.50 4.70Q96.70 2.80 99.85 1.70Q103 0.60 107.10 0.60L107.10 0.60Q116.20 0.60 123.45 5.85Q130.70 11.10 138 19.60L138 19.60L134.10 22.70Q127.70 15.10 121.35 10.30Q115 5.50 107.40 5.50L107.40 5.50Q101.50 5.50 98.10 8.40L98.10 8.40Q95.70 10.50 94.70 14Q93.70 17.50 93.70 24.10L93.70 24.10L93.70 75.50Q93.70 78.70 94.20 80.35Q94.70 82.00 95.90 82.90L95.90 82.90Q97.10 84.10 99.05 84.35Q101 84.60 103.30 84.60L103.30 84.60L102.70 89.60Z"/></svg>