<svg xmlns="http://www.w3.org/2000/svg" xmlns:xlink="http://www.w3.org/1999/xlink" width="98.5" height="130.4"><path d="M72.40 89.60L71.40 89.60Q64.70 89.60 61.50 86.60L61.50 86.60Q59.70 85.00 58.85 82.50Q58 80 58 75.80L58 75.80L58 48.70Q58 44.10 57.40 41.60Q56.80 39.10 55.40 37.60L55.40 37.60Q53.30 35.10 49.40 35.10L49.40 35.10Q45.70 35.10 43.40 37.60L43.40 37.60Q42 39.10 41.45 41.45Q40.90 43.80 40.90 48.10L40.90 48.10L40.90 54.40Q40.90 59.40 39.90 63.25Q38.90 67.10 36.20 69.90L36.20 69.90Q34.10 72.30 30.85 73.60Q27.60 74.90 23.20 74.90L23.20 74.90Q15.10 74.90 10 69.45Q4.90 64 4.90 54.70L4.90 54.70Q4.90 37.50 25.50 29.30L25.50 29.30L27.30 34.20Q18.40 37.70 14.40 42.90Q10.40 48.10 10.40 54.90L10.40 54.90Q10.40 62.50 14.10 66.25Q17.80 70 23.10 70L23.10 70Q26.30 70 28.60 69Q30.90 68 32.50 66.20L32.50 66.20Q34.10 64.40 34.85 61.80Q35.60 59.20 35.60 55.10L35.60 55.10L35.60 47.30Q35.60 43.40 36.30 40.00Q37 36.60 39.70 33.90L39.70 33.90Q41.40 32.20 43.85 31.25Q46.30 30.30 49.40 30.30L49.40 30.30Q52.60 30.30 55.10 31.30Q57.60 32.30 59.30 34.10L59.30 34.10Q61.40 36.30 62.35 39.15Q63.30 42.00 63.30 47.40L63.30 47.40L63.30 75.50Q63.30 78.70 63.80 80.35Q64.30 82.00 65.50 82.90L65.50 82.90Q66.70 84.10 68.65 84.35Q70.60 84.60 72.90 84.60L72.90 84.60L72.40 89.60ZM97.40 89.60L96.50 89.60Q93.40 89.60 90.90 88.95Q88.40 88.30 86.60 86.60L86.60 86.60Q84.70 84.90 83.90 82.40Q83.10 79.90 83.10 75.80L83.10 75.80L83.10 22.40Q83.10 15.80 84.45 11.70Q85.80 7.60 89.20 4.70L89.20 4.70Q91.40 2.80 94.55 1.70Q97.70 0.60 101.80 0.60L101.80 0.60Q110.90 0.60 118.15 5.85Q125.40 11.10 132.70 19.60L132.70 19.60L128.80 22.70Q122.40 15.10 116.05 10.30Q109.70 5.50 102.10 5.50L102.10 5.50Q96.20 5.50 92.80 8.40L92.80 8.40Q90.40 10.50 89.40 14Q88.40 17.50 88.40 24.10L88.40 24.10L88.40 75.50Q88.40 78.70 88.90 80.35Q89.40 82.00 90.60 82.90L90.60 82.90Q91.80 84.10 93.75 84.35Q95.70 84.60 98 84.60L98 84.60L97.40 89.60Z"/></svg>