<svg xmlns="http://www.w3.org/2000/svg" xmlns:xlink="http://www.w3.org/1999/xlink" width="77.5" height="130.4"><path d="M11.80 65.90L11.80 65.90Q9.80 65.90 7.65 64.20Q5.50 62.50 4.05 60.00Q2.60 57.50 2.60 55.10L2.60 55.10Q2.60 53.20 3.70 52.05Q4.80 50.90 7.70 50.90L7.70 50.90L37 50.90L37 29.30L42.30 30.10L42.30 75.50Q42.30 78.70 42.85 80.35Q43.40 82.00 44.50 82.90L44.50 82.90Q45.70 84.10 47.65 84.35Q49.60 84.60 51.90 84.60L51.90 84.60L51.40 89.60L50.40 89.60Q47.40 89.60 44.85 88.95Q42.30 88.30 40.50 86.60L40.50 86.60Q38.70 84.90 37.85 82.40Q37 79.90 37 75.80L37 75.80L37 55.80L15.80 55.80L15.80 61.10Q15.80 63.60 14.70 64.75Q13.60 65.90 11.80 65.90ZM76.40 89.60L75.50 89.60Q72.40 89.60 69.90 88.95Q67.40 88.30 65.60 86.60L65.60 86.60Q63.70 84.90 62.90 82.40Q62.10 79.90 62.10 75.80L62.10 75.80L62.10 22.40Q62.10 15.80 63.45 11.70Q64.80 7.60 68.20 4.70L68.20 4.70Q70.40 2.80 73.55 1.70Q76.70 0.60 80.80 0.60L80.80 0.60Q89.90 0.60 97.15 5.85Q104.40 11.10 111.70 19.60L111.70 19.60L107.80 22.70Q101.40 15.10 95.05 10.30Q88.70 5.50 81.10 5.50L81.10 5.50Q75.20 5.50 71.80 8.40L71.80 8.40Q69.40 10.50 68.40 14Q67.40 17.50 67.40 24.10L67.40 24.10L67.40 75.50Q67.40 78.70 67.90 80.35Q68.40 82.00 69.60 82.90L69.60 82.90Q70.80 84.10 72.75 84.35Q74.70 84.60 77 84.60L77 84.60L76.40 89.60Z"/></svg>