<svg xmlns="http://www.w3.org/2000/svg" xmlns:xlink="http://www.w3.org/1999/xlink" width="74.9" height="130.4"><path d="M26.90 90.60L26.90 90.60Q16 90.60 10.45 85.95Q4.90 81.30 4.90 73.30L4.90 73.30Q4.90 66.70 8.65 62.60Q12.40 58.50 19.30 54.70L19.30 54.70L23.80 52.10Q29.40 49.10 31.45 46.90Q33.50 44.70 33.50 41.50L33.50 41.50Q33.50 34.20 23.60 34.20L23.60 34.20Q20.50 34.20 17.55 34.90Q14.60 35.60 11.80 36.70L11.80 36.70L10.10 32.10Q13.20 30.90 16.55 30.10Q19.90 29.30 23.80 29.30L23.80 29.30Q31.30 29.30 35.10 32.65Q38.90 36.00 38.90 41.40L38.90 41.40Q38.90 46.80 35.55 50.10Q32.20 53.40 26 56.80L26 56.80L21.70 59.20Q16.10 62.30 13.20 65.35Q10.30 68.40 10.30 73.40L10.30 73.40Q10.30 78.90 13.90 82.15Q17.50 85.40 24.70 85.80L24.70 85.80Q23.40 83.50 22.75 81.15Q22.10 78.80 22.10 75.90L22.10 75.90Q22.10 70.60 25.70 67.20Q29.30 63.80 35 63.80L35 63.80Q40.40 63.80 43.85 66.95Q47.30 70.10 47.30 75.90L47.30 75.90Q47.30 82.30 42.35 86.45Q37.40 90.60 26.90 90.60ZM27.10 76.80L27.10 76.80Q27.10 79.30 27.80 81.40Q28.50 83.50 29.90 85.80L29.90 85.80Q35.50 85.40 38.85 82.85Q42.20 80.30 42.20 75.90L42.20 75.90Q42.20 72.30 40.20 70.45Q38.20 68.60 35.20 68.60L35.20 68.60Q31.40 68.60 29.25 70.90Q27.10 73.20 27.10 76.80ZM73.80 89.60L72.90 89.60Q69.80 89.60 67.30 88.95Q64.80 88.30 63.00 86.60L63.00 86.60Q61.10 84.90 60.30 82.40Q59.50 79.90 59.50 75.80L59.50 75.80L59.50 22.40Q59.50 15.80 60.85 11.70Q62.20 7.60 65.60 4.70L65.60 4.70Q67.80 2.80 70.95 1.70Q74.10 0.60 78.20 0.60L78.20 0.60Q87.30 0.60 94.55 5.85Q101.80 11.10 109.10 19.60L109.10 19.60L105.20 22.70Q98.80 15.10 92.45 10.30Q86.10 5.50 78.50 5.50L78.50 5.50Q72.60 5.50 69.20 8.40L69.20 8.40Q66.80 10.50 65.80 14Q64.80 17.50 64.80 24.10L64.80 24.10L64.80 75.50Q64.80 78.70 65.30 80.35Q65.80 82.00 67 82.90L67 82.90Q68.20 84.10 70.15 84.35Q72.10 84.60 74.40 84.60L74.40 84.60L73.80 89.60Z"/></svg>