<svg xmlns="http://www.w3.org/2000/svg" xmlns:xlink="http://www.w3.org/1999/xlink" width="85.7" height="130.4"><path d="M27.60 74.50L27.60 74.50Q19.10 74.50 13.70 70.40Q8.30 66.30 5.40 58.20L5.40 58.20Q15 55.30 19.80 51.40Q24.60 47.50 24.60 41.50L24.60 41.50Q24.60 38.00 22.50 36.00Q20.40 34.00 17.10 34.00L17.10 34.00Q13.60 34.00 11.55 35.80Q9.50 37.60 9.50 40.50L9.50 40.50Q9.50 45.00 14.40 47.70L14.40 47.70L11.30 51.40Q4.30 47.20 4.30 40.40L4.30 40.40Q4.30 35.70 7.65 32.50Q11 29.30 17.10 29.30L17.10 29.30Q23.40 29.30 26.60 32.95Q29.80 36.60 29.80 41.60L29.80 41.60Q29.80 48.40 25.35 53.05Q20.90 57.70 12.20 61.00L12.20 61.00Q14.50 65.30 18.20 67.45Q21.90 69.60 27.60 69.60L27.60 69.60Q33.40 69.60 37.70 67.50Q42 65.40 45.20 62.00L45.20 62.00L45.20 29.30L50.50 30.10L50.50 75.50Q50.50 78.70 51 80.35Q51.50 82.00 52.70 82.90L52.70 82.90Q53.90 84.10 55.85 84.35Q57.80 84.60 60.10 84.60L60.10 84.60L59.60 89.60L58.60 89.60Q51.90 89.60 48.70 86.60L48.70 86.60Q46.90 85.00 46.05 82.50Q45.20 80 45.20 75.80L45.20 75.80L45.20 68.40Q42.20 70.90 37.85 72.70Q33.50 74.50 27.60 74.50ZM84.60 89.60L83.70 89.60Q80.60 89.60 78.10 88.95Q75.60 88.30 73.80 86.60L73.80 86.60Q71.90 84.90 71.10 82.40Q70.30 79.90 70.30 75.80L70.30 75.80L70.30 22.40Q70.30 15.80 71.65 11.70Q73 7.60 76.40 4.70L76.40 4.70Q78.60 2.80 81.75 1.70Q84.90 0.60 89 0.60L89 0.60Q98.10 0.60 105.35 5.85Q112.60 11.10 119.90 19.60L119.90 19.60L116 22.70Q109.60 15.10 103.25 10.30Q96.90 5.50 89.30 5.50L89.30 5.50Q83.40 5.50 80 8.40L80 8.40Q77.60 10.50 76.60 14Q75.60 17.50 75.60 24.10L75.60 24.10L75.60 75.50Q75.60 78.70 76.10 80.35Q76.60 82.00 77.80 82.90L77.80 82.90Q79 84.10 80.95 84.35Q82.90 84.60 85.20 84.60L85.20 84.60L84.60 89.60Z"/></svg>