<?xml version="1.0" encoding="UTF-8" standalone="no"?>
<svg width="94.80" height="61.30" viewBox="0 0 94.80 61.30" version="1.1" id="svg4" xmlns:inkscape="http://www.inkscape.org/namespaces/inkscape" xmlns="http://www.w3.org/2000/svg">
  <g id="g0" inkscape:label="g0">
    <path d="M 23.400000000000002,61.300000000000004 Q 15.5,61.300000000000004 10.05,57.7 Q 4.6000000000000005,54.1 0.0,47.400000000000006 L 10.0,41.400000000000006 Q 13.200000000000001,45.6 15.8,47.650000000000006 Q 18.400000000000002,49.7 22.200000000000003,49.7 Q 24.6,49.7 26.55,48.6 Q 28.5,47.5 29.65,44.7 Q 30.8,41.900000000000006 30.8,36.900000000000006 Q 30.8,29.500000000000004 28.05,26.0 Q 25.3,22.5 20.3,22.5 Q 16.900000000000002,22.5 13.900000000000002,23.25 Q 10.9,24.0 8.8,25.0 L 5.1000000000000005,14.5 Q 8.4,13.0 12.5,12.050000000000004 Q 16.6,11.100000000000001 21.8,11.100000000000001 Q 28.1,11.100000000000001 32.8,13.600000000000001 Q 37.5,16.1 40.300000000000004,20.6 Q 43.2,19.700000000000003 46.400000000000006,19.300000000000004 L 46.400000000000006,0.0 L 59.800000000000004,1.1000000000000014 L 59.800000000000004,20.700000000000003 Q 65.3,22.900000000000006 68.3,27.550000000000004 Q 71.3,32.2 71.3,38.5 Q 71.3,45.2 68.8,50.6 Q 66.3,56.00000000000001 60.400000000000006,61.300000000000004 L 50.5,52.400000000000006 Q 53.400000000000006,50.0 55.650000000000006,46.800000000000004 Q 57.900000000000006,43.60000000000001 57.900000000000006,39.300000000000004 Q 57.900000000000006,35.0 55.650000000000006,32.7 Q 53.400000000000006,30.400000000000002 49.300000000000004,30.400000000000002 Q 47.800000000000004,30.400000000000002 46.5,30.75 Q 45.2,31.1 44.1,31.700000000000003 Q 44.400000000000006,34.2 44.400000000000006,37.1 Q 44.400000000000006,44.300000000000004 42.550000000000004,49.0 Q 40.7,53.7 37.6,56.400000000000006 Q 34.5,59.1 30.8,60.2 Q 27.1,61.300000000000004 23.400000000000002,61.300000000000004" id="g0p0" inkscape:label="g0p0" />
    <path style="fill:none;stroke:#000000;stroke-width:1px;stroke-linecap:butt;stroke-linejoin:miter;stroke-opacity:1" d="M 12.513,17.762 C 11.629,17.402 10.432,16.896 9.860,16.683 C 9.733,16.636 10.231,16.884 10.417,16.983 C 10.617,17.089 10.797,17.271 11.018,17.297 C 12.014,17.413 13.055,17.461 14.069,17.407 C 15.834,17.314 17.590,16.904 19.355,16.854 C 21.061,16.806 22.818,16.799 24.483,17.114 C 26.048,17.409 27.644,17.940 29.045,18.686 C 30.393,19.405 31.667,20.409 32.732,21.510 C 33.860,22.676 34.726,24.119 35.622,25.488 C 36.232,26.421 37.007,27.360 37.250,28.416 C 37.572,29.811 37.276,31.368 37.316,32.843 C 37.362,34.540 37.558,36.239 37.507,37.933 C 37.453,39.742 37.355,41.582 36.999,43.349 C 36.675,44.960 36.197,46.605 35.468,48.066 C 34.812,49.379 33.908,50.667 32.846,51.671 C 31.762,52.697 30.406,53.565 29.031,54.156 C 27.572,54.782 25.930,55.151 24.344,55.324 C 22.724,55.501 21.020,55.464 19.412,55.207 C 17.886,54.962 16.330,54.492 14.942,53.818 C 13.516,53.127 12.283,52.029 10.970,51.111 C 9.897,50.360 8.971,49.279 7.785,48.810 C 6.374,48.253 3.829,48.136 3.178,48.032 C 2.914,47.989 4.419,48.256 5.040,48.368 C 5.660,48.480 6.281,48.593 6.901,48.705 C 7.521,48.817 8.142,48.929 8.762,49.041" id="g0s0" inkscape:label="g0s0" />
    <path style="fill:none;stroke:#000000;stroke-width:1px;stroke-linecap:butt;stroke-linejoin:miter;stroke-opacity:1" d="M 37.353,27.629 C 39.161,27.033 40.944,26.344 42.776,25.839 C 44.385,25.395 46.062,25.208 47.676,24.783 C 49.160,24.392 50.597,23.658 52.068,23.392 C 52.535,23.307 53.068,23.501 53.491,23.733 C 54.776,24.435 55.973,25.352 57.191,26.194 C 58.432,27.052 59.831,27.771 60.869,28.833 C 61.879,29.867 62.751,31.160 63.336,32.481 C 63.927,33.815 64.232,35.338 64.397,36.799 C 64.571,38.329 64.523,39.920 64.354,41.455 C 64.182,43.009 63.889,44.594 63.375,46.065 C 62.869,47.509 61.991,48.823 61.296,50.201 C 60.885,51.015 60.369,51.805 60.055,52.638 C 59.970,52.864 60.082,53.331 60.098,53.378 C 60.108,53.410 60.203,53.009 60.135,52.874 C 60.043,52.691 59.828,52.500 59.619,52.424 C 59.126,52.244 58.564,52.179 58.031,52.108 C 57.713,52.065 56.999,52.129 57.065,52.084 C 57.168,52.014 58.047,51.870 58.538,51.763 C 59.029,51.656 59.528,51.493 60.011,51.442 C 60.107,51.432 60.274,51.514 60.276,51.580 C 60.279,51.671 60.046,51.778 60.027,51.912 C 59.907,52.747 60.147,53.709 59.859,54.489 C 59.512,55.427 58.891,56.420 58.124,57.066 C 57.175,57.866 55.849,58.241 54.711,58.828" id="g0s1" inkscape:label="g0s1" />
    <path style="fill:none;stroke:#000000;stroke-width:1px;stroke-linecap:butt;stroke-linejoin:miter;stroke-opacity:1" d="M 52.715,23.146 C 52.831,21.634 52.950,20.046 53.063,18.612 C 53.065,18.574 53.063,18.690 53.063,18.730 C 53.063,18.761 53.063,18.826 53.063,18.824 C 53.063,18.821 53.063,18.750 53.063,18.713 C 53.063,18.676 53.063,18.640 53.063,18.603 C 53.063,16.763 53.060,14.923 53.063,13.083 C 53.065,11.187 52.864,9.203 53.078,7.396 C 53.117,7.066 53.571,6.911 53.821,6.671 C 54.211,6.298 54.906,5.642 54.995,5.557 C 55.051,5.504 54.501,6.024 54.254,6.257 C 54.011,6.488 53.562,6.915 53.523,6.949 C 53.495,6.974 53.875,6.605 54.051,6.434 C 54.227,6.262 54.391,6.077 54.578,5.918 C 54.972,5.586 55.767,4.857 55.795,4.961 C 55.829,5.091 55.106,6.066 54.762,6.619 C 54.418,7.172 54.124,7.768 53.730,8.277 C 53.543,8.519 53.134,8.972 53.021,8.872 C 52.857,8.727 52.935,7.984 52.898,7.540 C 52.869,7.195 52.803,6.652 52.823,6.505 C 52.832,6.443 52.913,6.786 52.983,6.911 C 53.039,7.011 53.135,7.244 53.200,7.180 C 53.506,6.878 53.795,6.269 54.094,5.814 C 54.377,5.384 54.917,4.499 54.944,4.525 C 54.973,4.551 54.490,5.488 54.263,5.969 C 54.036,6.451 53.833,6.946 53.582,7.414 C 53.423,7.711 53.142,8.300 53.032,8.266 C 52.916,8.230 52.946,7.558 52.904,7.204 C 52.868,6.902 52.798,6.386 52.800,6.297 C 52.801,6.248 52.877,6.627 52.916,6.791 C 52.954,6.956 52.961,7.182 53.031,7.286 C 53.058,7.324 53.155,7.252 53.208,7.218 C 53.312,7.151 53.493,6.928 53.501,6.983 C 53.516,7.098 53.345,7.477 53.277,7.727 C 53.199,8.013 53.081,8.301 53.062,8.592 C 53.045,8.853 53.131,9.450 53.168,9.385 C 53.230,9.278 53.294,8.512 53.357,8.076 C 53.420,7.640 53.550,7.034 53.546,6.767 C 53.545,6.695 53.406,6.957 53.343,7.057 C 53.262,7.184 53.201,7.434 53.115,7.448 C 53.037,7.460 52.943,7.237 52.851,7.137 C 52.679,6.951 52.367,6.619 52.323,6.590 C 52.294,6.570 52.530,6.857 52.634,6.990 C 52.737,7.124 52.841,7.257 52.944,7.391" id="g0s2" inkscape:label="g0s2" />
  </g>
  <g id="g1" inkscape:label="g1" transform="translate(80.10,10.50)">
    <path d="M 7.3,15.0 Q 4.2,15.0 2.1000000000000005,12.850000000000001 Q 0.0,10.700000000000003 0.0,7.5 Q 0.0,4.300000000000004 2.1000000000000005,2.1499999999999986 Q 4.2,0.0 7.3,0.0 Q 10.5,0.0 12.600000000000001,2.1499999999999986 Q 14.700000000000003,4.300000000000004 14.700000000000003,7.5 Q 14.700000000000003,10.700000000000003 12.600000000000001,12.850000000000001 Q 10.5,15.0 7.3,15.0" id="g1p0" inkscape:label="g1p0" />
    <path style="fill:none;stroke:#000000;stroke-width:1px;stroke-linecap:butt;stroke-linejoin:miter;stroke-opacity:1" d="M 7.200,7.207 C 7.194,7.202 7.216,7.236 7.224,7.251 C 7.249,7.299 7.284,7.373 7.298,7.395 C 7.303,7.403 7.288,7.358 7.282,7.340 C 7.271,7.307 7.260,7.274 7.246,7.242 C 7.231,7.205 7.195,7.127 7.195,7.134 C 7.195,7.144 7.233,7.250 7.249,7.295 C 7.250,7.299 7.248,7.285 7.247,7.281 C 7.233,7.232 7.217,7.184 7.203,7.135 C 7.198,7.118 7.187,7.080 7.189,7.083 C 7.192,7.087 7.207,7.131 7.215,7.155 C 7.247,7.240 7.283,7.328 7.311,7.410 C 7.312,7.413 7.303,7.413 7.302,7.411 C 7.296,7.388 7.306,7.353 7.290,7.334 C 7.215,7.245 7.084,7.142 7.028,7.087 C 7.016,7.075 7.067,7.118 7.086,7.135 C 7.147,7.187 7.222,7.233 7.269,7.294 C 7.290,7.322 7.283,7.396 7.291,7.402 C 7.297,7.406 7.303,7.351 7.310,7.326 C 7.312,7.320 7.317,7.309 7.317,7.311 C 7.318,7.314 7.315,7.331 7.314,7.341 C 7.313,7.380 7.313,7.427 7.312,7.458 C 7.312,7.461 7.313,7.446 7.312,7.444 C 7.312,7.443 7.312,7.448 7.312,7.450 C 7.312,7.463 7.312,7.476 7.312,7.489 C 7.312,7.495 7.312,7.509 7.312,7.506 C 7.312,7.496 7.312,7.471 7.312,7.453 C 7.312,7.440 7.312,7.411 7.312,7.415 C 7.312,7.420 7.312,7.457 7.311,7.479 C 7.311,7.500 7.310,7.533 7.310,7.543 C 7.310,7.546 7.311,7.526 7.311,7.518 C 7.312,7.510 7.312,7.502 7.312,7.494 C 7.312,7.487 7.312,7.470 7.311,7.472 C 7.311,7.475 7.311,7.496 7.310,7.509 C 7.309,7.531 7.305,7.566 7.305,7.575 C 7.304,7.579 7.307,7.558 7.307,7.549 C 7.307,7.492 7.309,7.386 7.307,7.377 C 7.305,7.371 7.313,7.466 7.295,7.502 C 7.258,7.578 7.194,7.645 7.141,7.714 C 7.137,7.721 7.121,7.731 7.123,7.729 C 7.125,7.725 7.144,7.708 7.153,7.696 C 7.195,7.647 7.235,7.583 7.276,7.545 C 7.282,7.540 7.291,7.573 7.293,7.569 C 7.300,7.556 7.301,7.518 7.305,7.493 C 7.307,7.476 7.311,7.441 7.312,7.441 C 7.313,7.441 7.312,7.475 7.311,7.491 C 7.311,7.503 7.311,7.524 7.311,7.527 C 7.311,7.529 7.312,7.512 7.312,7.505 C 7.312,7.484 7.313,7.448 7.312,7.443 C 7.312,7.439 7.310,7.467 7.309,7.480 C 7.307,7.493 7.310,7.509 7.303,7.521 C 7.265,7.592 7.184,7.721 7.175,7.729 C 7.167,7.735 7.226,7.616 7.254,7.561 C 7.265,7.539 7.295,7.485 7.293,7.497 C 7.288,7.528 7.252,7.625 7.232,7.689 C 7.220,7.729 7.192,7.816 7.195,7.811 C 7.198,7.806 7.232,7.710 7.250,7.659 C 7.267,7.612 7.290,7.542 7.302,7.519 C 7.306,7.511 7.300,7.552 7.299,7.568 C 7.298,7.580 7.296,7.606 7.297,7.603 C 7.298,7.595 7.302,7.557 7.305,7.534 C 7.307,7.512 7.312,7.470 7.312,7.468 C 7.313,7.466 7.309,7.505 7.307,7.523 C 7.306,7.541 7.306,7.560 7.302,7.578 C 7.297,7.602 7.284,7.647 7.283,7.650 C 7.283,7.652 7.295,7.611 7.298,7.591 C 7.305,7.544 7.308,7.488 7.312,7.451 C 7.313,7.447 7.313,7.461 7.312,7.466 C 7.312,7.475 7.312,7.493 7.312,7.492 C 7.312,7.491 7.312,7.471 7.312,7.461 C 7.313,7.413 7.319,7.336 7.316,7.319 C 7.315,7.311 7.306,7.363 7.300,7.384 C 7.297,7.398 7.290,7.427 7.289,7.424 C 7.289,7.419 7.299,7.382 7.300,7.361 C 7.302,7.320 7.298,7.250 7.298,7.237 C 7.298,7.230 7.298,7.280 7.299,7.301 C 7.302,7.347 7.309,7.424 7.310,7.439 C 7.311,7.447 7.306,7.393 7.305,7.370 C 7.301,7.328 7.297,7.286 7.295,7.244 C 7.294,7.238 7.294,7.224 7.295,7.227 C 7.296,7.234 7.301,7.258 7.301,7.274 C 7.301,7.290 7.298,7.330 7.294,7.322 C 7.283,7.296 7.271,7.222 7.259,7.172 C 7.257,7.167 7.252,7.154 7.253,7.158 C 7.262,7.206 7.276,7.271 7.287,7.328 C 7.294,7.360 7.307,7.424 7.307,7.424 C 7.307,7.425 7.298,7.360 7.288,7.329 C 7.267,7.267 7.230,7.177 7.216,7.147 C 7.211,7.137 7.224,7.189 7.231,7.209 C 7.253,7.265 7.299,7.356 7.303,7.375 C 7.305,7.385 7.266,7.322 7.249,7.295 C 7.219,7.246 7.190,7.196 7.161,7.147 C 7.158,7.143 7.151,7.132 7.153,7.134 C 7.157,7.143 7.170,7.164 7.179,7.179 C 7.211,7.232 7.246,7.285 7.277,7.339 C 7.280,7.343 7.280,7.355 7.281,7.352 C 7.282,7.341 7.293,7.312 7.284,7.297 C 7.266,7.263 7.214,7.218 7.200,7.207 Z" id="g1s0" inkscape:label="g1s0" />
  </g>
  <g id="g2" inkscape:label="g2" transform="translate(80.10,41.40)">
    <path d="M 7.3,14.900000000000002 Q 4.2,14.900000000000002 2.1000000000000005,12.750000000000004 Q 0.0,10.599999999999998 0.0,7.400000000000002 Q 0.0,4.199999999999999 2.1000000000000005,2.099999999999998 Q 4.2,0.0 7.3,0.0 Q 10.5,0.0 12.600000000000001,2.099999999999998 Q 14.700000000000003,4.199999999999999 14.700000000000003,7.400000000000002 Q 14.700000000000003,10.599999999999998 12.600000000000001,12.750000000000004 Q 10.5,14.900000000000002 7.3,14.900000000000002" id="g2p0" inkscape:label="g2p0" />
    <path style="fill:none;stroke:#000000;stroke-width:1px;stroke-linecap:butt;stroke-linejoin:miter;stroke-opacity:1" d="M 7.271,7.334 C 7.173,7.227 7.037,7.083 6.975,7.014 C 6.961,6.999 7.021,7.058 7.043,7.081 C 7.140,7.187 7.243,7.302 7.332,7.401 C 7.336,7.405 7.324,7.393 7.320,7.389 C 7.319,7.388 7.315,7.385 7.315,7.385 C 7.315,7.386 7.321,7.395 7.320,7.393 C 7.313,7.381 7.301,7.360 7.291,7.344 C 7.269,7.306 7.246,7.268 7.224,7.230 C 7.213,7.212 7.192,7.174 7.194,7.175 C 7.196,7.177 7.223,7.215 7.235,7.237 C 7.269,7.297 7.302,7.365 7.332,7.419 C 7.334,7.422 7.331,7.412 7.329,7.408 C 7.327,7.404 7.322,7.400 7.320,7.395 C 7.319,7.389 7.316,7.380 7.320,7.376 C 7.338,7.359 7.380,7.338 7.386,7.334 C 7.389,7.332 7.360,7.348 7.347,7.356 C 7.336,7.363 7.312,7.371 7.314,7.381 C 7.318,7.399 7.351,7.419 7.366,7.441 C 7.412,7.513 7.467,7.621 7.496,7.663 C 7.504,7.674 7.487,7.619 7.475,7.600 C 7.426,7.524 7.369,7.413 7.313,7.380 C 7.291,7.367 7.265,7.435 7.240,7.461 C 7.209,7.491 7.161,7.533 7.144,7.549 C 7.138,7.553 7.162,7.531 7.170,7.522 C 7.197,7.495 7.250,7.437 7.250,7.441 C 7.250,7.446 7.197,7.513 7.168,7.547 C 7.089,7.642 6.980,7.764 6.926,7.826 C 6.916,7.839 6.958,7.790 6.974,7.772 C 7.029,7.710 7.085,7.648 7.140,7.585 C 7.200,7.516 7.263,7.433 7.318,7.377 C 7.324,7.372 7.323,7.398 7.323,7.403 C 7.323,7.404 7.321,7.397 7.320,7.395 C 7.318,7.389 7.311,7.382 7.313,7.377 C 7.322,7.359 7.358,7.320 7.355,7.324 C 7.350,7.329 7.309,7.377 7.287,7.404 C 7.246,7.454 7.197,7.516 7.166,7.552 C 7.162,7.558 7.176,7.537 7.181,7.530 C 7.201,7.502 7.219,7.473 7.242,7.449 C 7.338,7.351 7.485,7.216 7.538,7.164 C 7.554,7.149 7.479,7.220 7.449,7.248 C 7.371,7.322 7.265,7.424 7.214,7.469 C 7.203,7.480 7.244,7.431 7.262,7.415 C 7.276,7.403 7.297,7.381 7.311,7.385 C 7.330,7.391 7.356,7.438 7.361,7.446 C 7.364,7.450 7.343,7.429 7.334,7.421 C 7.325,7.412 7.308,7.396 7.307,7.396 C 7.306,7.396 7.322,7.412 7.329,7.420 C 7.337,7.428 7.351,7.446 7.352,7.445 C 7.352,7.443 7.339,7.422 7.332,7.411 C 7.325,7.399 7.319,7.373 7.310,7.376 C 7.291,7.382 7.269,7.419 7.249,7.440 C 7.246,7.442 7.241,7.448 7.241,7.447 C 7.242,7.446 7.249,7.438 7.253,7.433 C 7.271,7.413 7.300,7.394 7.306,7.373 C 7.309,7.361 7.288,7.348 7.279,7.336 C 7.260,7.308 7.226,7.257 7.222,7.253 C 7.220,7.250 7.249,7.293 7.262,7.313 C 7.267,7.320 7.275,7.333 7.276,7.335 C 7.276,7.337 7.267,7.324 7.266,7.323 C 7.266,7.323 7.270,7.328 7.272,7.330 C 7.279,7.339 7.286,7.348 7.294,7.357 C 7.307,7.372 7.336,7.407 7.333,7.402 C 7.328,7.395 7.293,7.347 7.271,7.321 C 7.216,7.252 7.115,7.132 7.103,7.119 C 7.095,7.110 7.176,7.210 7.213,7.256 C 7.248,7.300 7.287,7.351 7.319,7.388 C 7.321,7.391 7.316,7.379 7.316,7.375 C 7.317,7.371 7.318,7.366 7.320,7.365 C 7.324,7.363 7.337,7.364 7.337,7.364 C 7.336,7.365 7.323,7.367 7.317,7.369 C 7.311,7.370 7.302,7.371 7.300,7.373 C 7.299,7.375 7.306,7.377 7.309,7.379 C 7.313,7.383 7.317,7.387 7.320,7.390 C 7.320,7.390 7.318,7.388 7.317,7.387 C 7.302,7.370 7.287,7.351 7.271,7.334 Z" id="g2s0" inkscape:label="g2s0" />
  </g>
</svg>