<?xml version="1.0" encoding="UTF-8" standalone="no"?>
<svg width="80.60" height="61.30" viewBox="0 0 80.60 61.30" version="1.1" id="svg4" xmlns:inkscape="http://www.inkscape.org/namespaces/inkscape" xmlns="http://www.w3.org/2000/svg">
  <g id="g0" inkscape:label="g0">
    <path d="M 28.200000000000003,61.300000000000004 Q 18.400000000000002,61.300000000000004 11.650000000000002,57.00000000000001 Q 4.9,52.7 0.0,45.800000000000004 L 10.5,39.6 Q 18.1,49.900000000000006 27.400000000000002,49.900000000000006 Q 35.5,49.900000000000006 35.5,43.800000000000004 Q 35.5,40.6 33.2,38.300000000000004 Q 30.900000000000002,36.0 25.0,33.0 Q 19.1,29.900000000000002 15.900000000000002,27.0 Q 12.700000000000001,24.1 11.5,21.1 Q 10.3,18.1 10.3,14.800000000000004 Q 10.3,8.600000000000001 15.450000000000001,4.300000000000004 Q 20.6,0.0 29.900000000000002,0.0 Q 33.800000000000004,0.0 36.5,0.3500000000000014 Q 39.2,0.7000000000000028 41.800000000000004,1.2000000000000028 L 39.300000000000004,12.399999999999999 Q 37.2,11.899999999999999 34.900000000000006,11.550000000000004 Q 32.6,11.200000000000003 30.3,11.200000000000003 Q 26.900000000000002,11.200000000000003 25.35,12.149999999999999 Q 23.8,13.100000000000001 23.8,14.899999999999999 Q 23.8,16.300000000000004 24.5,17.35 Q 25.200000000000003,18.4 27.150000000000002,19.6 Q 29.1,20.800000000000004 32.9,22.800000000000004 Q 39.400000000000006,26.1 42.95,29.300000000000004 Q 46.5,32.5 47.900000000000006,35.95 Q 49.300000000000004,39.400000000000006 49.300000000000004,43.5 Q 49.300000000000004,51.400000000000006 43.800000000000004,56.35 Q 38.300000000000004,61.300000000000004 28.200000000000003,61.300000000000004" id="g0p0" inkscape:label="g0p0" />
    <path style="fill:none;stroke:#000000;stroke-width:1px;stroke-linecap:butt;stroke-linejoin:miter;stroke-opacity:1" d="M 34.903,5.751 C 36.533,4.662 38.442,3.387 39.793,2.483 C 39.919,2.399 39.487,2.684 39.334,2.785 C 39.115,2.929 38.895,3.071 38.678,3.217 C 37.774,3.828 36.958,4.656 35.969,5.057 C 34.976,5.460 33.821,5.553 32.732,5.631 C 31.013,5.753 29.250,5.459 27.544,5.657 C 25.997,5.837 24.393,6.160 22.972,6.767 C 21.668,7.324 20.354,8.146 19.370,9.148 C 18.465,10.071 17.674,11.315 17.307,12.543 C 16.935,13.787 16.924,15.273 17.153,16.564 C 17.386,17.885 17.954,19.254 18.693,20.380 C 19.488,21.591 20.612,22.660 21.756,23.575 C 23.087,24.639 24.633,25.454 26.117,26.318 C 27.776,27.285 29.526,28.095 31.183,29.066 C 32.737,29.977 34.316,30.880 35.748,31.964 C 37.074,32.967 38.414,34.051 39.455,35.328 C 40.376,36.457 41.156,37.809 41.634,39.181 C 42.123,40.586 42.370,42.168 42.354,43.657 C 42.339,45.113 42.067,46.662 41.541,48.013 C 41.040,49.300 40.233,50.582 39.273,51.570 C 38.298,52.575 37.016,53.401 35.735,53.990 C 34.322,54.640 32.735,55.049 31.189,55.285 C 29.542,55.537 27.825,55.552 26.156,55.456 C 24.436,55.358 22.683,55.139 21.020,54.704 C 19.431,54.289 17.852,53.671 16.398,52.908 C 14.940,52.143 13.629,51.084 12.283,50.119 C 11.002,49.201 9.909,47.884 8.515,47.259 C 7.354,46.739 5.305,46.789 4.618,46.685 C 4.406,46.654 5.419,46.795 5.819,46.854 C 6.365,46.935 6.911,47.021 7.457,47.104 C 8.003,47.188 8.548,47.271 9.094,47.354" id="g0s0" inkscape:label="g0s0" />
  </g>
  <g id="g1" inkscape:label="g1" transform="translate(59.40,0.00)">
    <path d="M 17.500000000000004,60.300000000000004 Q 11.400000000000002,60.300000000000004 8.05,59.00000000000001 Q 4.7,57.7 3.000000000000001,55.400000000000006 Q 1.5000000000000009,53.300000000000004 0.7500000000000009,50.45 Q 0.0,47.6 0.0,42.60000000000001 L 0.0,0.0 L 13.400000000000002,1.1000000000000014 L 13.400000000000002,41.60000000000001 Q 13.400000000000002,46.1 14.700000000000003,47.400000000000006 Q 15.8,48.400000000000006 17.1,48.650000000000006 Q 18.400000000000002,48.900000000000006 21.200000000000003,48.900000000000006 L 20.200000000000003,60.300000000000004 L 17.500000000000004,60.300000000000004" id="g1p0" inkscape:label="g1p0" />
    <path style="fill:none;stroke:#000000;stroke-width:1px;stroke-linecap:butt;stroke-linejoin:miter;stroke-opacity:1" d="M 5.375,5.819 C 4.523,4.905 3.507,3.808 2.820,3.077 C 2.745,2.997 2.999,3.283 3.089,3.386 C 3.212,3.525 3.337,3.662 3.459,3.801 C 4.515,4.997 5.995,6.029 6.624,7.390 C 7.071,8.356 6.680,9.652 6.687,10.782 C 6.701,12.761 6.687,14.740 6.687,16.719 C 6.688,18.699 6.687,20.678 6.687,22.657 C 6.687,24.636 6.687,26.615 6.687,28.594 C 6.687,30.573 6.687,32.552 6.687,34.531 C 6.687,36.510 6.650,38.490 6.687,40.468 C 6.722,42.297 6.642,44.154 6.901,45.953 C 7.115,47.435 7.395,49.045 8.105,50.312 C 8.672,51.325 9.720,52.181 10.731,52.793 C 11.960,53.538 13.607,53.643 14.823,54.382 C 15.511,54.800 16.195,55.992 16.444,56.264 C 16.539,56.369 16.051,55.764 15.855,55.514 C 15.659,55.264 15.529,54.929 15.267,54.763 C 14.612,54.352 13.590,54.039 13.102,53.783 C 13.012,53.736 13.391,53.824 13.533,53.855 C 13.794,53.913 14.082,53.924 14.312,54.048 C 14.657,54.235 14.942,54.543 15.257,54.790" id="g1s0" inkscape:label="g1s0" />
  </g>
</svg>