<?xml version="1.0" encoding="UTF-8" standalone="no"?>
<svg width="75.90" height="89.60" viewBox="0 0 75.90 89.60" version="1.1" id="svg4" xmlns:inkscape="http://www.inkscape.org/namespaces/inkscape" xmlns="http://www.w3.org/2000/svg">
  <g id="g0" inkscape:label="g0" transform="translate(0.00,29.30)">
    <path d="M 22.300000000000004,45.400000000000006 Q 15.700000000000001,45.400000000000006 10.700000000000001,42.900000000000006 Q 5.699999999999999,40.400000000000006 2.8499999999999996,35.7 Q 0.0,31.000000000000004 0.0,24.6 Q 0.0,15.100000000000001 6.450000000000001,8.800000000000004 Q 12.9,2.5 23.700000000000003,0.0 L 26.800000000000004,11.600000000000001 Q 21.300000000000004,12.899999999999999 17.450000000000003,16.0 Q 13.6,19.1 13.6,24.5 Q 13.6,30.1 16.300000000000004,32.050000000000004 Q 19.0,34.0 22.5,34.0 Q 26.4,34.0 28.4,32.0 Q 29.6,30.800000000000004 30.15,28.700000000000003 Q 30.700000000000003,26.6 30.700000000000003,22.200000000000003 L 30.700000000000003,15.100000000000001 L 44.1,16.200000000000003 L 44.1,23.0 Q 44.1,23.800000000000004 44.1,24.5 Q 45.300000000000004,26.800000000000004 48.2,26.800000000000004 Q 50.300000000000004,26.800000000000004 51.900000000000006,26.000000000000007 Q 53.50000000000001,25.200000000000003 54.800000000000004,24.0 L 54.800000000000004,0.0 L 68.2,1.1000000000000014 L 68.2,41.60000000000001 Q 68.2,46.1 69.5,47.400000000000006 Q 70.5,48.400000000000006 71.8,48.650000000000006 Q 73.1,48.900000000000006 75.9,48.900000000000006 L 75.0,60.300000000000004 L 72.3,60.300000000000004 Q 66.7,60.300000000000004 63.20000000000001,59.1 Q 59.7,57.900000000000006 57.7,55.2 Q 55.50000000000001,52.300000000000004 55.150000000000006,48.95 Q 54.800000000000004,45.6 54.800000000000004,42.60000000000001 L 54.800000000000004,36.6 Q 53.50000000000001,37.300000000000004 51.85,37.7 Q 50.2,38.1 48.1,38.1 Q 46.400000000000006,38.1 44.70000000000001,37.75 Q 43.00000000000001,37.400000000000006 41.400000000000006,36.300000000000004 Q 39.00000000000001,40.800000000000004 34.300000000000004,43.10000000000001 Q 29.6,45.400000000000006 22.300000000000004,45.400000000000006" id="g0p0" inkscape:label="g0p0" />
    <path style="fill:none;stroke:#000000;stroke-width:1px;stroke-linecap:butt;stroke-linejoin:miter;stroke-opacity:1" d="M 19.351,7.583 C 20.325,5.870 21.303,4.158 22.275,2.444 C 22.315,2.373 22.402,2.204 22.386,2.227 C 22.353,2.276 22.209,2.514 22.127,2.660 C 21.577,3.631 21.135,4.679 20.487,5.580 C 19.812,6.520 19.064,7.471 18.158,8.182 C 16.876,9.187 15.235,9.747 13.922,10.728 C 12.613,11.705 11.321,12.801 10.292,14.058 C 9.315,15.251 8.474,16.647 7.906,18.077 C 7.332,19.524 7.019,21.133 6.868,22.690 C 6.710,24.313 6.735,26.007 6.980,27.617 C 7.210,29.131 7.616,30.700 8.294,32.061 C 8.941,33.361 9.890,34.609 10.954,35.599 C 12.051,36.620 13.405,37.475 14.777,38.094 C 16.226,38.747 17.838,39.178 19.416,39.414 C 21.033,39.655 22.729,39.675 24.360,39.526 C 25.952,39.380 27.595,39.085 29.086,38.530 C 30.483,38.010 31.909,37.270 33.024,36.301 C 34.109,35.357 34.890,34.021 35.686,32.793 C 36.484,31.561 37.489,30.283 37.806,28.920 C 38.043,27.900 37.494,26.738 37.350,25.645 C 37.185,24.389 37.195,23.054 36.877,21.875 C 36.787,21.540 36.169,21.150 36.124,21.103 C 36.093,21.071 36.473,21.460 36.648,21.639 C 36.796,21.789 37.120,22.125 37.092,22.090 C 37.050,22.037 36.655,21.613 36.437,21.375 C 36.218,21.136 35.950,20.837 35.781,20.659 C 35.758,20.635 35.830,20.734 35.859,20.768 C 36.081,21.031 36.309,21.289 36.534,21.550 C 36.759,21.810 36.984,22.070 37.209,22.331" id="g0s0" inkscape:label="g0s0" />
    <path style="fill:none;stroke:#000000;stroke-width:1px;stroke-linecap:butt;stroke-linejoin:miter;stroke-opacity:1" d="M 37.838,29.333 C 39.522,29.878 41.208,30.418 42.890,30.968 C 44.255,31.415 45.582,32.164 46.980,32.322 C 48.443,32.488 50.004,32.216 51.474,31.941 C 52.986,31.658 54.419,30.959 55.927,30.646 C 57.202,30.382 58.739,30.670 59.823,30.211 C 60.311,30.004 60.493,29.212 60.642,28.649 C 61.031,27.181 61.317,25.642 61.435,24.120 C 61.582,22.227 61.437,20.309 61.438,18.403 C 61.438,16.448 61.423,14.494 61.438,12.539 C 61.450,10.776 61.262,8.906 61.518,7.248 C 61.573,6.893 62.126,6.715 62.371,6.502 C 62.389,6.486 62.329,6.542 62.308,6.562 C 62.290,6.579 62.241,6.626 62.255,6.612 C 62.381,6.486 62.570,6.299 62.728,6.142 C 62.886,5.986 63.160,5.709 63.201,5.673 C 63.225,5.651 63.016,5.870 62.923,5.968 C 62.675,6.226 62.426,6.483 62.177,6.739 C 61.930,6.992 61.664,7.492 61.432,7.496 C 61.232,7.499 61.063,7.006 60.880,6.760 C 60.829,6.691 60.740,6.568 60.732,6.551 C 60.726,6.540 60.851,6.690 60.840,6.678 C 60.821,6.655 60.707,6.524 60.640,6.447 C 60.448,6.224 60.256,6.002 60.063,5.779 C 59.871,5.557 59.727,5.261 59.487,5.112 C 59.196,4.932 58.472,4.582 58.469,4.792 C 58.460,5.331 59.124,6.502 59.452,7.357 C 59.780,8.212 60.108,9.067 60.436,9.923 C 60.764,10.778 61.260,12.361 61.419,12.488 C 61.531,12.577 61.308,11.209 61.249,10.570 C 61.188,9.902 61.122,9.234 61.058,8.567 C 60.994,7.899 60.930,7.232 60.866,6.564" id="g0s1" inkscape:label="g0s1" />
    <path style="fill:none;stroke:#000000;stroke-width:1px;stroke-linecap:butt;stroke-linejoin:miter;stroke-opacity:1" d="M 59.946,30.244 C 60.306,29.274 60.741,28.072 61.027,27.335 C 61.066,27.236 60.962,27.604 60.921,27.736 C 60.777,28.197 60.535,28.640 60.472,29.114 C 60.373,29.862 60.332,30.651 60.436,31.402 C 60.648,32.937 61.268,34.430 61.419,35.972 C 61.602,37.850 61.382,39.767 61.438,41.663 C 61.486,43.300 61.443,44.971 61.730,46.571 C 61.973,47.924 62.291,49.409 63.027,50.521 C 63.719,51.566 64.901,52.410 66.015,53.043 C 67.124,53.673 68.646,53.628 69.695,54.309 C 70.573,54.880 71.093,55.973 71.796,56.800 C 71.895,56.916 72.141,57.189 72.101,57.140 C 72.001,57.019 71.631,56.560 71.376,56.288 C 71.047,55.936 70.726,55.564 70.349,55.268 C 69.875,54.897 68.897,54.303 68.823,54.285 C 68.764,54.271 69.575,54.876 69.950,55.172 C 70.326,55.467 70.837,55.920 71.077,56.059 C 71.146,56.098 70.958,55.812 70.875,55.705 C 70.646,55.411 70.397,55.130 70.143,54.857 C 69.909,54.604 69.655,54.370 69.412,54.127" id="g0s2" inkscape:label="g0s2" />
  </g>
  <g id="g1" inkscape:label="g1" transform="translate(34.10,0.00)">
    <path d="M 20.9,25.5 Q 19.3,17.80000000000001 16.700000000000003,14.450000000000003 Q 14.100000000000001,11.100000000000009 9.100000000000001,11.100000000000009 Q 7.799999999999997,11.100000000000009 6.299999999999997,11.250000000000014 Q 4.799999999999997,11.400000000000006 3.3999999999999986,11.900000000000006 L 0.0,1.4000000000000057 Q 4.0,0.0 10.100000000000001,0.0 Q 13.5,0.0 16.75,0.8500000000000085 Q 20.0,1.7000000000000028 22.950000000000003,4.25 Q 25.900000000000002,6.799999999999997 28.450000000000003,11.899999999999991 Q 31.0,17.0 33.1,25.5 L 20.9,25.5" id="g1p0" inkscape:label="g1p0" />
    <path style="fill:none;stroke:#000000;stroke-width:1px;stroke-linecap:butt;stroke-linejoin:miter;stroke-opacity:1" d="M 7.090,5.607 C 5.522,4.647 3.951,3.689 2.384,2.726 C 2.379,2.723 2.371,2.708 2.376,2.710 C 2.444,2.742 2.531,2.785 2.604,2.829 C 3.543,3.403 4.436,4.066 5.411,4.564 C 6.184,4.959 7.000,5.370 7.848,5.509 C 9.229,5.735 10.706,5.446 12.098,5.659 C 13.517,5.877 14.981,6.215 16.279,6.802 C 17.455,7.334 18.588,8.121 19.522,9.016 C 20.602,10.049 21.534,11.306 22.323,12.585 C 23.110,13.860 23.623,15.306 24.250,16.676 C 24.757,17.782 24.987,19.097 25.725,20.015 C 26.492,20.969 27.753,21.532 28.766,22.292 C 29.380,22.753 30.383,23.510 30.606,23.678 C 30.710,23.757 30.033,23.248 29.747,23.033 C 29.461,22.818 29.177,22.600 28.889,22.388 C 27.709,21.517 26.525,20.651 25.344,19.782" id="g1s0" inkscape:label="g1s0" />
  </g>
</svg>