<svg xmlns="http://www.w3.org/2000/svg" xmlns:xlink="http://www.w3.org/1999/xlink" width="61.2" height="130.4"><path d="M30.80 90.60L30.80 90.60Q20.40 90.60 14.70 85.45Q9 80.30 9 72.20L9 72.20Q9 64.20 14.60 59.20L14.60 59.20Q10.20 56.60 7.40 52.80Q4.60 49.00 4.60 43.60L4.60 43.60Q4.60 37.30 9.05 33.30Q13.50 29.30 21.10 29.30L21.10 29.30Q25.60 29.30 29.60 30.30L29.60 30.30L28.60 35.20Q27 34.80 25.20 34.55Q23.40 34.30 21.50 34.30L21.50 34.30Q16.20 34.30 13.10 36.85Q10 39.40 10 43.80L10 43.80Q10 48.00 12.25 51.00Q14.50 54.00 19.10 56.30L19.10 56.30Q23.40 54.40 28.80 54.40L28.80 54.40Q29.70 54.40 30.70 54.45Q31.70 54.50 32.60 54.60L32.60 54.60L32 59.50Q30.60 59.30 28.80 59.30L28.80 59.30Q22.50 59.30 18.40 62.65Q14.30 66 14.30 72.20L14.30 72.20Q14.30 78.50 18.65 82.05Q23 85.60 30.90 85.60L30.90 85.60Q40.50 85.60 45.80 80.50Q51.10 75.40 51.10 66.70L51.10 66.70Q51.10 62.40 50.35 58.65Q49.60 54.90 48 50.75Q46.40 46.60 43.70 41.20L43.70 41.20Q40.50 34.80 38.45 30.45Q36.40 26.10 35.45 22.60Q34.50 19.10 34.50 15.40L34.50 15.40Q34.50 8.80 38.55 4.40Q42.60 0 49.70 0L49.70 0Q54.50 0 57.85 1.85Q61.20 3.70 63.50 6.85Q65.80 10 67.50 13.80L67.50 13.80L62.60 15.50Q60.50 10.80 57.55 7.80Q54.60 4.80 49.80 4.80L49.80 4.80Q45.50 4.80 42.75 7.55Q40 10.30 40 15.50L40 15.50Q40 20.50 42.30 26.00Q44.60 31.50 48.20 38.50L48.20 38.50Q52.30 46.60 54.45 53.10Q56.60 59.60 56.60 66.70L56.60 66.70Q56.60 73.30 53.80 78.75Q51 84.20 45.30 87.40Q39.60 90.60 30.80 90.60Z"/></svg>