<svg xmlns="http://www.w3.org/2000/svg" xmlns:xlink="http://www.w3.org/1999/xlink" width="85.9" height="130.4"><path d="M33.60 78.30L33.60 78.30Q26.80 78.30 21.45 75.05Q16.10 71.80 12.60 65L12.60 65Q12 65 11.30 65L11.30 65Q3.90 65 3.90 60.00L3.90 60.00Q3.90 58.40 5.10 57.20Q6.30 56.00 8.80 56.00L8.80 56.00Q11.20 56.00 12.95 57.05Q14.70 58.10 16.20 59.90L16.20 59.90Q21.70 58.60 25.10 55.00Q28.50 51.40 28.50 46.30L28.50 46.30Q28.50 40.90 25.25 37.60Q22 34.30 15.20 34.30L15.20 34.30Q12.90 34.30 10.30 34.90Q7.70 35.50 5.30 36.40L5.30 36.40L3.50 31.70Q5.90 30.70 9 30.00Q12.10 29.30 15.40 29.30L15.40 29.30Q24.10 29.30 29 34.05Q33.90 38.80 33.90 46.50L33.90 46.50Q33.90 53.00 29.45 57.75Q25 62.50 18.10 64.20L18.10 64.20Q20.30 68.40 24.05 70.85Q27.80 73.30 33.30 73.30L33.30 73.30Q40.60 73.30 44.60 69.20L44.60 69.20Q47 66.70 48 63.15Q49 59.60 49 54.60L49 54.60L49 45.00L54.30 45.70L54.30 55.70Q54.30 56.50 54.30 57.20L54.30 57.20Q56.50 60.70 61 60.60L61 60.60Q64 60.60 66.30 59.25Q68.60 57.90 70.50 55.60L70.50 55.60L70.50 29.30L75.80 30.10L75.80 75.50Q75.80 78.70 76.30 80.35Q76.80 82.00 78 82.90L78 82.90Q79.20 84.10 81.15 84.35Q83.10 84.60 85.40 84.60L85.40 84.60L84.90 89.60L83.90 89.60Q77.20 89.60 74 86.60L74 86.60Q72.20 85.00 71.35 82.50Q70.50 80 70.50 75.80L70.50 75.80L70.50 62.10Q68.70 63.70 66.40 64.60Q64.10 65.50 61.10 65.60L61.10 65.60Q59.10 65.50 57.15 64.95Q55.20 64.40 53.50 63.00L53.50 63.00Q51.80 70.40 46.55 74.30Q41.30 78.20 33.60 78.30ZM75.40 25.50L71 25.50Q69.10 17.70 67.25 13.15Q65.40 8.60 62.95 6.70Q60.50 4.80 56.70 4.80L56.70 4.80Q55.50 4.80 54.15 5Q52.80 5.20 51.30 5.70L51.30 5.70L49.80 1.10Q51.70 0.50 53.50 0.25Q55.30 0 57 0L57 0Q61.60 0 64.95 2.25Q68.30 4.50 70.80 10.05Q73.30 15.60 75.40 25.50L75.40 25.50ZM70.10 23.70L67.30 26.60Q61.20 21.20 57 18.85Q52.80 16.50 47.90 16.50L47.90 16.50Q44.40 16.50 41.50 17.40L41.50 17.40L40 12.70Q41.80 12.30 43.75 12Q45.70 11.70 47.90 11.70L47.90 11.70Q51.70 11.70 55.05 12.90Q58.40 14.10 61.95 16.75Q65.50 19.40 70.10 23.70L70.10 23.70Z"/></svg>