<svg xmlns="http://www.w3.org/2000/svg" xmlns:xlink="http://www.w3.org/1999/xlink" width="93.6" height="130.4"><path d="M20.50 90.60L20.50 90.60Q14.70 90.60 9.85 87.45Q5 84.30 1.20 77.40L1.20 77.40L5.50 74.70Q8.40 80 11.80 82.80Q15.20 85.60 20.40 85.60L20.40 85.60Q27 85.60 29.90 80.30Q32.80 75 32.80 65.90L32.80 65.90Q32.80 55.90 29.10 50.60Q25.40 45.30 18.30 45.30L18.30 45.30Q15 45.30 12.30 46.05Q9.60 46.80 6.90 48.20L6.90 48.20L5.10 43.60Q8.10 42.10 11.60 41.25Q15.10 40.40 18.60 40.40L18.60 40.40Q30.60 40.40 35.40 51.10L35.40 51.10Q37.80 49.80 40.45 49.10Q43.10 48.40 46 48.40L46 48.40L46.40 48.40L46.40 29.30L51.70 30.10L51.70 49.20Q57.30 50.80 60.55 55.55Q63.80 60.30 63.80 67.10L63.80 67.10Q63.80 74.10 60.70 79.60Q57.60 85.10 51.10 90.20L51.10 90.20L47.40 86.10Q53 81.90 55.70 77.50Q58.40 73.10 58.40 66.90L58.40 66.90Q58.40 60.70 55.05 56.95Q51.70 53.20 46.10 53.20L46.10 53.20Q41.30 53.30 37.10 55.90L37.10 55.90Q38.20 60.40 38.20 66.10L38.20 66.10Q38.20 78.80 33.20 84.70Q28.20 90.60 20.50 90.60ZM92.50 89.60L91.60 89.60Q88.50 89.60 86 88.95Q83.50 88.30 81.70 86.60L81.70 86.60Q79.80 84.90 79 82.40Q78.20 79.90 78.20 75.80L78.20 75.80L78.20 22.40Q78.20 15.80 79.55 11.70Q80.90 7.60 84.30 4.70L84.30 4.70Q86.50 2.80 89.65 1.70Q92.80 0.60 96.90 0.60L96.90 0.60Q106 0.60 113.25 5.85Q120.50 11.10 127.80 19.60L127.80 19.60L123.90 22.70Q117.50 15.10 111.15 10.30Q104.80 5.50 97.20 5.50L97.20 5.50Q91.30 5.50 87.90 8.40L87.90 8.40Q85.50 10.50 84.50 14Q83.50 17.50 83.50 24.10L83.50 24.10L83.50 75.50Q83.50 78.70 84 80.35Q84.50 82.00 85.70 82.90L85.70 82.90Q86.90 84.10 88.85 84.35Q90.80 84.60 93.10 84.60L93.10 84.60L92.50 89.60Z"/></svg>