<svg xmlns="http://www.w3.org/2000/svg" xmlns:xlink="http://www.w3.org/1999/xlink" width="55.1" height="130.4"><path d="M27.60 79.30L27.60 79.30Q21.70 79.30 17.15 76.65Q12.60 74 10.05 69.45Q7.50 64.90 7.50 59.00L7.50 59.00Q7.50 53.20 10.05 48.65Q12.60 44.10 17.15 41.45Q21.70 38.80 27.50 38.80L27.50 38.80Q33.40 38.80 37.90 41.40Q42.40 44.00 44.95 48.60Q47.50 53.20 47.50 59.10L47.50 59.10Q47.50 65 44.90 69.55Q42.30 74.10 37.80 76.70Q33.30 79.30 27.60 79.30ZM27.40 74.30L27.40 74.30Q33.80 74.30 37.95 70Q42.10 65.70 42.10 58.90L42.10 58.90Q42.10 52.20 38.05 48.00Q34 43.80 27.60 43.80L27.60 43.80Q21.20 43.80 17.10 48.10Q13 52.40 13 59.10L13 59.10Q13 65.80 17 70.05Q21 74.30 27.40 74.30Z"/></svg>