<svg xmlns="http://www.w3.org/2000/svg" xmlns:xlink="http://www.w3.org/1999/xlink" width="165.3" height="130.4"><path d="M49.10 89.60L48.10 89.60Q41.40 89.60 38.20 86.60L38.20 86.60Q36.50 85.00 35.60 82.50Q34.70 80 34.70 75.80L34.70 75.80L34.70 59.00Q32.60 60.10 30.40 60.65Q28.20 61.20 25.50 61.20L25.50 61.20Q20.90 61.20 17.30 59.20Q13.70 57.20 11.65 53.60Q9.60 50.00 9.60 45.30L9.60 45.30Q9.60 40.80 11.50 37.20Q13.40 33.60 16.85 31.45Q20.30 29.30 25 29.30L25 29.30Q28.60 29.30 31.30 30.45Q34 31.60 35.80 33.70L35.80 33.70Q40 38.10 40 46.90L40 46.90L40 75.50Q40 78.70 40.55 80.35Q41.10 82.00 42.20 82.90L42.20 82.90Q43.40 84.10 45.40 84.35Q47.40 84.60 49.60 84.60L49.60 84.60L49.10 89.60ZM15 45.50L15 45.50Q15 50.50 17.95 53.40Q20.90 56.30 25.60 56.30L25.60 56.30Q30.70 56.30 34.70 53.20L34.70 53.20L34.70 47.70Q34.70 40.40 32.10 37.20L32.10 37.20Q29.60 34.30 25.10 34.30L25.10 34.30Q20.50 34.30 17.75 37.35Q15 40.40 15 45.50ZM82.70 79.30L82.70 79.30Q76.80 79.30 72.25 76.65Q67.70 74 65.15 69.45Q62.60 64.90 62.60 59.00L62.60 59.00Q62.60 53.20 65.15 48.65Q67.70 44.10 72.25 41.45Q76.80 38.80 82.60 38.80L82.60 38.80Q88.50 38.80 93 41.40Q97.50 44.00 100.05 48.60Q102.60 53.20 102.60 59.10L102.60 59.10Q102.60 65 100 69.55Q97.40 74.10 92.90 76.70Q88.40 79.30 82.70 79.30ZM82.50 74.30L82.50 74.30Q88.90 74.30 93.05 70Q97.20 65.70 97.20 58.90L97.20 58.90Q97.20 52.20 93.15 48.00Q89.10 43.80 82.70 43.80L82.70 43.80Q76.30 43.80 72.20 48.10Q68.10 52.40 68.10 59.10L68.10 59.10Q68.10 65.80 72.10 70.05Q76.10 74.30 82.50 74.30ZM137.80 79.30L137.80 79.30Q131.90 79.30 127.35 76.65Q122.80 74 120.25 69.45Q117.70 64.90 117.70 59.00L117.70 59.00Q117.70 53.20 120.25 48.65Q122.80 44.10 127.35 41.45Q131.90 38.80 137.70 38.80L137.70 38.80Q143.60 38.80 148.10 41.40Q152.60 44.00 155.15 48.60Q157.70 53.20 157.70 59.10L157.70 59.10Q157.70 65 155.10 69.55Q152.50 74.10 148 76.70Q143.50 79.30 137.80 79.30ZM137.60 74.30L137.60 74.30Q144 74.30 148.15 70Q152.30 65.70 152.30 58.90L152.30 58.90Q152.30 52.20 148.25 48.00Q144.20 43.80 137.80 43.80L137.80 43.80Q131.40 43.80 127.30 48.10Q123.20 52.40 123.20 59.10L123.20 59.10Q123.20 65.80 127.20 70.05Q131.20 74.30 137.60 74.30Z"/></svg>