<svg xmlns="http://www.w3.org/2000/svg" xmlns:xlink="http://www.w3.org/1999/xlink" width="110.2" height="130.4"><path d="M49.10 89.60L48.10 89.60Q41.40 89.60 38.20 86.60L38.20 86.60Q36.50 85.00 35.60 82.50Q34.70 80 34.70 75.80L34.70 75.80L34.70 59.00Q32.60 60.10 30.40 60.65Q28.20 61.20 25.50 61.20L25.50 61.20Q20.90 61.20 17.30 59.20Q13.70 57.20 11.65 53.60Q9.60 50.00 9.60 45.30L9.60 45.30Q9.60 40.80 11.50 37.20Q13.40 33.60 16.85 31.45Q20.30 29.30 25 29.30L25 29.30Q28.60 29.30 31.30 30.45Q34 31.60 35.80 33.70L35.80 33.70Q40 38.10 40 46.90L40 46.90L40 75.50Q40 78.70 40.55 80.35Q41.10 82.00 42.20 82.90L42.20 82.90Q43.40 84.10 45.40 84.35Q47.40 84.60 49.60 84.60L49.60 84.60L49.10 89.60ZM15 45.50L15 45.50Q15 50.50 17.95 53.40Q20.90 56.30 25.60 56.30L25.60 56.30Q30.70 56.30 34.70 53.20L34.70 53.20L34.70 47.70Q34.70 40.40 32.10 37.20L32.10 37.20Q29.60 34.30 25.10 34.30L25.10 34.30Q20.50 34.30 17.75 37.35Q15 40.40 15 45.50ZM104.20 89.60L103.20 89.60Q96.50 89.60 93.30 86.60L93.30 86.60Q91.60 85.00 90.70 82.50Q89.80 80 89.80 75.80L89.80 75.80L89.80 59.00Q87.70 60.10 85.50 60.65Q83.30 61.20 80.60 61.20L80.60 61.20Q76 61.20 72.40 59.20Q68.80 57.20 66.75 53.60Q64.70 50.00 64.70 45.30L64.70 45.30Q64.70 40.80 66.60 37.20Q68.50 33.60 71.95 31.45Q75.40 29.30 80.10 29.30L80.10 29.30Q83.70 29.30 86.40 30.45Q89.10 31.60 90.90 33.70L90.90 33.70Q95.10 38.10 95.10 46.90L95.10 46.90L95.10 75.50Q95.10 78.70 95.65 80.35Q96.20 82.00 97.30 82.90L97.30 82.90Q98.50 84.10 100.50 84.35Q102.50 84.60 104.70 84.60L104.70 84.60L104.20 89.60ZM70.10 45.50L70.10 45.50Q70.10 50.50 73.05 53.40Q76 56.30 80.70 56.30L80.70 56.30Q85.80 56.30 89.80 53.20L89.80 53.20L89.80 47.70Q89.80 40.40 87.20 37.20L87.20 37.20Q84.70 34.30 80.20 34.30L80.20 34.30Q75.60 34.30 72.85 37.35Q70.10 40.40 70.10 45.50Z"/></svg>