<svg xmlns="http://www.w3.org/2000/svg" xmlns:xlink="http://www.w3.org/1999/xlink" width="110.2" height="130.4"><path d="M49.10 89.60L48.10 89.60Q41.40 89.60 38.20 86.60L38.20 86.60Q36.50 85.00 35.60 82.50Q34.70 80 34.70 75.80L34.70 75.80L34.70 59.00Q32.60 60.10 30.40 60.65Q28.20 61.20 25.50 61.20L25.50 61.20Q20.90 61.20 17.30 59.20Q13.70 57.20 11.65 53.60Q9.60 50.00 9.60 45.30L9.60 45.30Q9.60 40.80 11.50 37.20Q13.40 33.60 16.85 31.45Q20.30 29.30 25 29.30L25 29.30Q28.60 29.30 31.30 30.45Q34 31.60 35.80 33.70L35.80 33.70Q40 38.10 40 46.90L40 46.90L40 75.50Q40 78.70 40.55 80.35Q41.10 82.00 42.20 82.90L42.20 82.90Q43.40 84.10 45.40 84.35Q47.40 84.60 49.60 84.60L49.60 84.60L49.10 89.60ZM15 45.50L15 45.50Q15 50.50 17.95 53.40Q20.90 56.30 25.60 56.30L25.60 56.30Q30.70 56.30 34.70 53.20L34.70 53.20L34.70 47.70Q34.70 40.40 32.10 37.20L32.10 37.20Q29.60 34.30 25.10 34.30L25.10 34.30Q20.50 34.30 17.75 37.35Q15 40.40 15 45.50ZM81.90 90.60L81.90 90.60Q76.80 90.60 73.55 88.55Q70.30 86.50 68.75 83.25Q67.20 80 67.20 76.30L67.20 76.30Q67.20 71.10 69.85 66.15Q72.50 61.20 79.30 54.50L79.30 54.50Q75.20 50.40 69.65 45.15Q64.10 39.90 56.60 33.20L56.60 33.20L60.10 29.30Q67.40 35.90 72.90 41.20Q78.40 46.50 82.70 51.10L82.70 51.10Q87.10 46.70 92.60 41.35Q98.10 36.00 105.20 29.30L105.20 29.30L108.70 33.20Q101.40 40.00 95.85 45.25Q90.30 50.50 86.10 54.60L86.10 54.60Q92 61.10 94.30 65.90Q96.60 70.70 96.60 76.10L96.60 76.10Q96.60 79.90 95.10 83.20Q93.60 86.50 90.35 88.55Q87.10 90.60 81.90 90.60ZM81.90 85.70L81.90 85.70Q86.50 85.70 88.90 83.00Q91.30 80.30 91.30 76L91.30 76Q91.30 71.70 89.45 67.75Q87.60 63.80 82.60 58.20L82.60 58.20Q76.90 64 74.70 68Q72.50 72 72.50 76.40L72.50 76.40Q72.50 80.60 74.90 83.15Q77.30 85.70 81.90 85.70Z"/></svg>