<svg xmlns="http://www.w3.org/2000/svg" xmlns:xlink="http://www.w3.org/1999/xlink" width="110.2" height="130.4"><path d="M49.10 89.60L48.10 89.60Q41.40 89.60 38.20 86.60L38.20 86.60Q36.50 85.00 35.60 82.50Q34.70 80 34.70 75.80L34.70 75.80L34.70 59.00Q32.60 60.10 30.40 60.65Q28.20 61.20 25.50 61.20L25.50 61.20Q20.90 61.20 17.30 59.20Q13.70 57.20 11.65 53.60Q9.60 50.00 9.60 45.30L9.60 45.30Q9.60 40.80 11.50 37.20Q13.40 33.60 16.85 31.45Q20.30 29.30 25 29.30L25 29.30Q28.60 29.30 31.30 30.45Q34 31.60 35.80 33.70L35.80 33.70Q40 38.10 40 46.90L40 46.90L40 75.50Q40 78.70 40.55 80.35Q41.10 82.00 42.20 82.90L42.20 82.90Q43.40 84.10 45.40 84.35Q47.40 84.60 49.60 84.60L49.60 84.60L49.10 89.60ZM15 45.50L15 45.50Q15 50.50 17.95 53.40Q20.90 56.30 25.60 56.30L25.60 56.30Q30.70 56.30 34.70 53.20L34.70 53.20L34.70 47.70Q34.70 40.40 32.10 37.20L32.10 37.20Q29.60 34.30 25.10 34.30L25.10 34.30Q20.50 34.30 17.75 37.35Q15 40.40 15 45.50ZM80.50 73L80.50 73Q73 73 69.20 68.50L69.20 68.50Q67.30 66.40 66.40 63.60Q65.50 60.80 65.50 56.70L65.50 56.70L65.50 44.40Q65.50 41.70 65.15 40.20Q64.80 38.70 64 37.60L64 37.60Q63 36.20 60.95 35.75Q58.90 35.30 56.40 35.30L56.40 35.30L56.90 30.40L57.80 30.40Q64.90 30.40 68 34.00L68 34.00Q69.50 35.60 70.15 38.05Q70.80 40.50 70.80 44.20L70.80 44.20L70.80 56.50Q70.80 59.90 71.45 61.90Q72.10 63.90 73.30 65.20L73.30 65.20Q75.70 68.10 81.10 68.10L81.10 68.10Q84.60 68.10 87.65 66.50Q90.70 64.90 93.10 62.30L93.10 62.30L93.10 29.30L98.40 30.10L98.40 75.50Q98.40 78.70 98.90 80.35Q99.40 82.00 100.60 82.90L100.60 82.90Q101.80 84.10 103.75 84.35Q105.70 84.60 108 84.60L108 84.60L107.50 89.60L106.50 89.60Q99.80 89.60 96.60 86.60L96.60 86.60Q94.80 85.00 93.95 82.50Q93.10 80 93.10 75.80L93.10 75.80L93.10 68.40Q90.60 70.50 87.45 71.75Q84.30 73 80.50 73Z"/></svg>