<svg xmlns="http://www.w3.org/2000/svg" xmlns:xlink="http://www.w3.org/1999/xlink" width="110.2" height="130.4"><path d="M49.10 89.60L48.10 89.60Q41.40 89.60 38.20 86.60L38.20 86.60Q36.50 85.00 35.60 82.50Q34.70 80 34.70 75.80L34.70 75.80L34.70 59.00Q32.60 60.10 30.40 60.65Q28.20 61.20 25.50 61.20L25.50 61.20Q20.90 61.20 17.30 59.20Q13.70 57.20 11.65 53.60Q9.60 50.00 9.60 45.30L9.60 45.30Q9.60 40.80 11.50 37.20Q13.40 33.60 16.85 31.45Q20.30 29.30 25 29.30L25 29.30Q28.60 29.30 31.30 30.45Q34 31.60 35.80 33.70L35.80 33.70Q40 38.10 40 46.90L40 46.90L40 75.50Q40 78.70 40.55 80.35Q41.10 82.00 42.20 82.90L42.20 82.90Q43.40 84.10 45.40 84.35Q47.40 84.60 49.60 84.60L49.60 84.60L49.10 89.60ZM15 45.50L15 45.50Q15 50.50 17.95 53.40Q20.90 56.30 25.60 56.30L25.60 56.30Q30.70 56.30 34.70 53.20L34.70 53.20L34.70 47.70Q34.70 40.40 32.10 37.20L32.10 37.20Q29.60 34.30 25.10 34.30L25.10 34.30Q20.50 34.30 17.75 37.35Q15 40.40 15 45.50ZM83.80 90.50L83.80 90.50Q73.40 90.50 67.15 83.70Q60.90 76.90 58.40 62.20L58.40 62.20L63.80 61.50Q65.70 73.20 70.35 79.40Q75 85.60 83.60 85.60L83.60 85.60Q89.60 85.60 93.05 82.50Q96.50 79.40 97.95 73.60Q99.40 67.80 99.40 59.90L99.40 59.90Q99.40 53.40 97.80 47.55Q96.20 41.70 92.70 38.00Q89.20 34.30 83.50 34.30L83.50 34.30Q78.90 34.30 76.10 36.90Q73.30 39.50 73.30 43.90L73.30 43.90Q73.30 50.90 79.60 54.10Q85.90 57.30 97.30 57.30L97.30 57.30L97.10 62.30Q82.90 62.30 75.35 57.50Q67.80 52.70 67.80 43.70L67.80 43.70Q67.80 37.70 71.90 33.50Q76 29.30 83.60 29.30L83.60 29.30Q90.50 29.30 95.25 33.25Q100 37.20 102.50 44.20Q105 51.20 105 60.50L105 60.50Q105 75.40 99.60 82.95Q94.20 90.50 83.80 90.50Z"/></svg>