<svg xmlns="http://www.w3.org/2000/svg" xmlns:xlink="http://www.w3.org/1999/xlink" width="110.2" height="130.4"><path d="M49.10 89.60L48.10 89.60Q41.40 89.60 38.20 86.60L38.20 86.60Q36.50 85.00 35.60 82.50Q34.70 80 34.70 75.80L34.70 75.80L34.70 59.00Q32.60 60.10 30.40 60.65Q28.20 61.20 25.50 61.20L25.50 61.20Q20.90 61.20 17.30 59.20Q13.70 57.20 11.65 53.60Q9.60 50.00 9.60 45.30L9.60 45.30Q9.60 40.80 11.50 37.20Q13.40 33.60 16.85 31.45Q20.30 29.30 25 29.30L25 29.30Q28.60 29.30 31.30 30.45Q34 31.60 35.80 33.70L35.80 33.70Q40 38.10 40 46.90L40 46.90L40 75.50Q40 78.70 40.55 80.35Q41.10 82.00 42.20 82.90L42.20 82.90Q43.40 84.10 45.40 84.35Q47.40 84.60 49.60 84.60L49.60 84.60L49.10 89.60ZM15 45.50L15 45.50Q15 50.50 17.95 53.40Q20.90 56.30 25.60 56.30L25.60 56.30Q30.70 56.30 34.70 53.20L34.70 53.20L34.70 47.70Q34.70 40.40 32.10 37.20L32.10 37.20Q29.60 34.30 25.10 34.30L25.10 34.30Q20.50 34.30 17.75 37.35Q15 40.40 15 45.50ZM82.50 90.60L82.50 90.60Q76.90 90.60 72.50 88.55Q68.10 86.50 65.55 82.70Q63 78.90 63 73.60L63 73.60Q63 69.90 64.15 66.70Q65.30 63.50 67.95 60.05Q70.60 56.60 75.20 52.10L75.20 52.10L98.20 29.30L102.20 33.30L80.60 54.20Q76.20 58.50 73.50 61.70Q70.80 64.90 69.60 67.70Q68.40 70.50 68.40 73.70L68.40 73.70Q68.40 79.40 72.35 82.50Q76.30 85.60 82.70 85.60L82.70 85.60Q88.30 85.60 92.80 84.00Q97.30 82.40 101.80 79.60L101.80 79.60L104.30 84.20Q99.80 87.00 94.45 88.80Q89.10 90.60 82.50 90.60Z"/></svg>