<svg xmlns="http://www.w3.org/2000/svg" xmlns:xlink="http://www.w3.org/1999/xlink" width="110.2" height="130.4"><path d="M49.10 89.60L48.10 89.60Q41.40 89.60 38.20 86.60L38.20 86.60Q36.50 85.00 35.60 82.50Q34.70 80 34.70 75.80L34.70 75.80L34.70 59.00Q32.60 60.10 30.40 60.65Q28.20 61.20 25.50 61.20L25.50 61.20Q20.90 61.20 17.30 59.20Q13.70 57.20 11.65 53.60Q9.60 50.00 9.60 45.30L9.60 45.30Q9.60 40.80 11.50 37.20Q13.40 33.60 16.85 31.45Q20.30 29.30 25 29.30L25 29.30Q28.60 29.30 31.30 30.45Q34 31.60 35.80 33.70L35.80 33.70Q40 38.10 40 46.90L40 46.90L40 75.50Q40 78.70 40.55 80.35Q41.10 82.00 42.20 82.90L42.20 82.90Q43.40 84.10 45.40 84.35Q47.40 84.60 49.60 84.60L49.60 84.60L49.10 89.60ZM15 45.50L15 45.50Q15 50.50 17.95 53.40Q20.90 56.30 25.60 56.30L25.60 56.30Q30.70 56.30 34.70 53.20L34.70 53.20L34.70 47.70Q34.70 40.40 32.10 37.20L32.10 37.20Q29.60 34.30 25.10 34.30L25.10 34.30Q20.50 34.30 17.75 37.35Q15 40.40 15 45.50ZM89.90 90.60L89.90 90.60Q81 90.60 74.50 87.00Q68 83.40 64.40 77.05Q60.80 70.70 60.80 62.30L60.80 62.30Q60.80 50.30 68.70 42.00Q76.60 33.70 90.20 29.40L90.20 29.40L91.90 34.30Q79 38.50 72.70 45.45Q66.40 52.40 66.40 62.80L66.40 62.80Q66.40 70 69.40 75.10Q72.40 80.20 77.70 82.85Q83 85.50 89.80 85.50L89.80 85.50Q94 85.50 97.45 84.80Q100.90 84.10 104.50 82.70L104.50 82.70L106.50 87.50Q102.80 89.00 98.75 89.80Q94.70 90.60 89.90 90.60ZM104 59.30L79.10 65.60L77.70 60.40L102.70 54.20L104 59.30Z"/></svg>