<svg xmlns="http://www.w3.org/2000/svg" xmlns:xlink="http://www.w3.org/1999/xlink" width="110.2" height="130.4"><path d="M42.60 89.60L42.60 89.60Q37 89.60 32.95 87.15Q28.90 84.70 25.70 80.20Q22.50 75.70 19.60 69.60L19.60 69.60Q18.60 69.60 17.60 69.60L17.60 69.60Q9 69.60 9 64.60L9 64.60Q9 62.50 10.40 61.45Q11.80 60.40 14 60.40L14 60.40Q18.60 60.40 22.40 64.10L22.40 64.10Q29.30 62.90 33.90 58.85Q38.50 54.80 38.50 48.10L38.50 48.10Q38.50 41.40 34.65 37.85Q30.80 34.30 24.10 34.30L24.10 34.30Q20.80 34.30 17.60 35.00Q14.40 35.70 10.80 37.30L10.80 37.30L9 32.60Q12.80 31.10 16.60 30.20Q20.40 29.30 24.20 29.30L24.20 29.30Q33.10 29.30 38.55 34.20Q44 39.10 44 48.10L44 48.10Q44 53.60 41.50 57.85Q39 62.10 34.70 64.90Q30.40 67.70 24.90 68.90L24.90 68.90Q27.80 74.40 30.35 77.85Q32.90 81.30 35.80 82.90Q38.70 84.50 42.80 84.50L42.80 84.50Q44.90 84.50 46.85 83.95Q48.80 83.40 50.50 82.50L50.50 82.50L52.40 87.20Q47.90 89.60 42.60 89.60ZM82.70 79.30L82.70 79.30Q76.80 79.30 72.25 76.65Q67.70 74 65.15 69.45Q62.60 64.90 62.60 59.00L62.60 59.00Q62.60 53.20 65.15 48.65Q67.70 44.10 72.25 41.45Q76.80 38.80 82.60 38.80L82.60 38.80Q88.50 38.80 93 41.40Q97.50 44.00 100.05 48.60Q102.60 53.20 102.60 59.10L102.60 59.10Q102.60 65 100 69.55Q97.40 74.10 92.90 76.70Q88.40 79.30 82.70 79.30ZM82.50 74.30L82.50 74.30Q88.90 74.30 93.05 70Q97.20 65.70 97.20 58.90L97.20 58.90Q97.20 52.20 93.15 48.00Q89.10 43.80 82.70 43.80L82.70 43.80Q76.30 43.80 72.20 48.10Q68.10 52.40 68.10 59.10L68.10 59.10Q68.10 65.80 72.10 70.05Q76.10 74.30 82.50 74.30Z"/></svg>