<svg xmlns="http://www.w3.org/2000/svg" xmlns:xlink="http://www.w3.org/1999/xlink" width="110.2" height="130.4"><path d="M42.60 89.60L42.60 89.60Q37 89.60 32.95 87.15Q28.90 84.70 25.70 80.20Q22.50 75.70 19.60 69.60L19.60 69.60Q18.60 69.60 17.60 69.60L17.60 69.60Q9 69.60 9 64.60L9 64.60Q9 62.50 10.40 61.45Q11.80 60.40 14 60.40L14 60.40Q18.60 60.40 22.40 64.10L22.40 64.10Q29.30 62.90 33.90 58.85Q38.50 54.80 38.50 48.10L38.50 48.10Q38.50 41.40 34.65 37.85Q30.80 34.30 24.10 34.30L24.10 34.30Q20.80 34.30 17.60 35.00Q14.40 35.70 10.80 37.30L10.80 37.30L9 32.60Q12.80 31.10 16.60 30.20Q20.40 29.30 24.20 29.30L24.20 29.30Q33.10 29.30 38.55 34.20Q44 39.10 44 48.10L44 48.10Q44 53.60 41.50 57.85Q39 62.10 34.70 64.90Q30.40 67.70 24.90 68.90L24.90 68.90Q27.80 74.40 30.35 77.85Q32.90 81.30 35.80 82.90Q38.70 84.50 42.80 84.50L42.80 84.50Q44.90 84.50 46.85 83.95Q48.80 83.40 50.50 82.50L50.50 82.50L52.40 87.20Q47.90 89.60 42.60 89.60ZM104.20 89.60L103.20 89.60Q96.50 89.60 93.30 86.60L93.30 86.60Q91.60 85.00 90.70 82.50Q89.80 80 89.80 75.80L89.80 75.80L89.80 59.00Q87.70 60.10 85.50 60.65Q83.30 61.20 80.60 61.20L80.60 61.20Q76 61.20 72.40 59.20Q68.80 57.20 66.75 53.60Q64.70 50.00 64.70 45.30L64.70 45.30Q64.70 40.80 66.60 37.20Q68.50 33.60 71.95 31.45Q75.40 29.30 80.10 29.30L80.10 29.30Q83.70 29.30 86.40 30.45Q89.10 31.60 90.90 33.70L90.90 33.70Q95.10 38.10 95.10 46.90L95.10 46.90L95.10 75.50Q95.10 78.70 95.65 80.35Q96.20 82.00 97.30 82.90L97.30 82.90Q98.50 84.10 100.50 84.35Q102.50 84.60 104.70 84.60L104.70 84.60L104.20 89.60ZM70.10 45.50L70.10 45.50Q70.10 50.50 73.05 53.40Q76 56.30 80.70 56.30L80.70 56.30Q85.80 56.30 89.80 53.20L89.80 53.20L89.80 47.70Q89.80 40.40 87.20 37.20L87.20 37.20Q84.70 34.30 80.20 34.30L80.20 34.30Q75.60 34.30 72.85 37.35Q70.10 40.40 70.10 45.50Z"/></svg>