<svg xmlns="http://www.w3.org/2000/svg" xmlns:xlink="http://www.w3.org/1999/xlink" width="110.2" height="130.4"><path d="M42.60 89.60L42.60 89.60Q37 89.60 32.95 87.15Q28.90 84.70 25.70 80.20Q22.50 75.70 19.60 69.60L19.60 69.60Q18.60 69.60 17.60 69.60L17.60 69.60Q9 69.60 9 64.60L9 64.60Q9 62.50 10.40 61.45Q11.80 60.40 14 60.40L14 60.40Q18.60 60.40 22.40 64.10L22.40 64.10Q29.30 62.90 33.90 58.85Q38.50 54.80 38.50 48.10L38.50 48.10Q38.50 41.40 34.65 37.85Q30.80 34.30 24.10 34.30L24.10 34.30Q20.80 34.30 17.60 35.00Q14.40 35.70 10.80 37.30L10.80 37.30L9 32.60Q12.80 31.10 16.60 30.20Q20.40 29.30 24.20 29.30L24.20 29.30Q33.10 29.30 38.55 34.20Q44 39.10 44 48.10L44 48.10Q44 53.60 41.50 57.85Q39 62.10 34.70 64.90Q30.40 67.70 24.90 68.90L24.90 68.90Q27.80 74.40 30.35 77.85Q32.90 81.30 35.80 82.90Q38.70 84.50 42.80 84.50L42.80 84.50Q44.90 84.50 46.85 83.95Q48.80 83.40 50.50 82.50L50.50 82.50L52.40 87.20Q47.90 89.60 42.60 89.60ZM97.70 89.60L97.70 89.60Q92.10 89.60 88.05 87.15Q84 84.70 80.80 80.20Q77.60 75.70 74.70 69.60L74.70 69.60Q73.70 69.60 72.70 69.60L72.70 69.60Q64.10 69.60 64.10 64.60L64.10 64.60Q64.10 62.50 65.50 61.45Q66.90 60.40 69.10 60.40L69.10 60.40Q73.70 60.40 77.50 64.10L77.50 64.10Q84.40 62.90 89 58.85Q93.60 54.80 93.60 48.10L93.60 48.10Q93.60 41.40 89.75 37.85Q85.90 34.30 79.20 34.30L79.20 34.30Q75.90 34.30 72.70 35.00Q69.50 35.70 65.90 37.30L65.90 37.30L64.10 32.60Q67.90 31.10 71.70 30.20Q75.50 29.30 79.30 29.30L79.30 29.30Q88.20 29.30 93.65 34.20Q99.10 39.10 99.10 48.10L99.10 48.10Q99.10 53.60 96.60 57.85Q94.10 62.10 89.80 64.90Q85.50 67.70 80 68.90L80 68.90Q82.90 74.40 85.45 77.85Q88 81.30 90.90 82.90Q93.80 84.50 97.90 84.50L97.90 84.50Q100 84.50 101.95 83.95Q103.90 83.40 105.60 82.50L105.60 82.50L107.50 87.20Q103 89.60 97.70 89.60Z"/></svg>