<svg xmlns="http://www.w3.org/2000/svg" xmlns:xlink="http://www.w3.org/1999/xlink" width="110.2" height="130.4"><path d="M42.60 89.60L42.60 89.60Q37 89.60 32.95 87.15Q28.90 84.70 25.70 80.20Q22.50 75.70 19.60 69.60L19.60 69.60Q18.60 69.60 17.60 69.60L17.60 69.60Q9 69.60 9 64.60L9 64.60Q9 62.50 10.40 61.45Q11.80 60.40 14 60.40L14 60.40Q18.60 60.40 22.40 64.10L22.40 64.10Q29.30 62.90 33.90 58.85Q38.50 54.80 38.50 48.10L38.50 48.10Q38.50 41.40 34.65 37.85Q30.80 34.30 24.10 34.30L24.10 34.30Q20.80 34.30 17.60 35.00Q14.40 35.70 10.80 37.30L10.80 37.30L9 32.60Q12.80 31.10 16.60 30.20Q20.40 29.30 24.20 29.30L24.20 29.30Q33.10 29.30 38.55 34.20Q44 39.10 44 48.10L44 48.10Q44 53.60 41.50 57.85Q39 62.10 34.70 64.90Q30.40 67.70 24.90 68.90L24.90 68.90Q27.80 74.40 30.35 77.85Q32.90 81.30 35.80 82.90Q38.70 84.50 42.80 84.50L42.80 84.50Q44.90 84.50 46.85 83.95Q48.80 83.40 50.50 82.50L50.50 82.50L52.40 87.20Q47.90 89.60 42.60 89.60ZM83 90.60L83 90.60Q75.20 90.60 69.55 86.50Q63.90 82.40 59.50 75.10L59.50 75.10L64 72.30Q68.50 79.50 73 82.55Q77.50 85.60 82.90 85.60L82.90 85.60Q88.80 85.60 92.50 82.50Q96.20 79.40 96.20 73.50L96.20 73.50Q96.20 69.20 94.35 65.95Q92.50 62.70 89.20 60.30L89.20 60.30Q83.80 62.60 76.20 63.10L76.20 63.10L75.20 58.00Q84.50 57.40 89.70 54.30Q94.90 51.20 94.90 45.00L94.90 45.00Q94.90 40.10 91.65 37.20Q88.40 34.30 82.30 34.30L82.30 34.30Q78.70 34.30 75.35 35.10Q72 35.90 68.40 37.60L68.40 37.60L66.70 32.90Q70.30 31.30 74.35 30.30Q78.40 29.30 82.40 29.30L82.40 29.30Q91.40 29.30 95.80 33.65Q100.20 38.00 100.20 44.90L100.20 44.90Q100.20 49.00 98.55 52.20Q96.90 55.40 93.90 57.60L93.90 57.60Q97.60 60.90 99.55 64.95Q101.50 69 101.50 73.60L101.50 73.60Q101.50 81.20 96.55 85.90Q91.60 90.60 83 90.60Z"/></svg>