<svg xmlns="http://www.w3.org/2000/svg" xmlns:xlink="http://www.w3.org/1999/xlink" width="110.2" height="130.4"><path d="M42.60 89.60L42.60 89.60Q37 89.60 32.95 87.15Q28.90 84.70 25.70 80.20Q22.50 75.70 19.60 69.60L19.60 69.60Q18.60 69.60 17.60 69.60L17.60 69.60Q9 69.60 9 64.60L9 64.60Q9 62.50 10.40 61.45Q11.80 60.40 14 60.40L14 60.40Q18.60 60.40 22.40 64.10L22.40 64.10Q29.30 62.90 33.90 58.85Q38.50 54.80 38.50 48.10L38.50 48.10Q38.50 41.40 34.65 37.85Q30.80 34.30 24.10 34.30L24.10 34.30Q20.80 34.30 17.60 35.00Q14.40 35.70 10.80 37.30L10.80 37.30L9 32.60Q12.80 31.10 16.60 30.20Q20.40 29.30 24.20 29.30L24.20 29.30Q33.10 29.30 38.55 34.20Q44 39.10 44 48.10L44 48.10Q44 53.60 41.50 57.85Q39 62.10 34.70 64.90Q30.40 67.70 24.90 68.90L24.90 68.90Q27.80 74.40 30.35 77.85Q32.90 81.30 35.80 82.90Q38.70 84.50 42.80 84.50L42.80 84.50Q44.90 84.50 46.85 83.95Q48.80 83.40 50.50 82.50L50.50 82.50L52.40 87.20Q47.90 89.60 42.60 89.60ZM81.90 90.60L81.90 90.60Q76.80 90.60 73.55 88.55Q70.30 86.50 68.75 83.25Q67.20 80 67.20 76.30L67.20 76.30Q67.20 71.10 69.85 66.15Q72.50 61.20 79.30 54.50L79.30 54.50Q75.20 50.40 69.65 45.15Q64.10 39.90 56.60 33.20L56.60 33.20L60.10 29.30Q67.40 35.90 72.90 41.20Q78.40 46.50 82.70 51.10L82.70 51.10Q87.10 46.70 92.60 41.35Q98.10 36.00 105.20 29.30L105.20 29.30L108.70 33.20Q101.40 40.00 95.85 45.25Q90.30 50.50 86.10 54.60L86.10 54.60Q92 61.10 94.30 65.90Q96.60 70.70 96.60 76.10L96.60 76.10Q96.60 79.90 95.10 83.20Q93.60 86.50 90.35 88.55Q87.10 90.60 81.90 90.60ZM81.90 85.70L81.90 85.70Q86.50 85.70 88.90 83.00Q91.30 80.30 91.30 76L91.30 76Q91.30 71.70 89.45 67.75Q87.60 63.80 82.60 58.20L82.60 58.20Q76.90 64 74.70 68Q72.50 72 72.50 76.40L72.50 76.40Q72.50 80.60 74.90 83.15Q77.30 85.70 81.90 85.70Z"/></svg>