<svg xmlns="http://www.w3.org/2000/svg" xmlns:xlink="http://www.w3.org/1999/xlink" width="110.2" height="130.4"><path d="M42.60 89.60L42.60 89.60Q37 89.60 32.95 87.15Q28.90 84.70 25.70 80.20Q22.50 75.70 19.60 69.60L19.60 69.60Q18.60 69.60 17.60 69.60L17.60 69.60Q9 69.60 9 64.60L9 64.60Q9 62.50 10.40 61.45Q11.80 60.40 14 60.40L14 60.40Q18.60 60.40 22.40 64.10L22.40 64.10Q29.30 62.90 33.90 58.85Q38.50 54.80 38.50 48.10L38.50 48.10Q38.50 41.40 34.65 37.85Q30.80 34.30 24.10 34.30L24.10 34.30Q20.80 34.30 17.60 35.00Q14.40 35.70 10.80 37.30L10.80 37.30L9 32.60Q12.80 31.10 16.60 30.20Q20.40 29.30 24.20 29.30L24.20 29.30Q33.10 29.30 38.55 34.20Q44 39.10 44 48.10L44 48.10Q44 53.60 41.50 57.85Q39 62.10 34.70 64.90Q30.40 67.70 24.90 68.90L24.90 68.90Q27.80 74.40 30.35 77.85Q32.90 81.30 35.80 82.90Q38.70 84.50 42.80 84.50L42.80 84.50Q44.90 84.50 46.85 83.95Q48.80 83.40 50.50 82.50L50.50 82.50L52.40 87.20Q47.90 89.60 42.60 89.60ZM88.30 98.50L88.30 98.50Q80.10 98.50 73.95 94.45Q67.80 90.40 63.30 84.20L63.30 84.20L67.80 81.20Q76.80 93.60 88.20 93.60L88.20 93.60Q92.80 93.60 95.45 91.70Q98.10 89.80 98.10 86.20L98.10 86.20Q98.10 82.90 95.90 80.50Q93.70 78.10 87.60 75.40L87.60 75.40Q82.20 73.10 79.20 71.05Q76.20 69 75 66.75Q73.80 64.50 73.80 61.70L73.80 61.70Q73.80 59.70 74.60 58.00L74.60 58.00Q70.80 55.30 68.35 51.75Q65.90 48.20 65.90 43.30L65.90 43.30Q65.90 37.50 70.55 33.40Q75.20 29.30 84.80 29.30L84.80 29.30Q88 29.30 90.85 29.75Q93.70 30.20 96 30.80L96 30.80L95 35.70Q92.90 35.10 90.40 34.70Q87.90 34.30 85 34.30L85 34.30Q78 34.30 74.65 36.95Q71.30 39.60 71.30 43.60L71.30 43.60Q71.30 49.80 77.70 54.20L77.70 54.20Q81.80 51.30 88.70 51.30L88.70 51.30Q94.10 51.30 98.50 52.20L98.50 52.20L97.50 57.10Q93.20 56.20 88.80 56.20L88.80 56.20Q79.30 56.20 79.30 61.90L79.30 61.90Q79.30 64.60 81.50 66.45Q83.70 68.30 89.30 70.70L89.30 70.70Q97.20 74.20 100.40 77.80Q103.60 81.40 103.60 86.30L103.60 86.30Q103.60 91.80 99.65 95.15Q95.70 98.50 88.30 98.50Z"/></svg>