<svg xmlns="http://www.w3.org/2000/svg" xmlns:xlink="http://www.w3.org/1999/xlink" width="110.2" height="130.4"><path d="M27.90 90.60L27.90 90.60Q20.10 90.60 14.45 86.50Q8.80 82.40 4.40 75.10L4.40 75.10L8.90 72.30Q13.40 79.50 17.90 82.55Q22.40 85.60 27.80 85.60L27.80 85.60Q33.70 85.60 37.40 82.50Q41.10 79.40 41.10 73.50L41.10 73.50Q41.10 69.20 39.25 65.95Q37.40 62.70 34.10 60.30L34.10 60.30Q28.70 62.60 21.10 63.10L21.10 63.10L20.10 58.00Q29.40 57.40 34.60 54.30Q39.80 51.20 39.80 45.00L39.80 45.00Q39.80 40.10 36.55 37.20Q33.30 34.30 27.20 34.30L27.20 34.30Q23.60 34.30 20.25 35.10Q16.90 35.90 13.30 37.60L13.30 37.60L11.60 32.90Q15.20 31.30 19.25 30.30Q23.30 29.30 27.30 29.30L27.30 29.30Q36.30 29.30 40.70 33.65Q45.10 38.00 45.10 44.90L45.10 44.90Q45.10 49.00 43.45 52.20Q41.80 55.40 38.80 57.60L38.80 57.60Q42.50 60.90 44.45 64.95Q46.40 69 46.40 73.60L46.40 73.60Q46.40 81.20 41.45 85.90Q36.50 90.60 27.90 90.60ZM83 90.60L83 90.60Q75.20 90.60 69.55 86.50Q63.90 82.40 59.50 75.10L59.50 75.10L64 72.30Q68.50 79.50 73 82.55Q77.50 85.60 82.90 85.60L82.90 85.60Q88.80 85.60 92.50 82.50Q96.20 79.40 96.20 73.50L96.20 73.50Q96.20 69.20 94.35 65.95Q92.50 62.70 89.20 60.30L89.20 60.30Q83.80 62.60 76.20 63.10L76.20 63.10L75.20 58.00Q84.50 57.40 89.70 54.30Q94.90 51.20 94.90 45.00L94.90 45.00Q94.90 40.10 91.65 37.20Q88.40 34.30 82.30 34.30L82.30 34.30Q78.70 34.30 75.35 35.10Q72 35.90 68.40 37.60L68.40 37.60L66.70 32.90Q70.30 31.30 74.35 30.30Q78.40 29.30 82.40 29.30L82.40 29.30Q91.40 29.30 95.80 33.65Q100.20 38.00 100.20 44.90L100.20 44.90Q100.20 49.00 98.55 52.20Q96.90 55.40 93.90 57.60L93.90 57.60Q97.60 60.90 99.55 64.95Q101.50 69 101.50 73.60L101.50 73.60Q101.50 81.20 96.55 85.90Q91.60 90.60 83 90.60Z"/></svg>