<svg xmlns="http://www.w3.org/2000/svg" xmlns:xlink="http://www.w3.org/1999/xlink" width="110.2" height="130.4"><path d="M27.90 90.60L27.90 90.60Q20.10 90.60 14.45 86.50Q8.80 82.40 4.40 75.10L4.40 75.10L8.90 72.30Q13.40 79.50 17.90 82.55Q22.40 85.60 27.80 85.60L27.80 85.60Q33.70 85.60 37.40 82.50Q41.10 79.40 41.10 73.50L41.10 73.50Q41.10 69.20 39.25 65.95Q37.40 62.70 34.10 60.30L34.10 60.30Q28.70 62.60 21.10 63.10L21.10 63.10L20.10 58.00Q29.40 57.40 34.60 54.30Q39.80 51.20 39.80 45.00L39.80 45.00Q39.80 40.10 36.55 37.20Q33.30 34.30 27.20 34.30L27.20 34.30Q23.60 34.30 20.25 35.10Q16.90 35.90 13.30 37.60L13.30 37.60L11.60 32.90Q15.20 31.30 19.25 30.30Q23.30 29.30 27.30 29.30L27.30 29.30Q36.30 29.30 40.70 33.65Q45.10 38.00 45.10 44.90L45.10 44.90Q45.10 49.00 43.45 52.20Q41.80 55.40 38.80 57.60L38.80 57.60Q42.50 60.90 44.45 64.95Q46.40 69 46.40 73.60L46.40 73.60Q46.40 81.20 41.45 85.90Q36.50 90.60 27.90 90.60ZM81.90 90.60L81.90 90.60Q76.80 90.60 73.55 88.55Q70.30 86.50 68.75 83.25Q67.20 80 67.20 76.30L67.20 76.30Q67.20 71.10 69.85 66.15Q72.50 61.20 79.30 54.50L79.30 54.50Q75.20 50.40 69.65 45.15Q64.10 39.90 56.60 33.20L56.60 33.20L60.10 29.30Q67.40 35.90 72.90 41.20Q78.40 46.50 82.70 51.10L82.70 51.10Q87.10 46.70 92.60 41.35Q98.10 36.00 105.20 29.30L105.20 29.30L108.70 33.20Q101.40 40.00 95.85 45.25Q90.30 50.50 86.10 54.60L86.10 54.60Q92 61.10 94.30 65.90Q96.60 70.70 96.60 76.10L96.60 76.10Q96.60 79.90 95.10 83.20Q93.60 86.50 90.35 88.55Q87.10 90.60 81.90 90.60ZM81.90 85.70L81.90 85.70Q86.50 85.70 88.90 83.00Q91.30 80.30 91.30 76L91.30 76Q91.30 71.70 89.45 67.75Q87.60 63.80 82.60 58.20L82.60 58.20Q76.90 64 74.70 68Q72.50 72 72.50 76.40L72.50 76.40Q72.50 80.60 74.90 83.15Q77.30 85.70 81.90 85.70Z"/></svg>