<svg xmlns="http://www.w3.org/2000/svg" xmlns:xlink="http://www.w3.org/1999/xlink" width="110.2" height="130.4"><path d="M27.90 90.60L27.90 90.60Q20.10 90.60 14.45 86.50Q8.80 82.40 4.40 75.10L4.40 75.10L8.90 72.30Q13.40 79.50 17.90 82.55Q22.40 85.60 27.80 85.60L27.80 85.60Q33.70 85.60 37.40 82.50Q41.10 79.40 41.10 73.50L41.10 73.50Q41.10 69.20 39.25 65.95Q37.40 62.70 34.10 60.30L34.10 60.30Q28.70 62.60 21.10 63.10L21.10 63.10L20.10 58.00Q29.40 57.40 34.60 54.30Q39.80 51.20 39.80 45.00L39.80 45.00Q39.80 40.10 36.55 37.20Q33.30 34.30 27.20 34.30L27.20 34.30Q23.60 34.30 20.25 35.10Q16.90 35.90 13.30 37.60L13.30 37.60L11.60 32.90Q15.20 31.30 19.25 30.30Q23.30 29.30 27.30 29.30L27.30 29.30Q36.30 29.30 40.70 33.65Q45.10 38.00 45.10 44.90L45.10 44.90Q45.10 49.00 43.45 52.20Q41.80 55.40 38.80 57.60L38.80 57.60Q42.50 60.90 44.45 64.95Q46.40 69 46.40 73.60L46.40 73.60Q46.40 81.20 41.45 85.90Q36.50 90.60 27.90 90.60ZM88.30 98.50L88.30 98.50Q80.10 98.50 73.95 94.45Q67.80 90.40 63.30 84.20L63.30 84.20L67.80 81.20Q76.80 93.60 88.20 93.60L88.20 93.60Q92.80 93.60 95.45 91.70Q98.10 89.80 98.10 86.20L98.10 86.20Q98.10 82.90 95.90 80.50Q93.70 78.10 87.60 75.40L87.60 75.40Q82.20 73.10 79.20 71.05Q76.20 69 75 66.75Q73.80 64.50 73.80 61.70L73.80 61.70Q73.80 59.70 74.60 58.00L74.60 58.00Q70.80 55.30 68.35 51.75Q65.90 48.20 65.90 43.30L65.90 43.30Q65.90 37.50 70.55 33.40Q75.20 29.30 84.80 29.30L84.80 29.30Q88 29.30 90.85 29.75Q93.70 30.20 96 30.80L96 30.80L95 35.70Q92.90 35.10 90.40 34.70Q87.90 34.30 85 34.30L85 34.30Q78 34.30 74.65 36.95Q71.30 39.60 71.30 43.60L71.30 43.60Q71.30 49.80 77.70 54.20L77.70 54.20Q81.80 51.30 88.70 51.30L88.70 51.30Q94.10 51.30 98.50 52.20L98.50 52.20L97.50 57.10Q93.20 56.20 88.80 56.20L88.80 56.20Q79.30 56.20 79.30 61.90L79.30 61.90Q79.30 64.60 81.50 66.45Q83.70 68.30 89.30 70.70L89.30 70.70Q97.20 74.20 100.40 77.80Q103.60 81.40 103.60 86.30L103.60 86.30Q103.60 91.80 99.65 95.15Q95.70 98.50 88.30 98.50Z"/></svg>