<svg xmlns="http://www.w3.org/2000/svg" xmlns:xlink="http://www.w3.org/1999/xlink" width="110.2" height="130.4"><path d="M27.90 90.60L27.90 90.60Q20.10 90.60 14.45 86.50Q8.80 82.40 4.40 75.10L4.40 75.10L8.90 72.30Q13.40 79.50 17.90 82.55Q22.40 85.60 27.80 85.60L27.80 85.60Q33.70 85.60 37.40 82.50Q41.10 79.40 41.10 73.50L41.10 73.50Q41.10 69.20 39.25 65.95Q37.40 62.70 34.10 60.30L34.10 60.30Q28.70 62.60 21.10 63.10L21.10 63.10L20.10 58.00Q29.40 57.40 34.60 54.30Q39.80 51.20 39.80 45.00L39.80 45.00Q39.80 40.10 36.55 37.20Q33.30 34.30 27.20 34.30L27.20 34.30Q23.60 34.30 20.25 35.10Q16.90 35.90 13.30 37.60L13.30 37.60L11.60 32.90Q15.20 31.30 19.25 30.30Q23.30 29.30 27.30 29.30L27.30 29.30Q36.30 29.30 40.70 33.65Q45.10 38.00 45.10 44.90L45.10 44.90Q45.10 49.00 43.45 52.20Q41.80 55.40 38.80 57.60L38.80 57.60Q42.50 60.90 44.45 64.95Q46.40 69 46.40 73.60L46.40 73.60Q46.40 81.20 41.45 85.90Q36.50 90.60 27.90 90.60ZM83.80 90.50L83.80 90.50Q73.40 90.50 67.15 83.70Q60.90 76.90 58.40 62.20L58.40 62.20L63.80 61.50Q65.70 73.20 70.35 79.40Q75 85.60 83.60 85.60L83.60 85.60Q89.60 85.60 93.05 82.50Q96.50 79.40 97.95 73.60Q99.40 67.80 99.40 59.90L99.40 59.90Q99.40 53.40 97.80 47.55Q96.20 41.70 92.70 38.00Q89.20 34.30 83.50 34.30L83.50 34.30Q78.90 34.30 76.10 36.90Q73.30 39.50 73.30 43.90L73.30 43.90Q73.30 50.90 79.60 54.10Q85.90 57.30 97.30 57.30L97.30 57.30L97.10 62.30Q82.90 62.30 75.35 57.50Q67.80 52.70 67.80 43.70L67.80 43.70Q67.80 37.70 71.90 33.50Q76 29.30 83.60 29.30L83.60 29.30Q90.50 29.30 95.25 33.25Q100 37.20 102.50 44.20Q105 51.20 105 60.50L105 60.50Q105 75.40 99.60 82.95Q94.20 90.50 83.80 90.50Z"/></svg>