<svg xmlns="http://www.w3.org/2000/svg" xmlns:xlink="http://www.w3.org/1999/xlink" width="110.2" height="130.4"><path d="M27.90 90.60L27.90 90.60Q20.10 90.60 14.45 86.50Q8.80 82.40 4.40 75.10L4.40 75.10L8.90 72.30Q13.40 79.50 17.90 82.55Q22.40 85.60 27.80 85.60L27.80 85.60Q33.70 85.60 37.40 82.50Q41.10 79.40 41.10 73.50L41.10 73.50Q41.10 69.20 39.25 65.95Q37.40 62.70 34.10 60.30L34.10 60.30Q28.70 62.60 21.10 63.10L21.10 63.10L20.10 58.00Q29.40 57.40 34.60 54.30Q39.80 51.20 39.80 45.00L39.80 45.00Q39.80 40.10 36.55 37.20Q33.30 34.30 27.20 34.30L27.20 34.30Q23.60 34.30 20.25 35.10Q16.90 35.90 13.30 37.60L13.30 37.60L11.60 32.90Q15.20 31.30 19.25 30.30Q23.30 29.30 27.30 29.30L27.30 29.30Q36.30 29.30 40.70 33.65Q45.10 38.00 45.10 44.90L45.10 44.90Q45.10 49.00 43.45 52.20Q41.80 55.40 38.80 57.60L38.80 57.60Q42.50 60.90 44.45 64.95Q46.40 69 46.40 73.60L46.40 73.60Q46.40 81.20 41.45 85.90Q36.50 90.60 27.90 90.60ZM82.50 90.60L82.50 90.60Q76.90 90.60 72.50 88.55Q68.10 86.50 65.55 82.70Q63 78.90 63 73.60L63 73.60Q63 69.90 64.15 66.70Q65.30 63.50 67.95 60.05Q70.60 56.60 75.20 52.10L75.20 52.10L98.20 29.30L102.20 33.30L80.60 54.20Q76.20 58.50 73.50 61.70Q70.80 64.90 69.60 67.70Q68.40 70.50 68.40 73.70L68.40 73.70Q68.40 79.40 72.35 82.50Q76.30 85.60 82.70 85.60L82.70 85.60Q88.30 85.60 92.80 84.00Q97.30 82.40 101.80 79.60L101.80 79.60L104.30 84.20Q99.80 87.00 94.45 88.80Q89.10 90.60 82.50 90.60Z"/></svg>