<svg xmlns="http://www.w3.org/2000/svg" xmlns:xlink="http://www.w3.org/1999/xlink" width="55.1" height="130.4"><path d="M26.80 90.60L26.80 90.60Q21.70 90.60 18.45 88.55Q15.20 86.50 13.65 83.25Q12.10 80 12.10 76.30L12.10 76.30Q12.10 71.10 14.75 66.15Q17.40 61.20 24.20 54.50L24.20 54.50Q20.10 50.40 14.55 45.15Q9 39.90 1.50 33.20L1.50 33.20L5 29.30Q12.30 35.90 17.80 41.20Q23.30 46.50 27.60 51.10L27.60 51.10Q32 46.70 37.50 41.35Q43 36.00 50.10 29.30L50.10 29.30L53.60 33.20Q46.30 40.00 40.75 45.25Q35.20 50.50 31 54.60L31 54.60Q36.90 61.10 39.20 65.90Q41.50 70.70 41.50 76.10L41.50 76.10Q41.50 79.90 40 83.20Q38.50 86.50 35.25 88.55Q32 90.60 26.80 90.60ZM26.80 85.70L26.80 85.70Q31.40 85.70 33.80 83.00Q36.20 80.30 36.20 76L36.20 76Q36.20 71.70 34.35 67.75Q32.50 63.80 27.50 58.20L27.50 58.20Q21.80 64 19.60 68Q17.40 72 17.40 76.40L17.40 76.40Q17.40 80.60 19.80 83.15Q22.20 85.70 26.80 85.70Z"/></svg>