<svg xmlns="http://www.w3.org/2000/svg" xmlns:xlink="http://www.w3.org/1999/xlink" width="110.2" height="130.4"><path d="M26.80 90.60L26.80 90.60Q21.70 90.60 18.45 88.55Q15.20 86.50 13.65 83.25Q12.10 80 12.10 76.30L12.10 76.30Q12.10 71.10 14.75 66.15Q17.40 61.20 24.20 54.50L24.20 54.50Q20.10 50.40 14.55 45.15Q9 39.90 1.50 33.20L1.50 33.20L5 29.30Q12.30 35.90 17.80 41.20Q23.30 46.50 27.60 51.10L27.60 51.10Q32 46.70 37.50 41.35Q43 36.00 50.10 29.30L50.10 29.30L53.60 33.20Q46.30 40.00 40.75 45.25Q35.20 50.50 31 54.60L31 54.60Q36.90 61.10 39.20 65.90Q41.50 70.70 41.50 76.10L41.50 76.10Q41.50 79.90 40 83.20Q38.50 86.50 35.25 88.55Q32 90.60 26.80 90.60ZM26.80 85.70L26.80 85.70Q31.40 85.70 33.80 83.00Q36.20 80.30 36.20 76L36.20 76Q36.20 71.70 34.35 67.75Q32.50 63.80 27.50 58.20L27.50 58.20Q21.80 64 19.60 68Q17.40 72 17.40 76.40L17.40 76.40Q17.40 80.60 19.80 83.15Q22.20 85.70 26.80 85.70ZM97.70 89.60L97.70 89.60Q92.10 89.60 88.05 87.15Q84 84.70 80.80 80.20Q77.60 75.70 74.70 69.60L74.70 69.60Q73.70 69.60 72.70 69.60L72.70 69.60Q64.10 69.60 64.10 64.60L64.10 64.60Q64.10 62.50 65.50 61.45Q66.90 60.40 69.10 60.40L69.10 60.40Q73.70 60.40 77.50 64.10L77.50 64.10Q84.40 62.90 89 58.85Q93.60 54.80 93.60 48.10L93.60 48.10Q93.60 41.40 89.75 37.85Q85.90 34.30 79.20 34.30L79.20 34.30Q75.90 34.30 72.70 35.00Q69.50 35.70 65.90 37.30L65.90 37.30L64.10 32.60Q67.90 31.10 71.70 30.20Q75.50 29.30 79.30 29.30L79.30 29.30Q88.20 29.30 93.65 34.20Q99.10 39.10 99.10 48.10L99.10 48.10Q99.10 53.60 96.60 57.85Q94.10 62.10 89.80 64.90Q85.50 67.70 80 68.90L80 68.90Q82.90 74.40 85.45 77.85Q88 81.30 90.90 82.90Q93.80 84.50 97.90 84.50L97.90 84.50Q100 84.50 101.95 83.95Q103.90 83.40 105.60 82.50L105.60 82.50L107.50 87.20Q103 89.60 97.70 89.60Z"/></svg>