<svg xmlns="http://www.w3.org/2000/svg" xmlns:xlink="http://www.w3.org/1999/xlink" width="110.2" height="130.4"><path d="M26.80 90.60L26.80 90.60Q21.70 90.60 18.45 88.55Q15.20 86.50 13.65 83.25Q12.10 80 12.10 76.30L12.10 76.30Q12.10 71.10 14.75 66.15Q17.40 61.20 24.20 54.50L24.20 54.50Q20.10 50.40 14.55 45.15Q9 39.90 1.50 33.20L1.50 33.20L5 29.30Q12.30 35.90 17.80 41.20Q23.30 46.50 27.60 51.10L27.60 51.10Q32 46.70 37.50 41.35Q43 36.00 50.10 29.30L50.10 29.30L53.60 33.20Q46.30 40.00 40.75 45.25Q35.20 50.50 31 54.60L31 54.60Q36.90 61.10 39.20 65.90Q41.50 70.70 41.50 76.10L41.50 76.10Q41.50 79.90 40 83.20Q38.50 86.50 35.25 88.55Q32 90.60 26.80 90.60ZM26.80 85.70L26.80 85.70Q31.40 85.70 33.80 83.00Q36.20 80.30 36.20 76L36.20 76Q36.20 71.70 34.35 67.75Q32.50 63.80 27.50 58.20L27.50 58.20Q21.80 64 19.60 68Q17.40 72 17.40 76.40L17.40 76.40Q17.40 80.60 19.80 83.15Q22.20 85.70 26.80 85.70ZM80.50 73L80.50 73Q73 73 69.20 68.50L69.20 68.50Q67.30 66.40 66.40 63.60Q65.50 60.80 65.50 56.70L65.50 56.70L65.50 44.40Q65.50 41.70 65.15 40.20Q64.80 38.70 64 37.60L64 37.60Q63 36.20 60.95 35.75Q58.90 35.30 56.40 35.30L56.40 35.30L56.90 30.40L57.80 30.40Q64.90 30.40 68 34.00L68 34.00Q69.50 35.60 70.15 38.05Q70.80 40.50 70.80 44.20L70.80 44.20L70.80 56.50Q70.80 59.90 71.45 61.90Q72.10 63.90 73.30 65.20L73.30 65.20Q75.70 68.10 81.10 68.10L81.10 68.10Q84.60 68.10 87.65 66.50Q90.70 64.90 93.10 62.30L93.10 62.30L93.10 29.30L98.40 30.10L98.40 75.50Q98.40 78.70 98.90 80.35Q99.40 82.00 100.60 82.90L100.60 82.90Q101.80 84.10 103.75 84.35Q105.70 84.60 108 84.60L108 84.60L107.50 89.60L106.50 89.60Q99.80 89.60 96.60 86.60L96.60 86.60Q94.80 85.00 93.95 82.50Q93.10 80 93.10 75.80L93.10 75.80L93.10 68.40Q90.60 70.50 87.45 71.75Q84.30 73 80.50 73Z"/></svg>