<svg xmlns="http://www.w3.org/2000/svg" xmlns:xlink="http://www.w3.org/1999/xlink" width="110.2" height="130.4"><path d="M26.80 90.60L26.80 90.60Q21.70 90.60 18.45 88.55Q15.20 86.50 13.65 83.25Q12.10 80 12.10 76.30L12.10 76.30Q12.10 71.10 14.75 66.15Q17.40 61.20 24.20 54.50L24.20 54.50Q20.10 50.40 14.55 45.15Q9 39.90 1.50 33.20L1.50 33.20L5 29.30Q12.30 35.90 17.80 41.20Q23.30 46.50 27.60 51.10L27.60 51.10Q32 46.70 37.50 41.35Q43 36.00 50.10 29.30L50.10 29.30L53.60 33.20Q46.30 40.00 40.75 45.25Q35.20 50.50 31 54.60L31 54.60Q36.90 61.10 39.20 65.90Q41.50 70.70 41.50 76.10L41.50 76.10Q41.50 79.90 40 83.20Q38.50 86.50 35.25 88.55Q32 90.60 26.80 90.60ZM26.80 85.70L26.80 85.70Q31.40 85.70 33.80 83.00Q36.20 80.30 36.20 76L36.20 76Q36.20 71.70 34.35 67.75Q32.50 63.80 27.50 58.20L27.50 58.20Q21.80 64 19.60 68Q17.40 72 17.40 76.40L17.40 76.40Q17.40 80.60 19.80 83.15Q22.20 85.70 26.80 85.70ZM88.30 98.50L88.30 98.50Q80.10 98.50 73.95 94.45Q67.80 90.40 63.30 84.20L63.30 84.20L67.80 81.20Q76.80 93.60 88.20 93.60L88.20 93.60Q92.80 93.60 95.45 91.70Q98.10 89.80 98.10 86.20L98.10 86.20Q98.10 82.90 95.90 80.50Q93.70 78.10 87.60 75.40L87.60 75.40Q82.20 73.10 79.20 71.05Q76.20 69 75 66.75Q73.80 64.50 73.80 61.70L73.80 61.70Q73.80 59.70 74.60 58.00L74.60 58.00Q70.80 55.30 68.35 51.75Q65.90 48.20 65.90 43.30L65.90 43.30Q65.90 37.50 70.55 33.40Q75.20 29.30 84.80 29.30L84.80 29.30Q88 29.30 90.85 29.75Q93.70 30.20 96 30.80L96 30.80L95 35.70Q92.90 35.10 90.40 34.70Q87.90 34.30 85 34.30L85 34.30Q78 34.30 74.65 36.95Q71.30 39.60 71.30 43.60L71.30 43.60Q71.30 49.80 77.70 54.20L77.70 54.20Q81.80 51.30 88.70 51.30L88.70 51.30Q94.10 51.30 98.50 52.20L98.50 52.20L97.50 57.10Q93.20 56.20 88.80 56.20L88.80 56.20Q79.30 56.20 79.30 61.90L79.30 61.90Q79.30 64.60 81.50 66.45Q83.70 68.30 89.30 70.70L89.30 70.70Q97.20 74.20 100.40 77.80Q103.60 81.40 103.60 86.30L103.60 86.30Q103.60 91.80 99.65 95.15Q95.70 98.50 88.30 98.50Z"/></svg>