<svg xmlns="http://www.w3.org/2000/svg" xmlns:xlink="http://www.w3.org/1999/xlink" width="110.2" height="130.4"><path d="M25.40 73L25.40 73Q17.90 73 14.10 68.50L14.10 68.50Q12.20 66.40 11.30 63.60Q10.40 60.80 10.40 56.70L10.40 56.70L10.40 44.40Q10.40 41.70 10.05 40.20Q9.70 38.70 8.90 37.60L8.90 37.60Q7.90 36.20 5.85 35.75Q3.80 35.30 1.30 35.30L1.30 35.30L1.80 30.40L2.70 30.40Q9.80 30.40 12.90 34.00L12.90 34.00Q14.40 35.60 15.05 38.05Q15.70 40.50 15.70 44.20L15.70 44.20L15.70 56.50Q15.70 59.90 16.35 61.90Q17 63.90 18.20 65.20L18.20 65.20Q20.60 68.10 26 68.10L26 68.10Q29.50 68.10 32.55 66.50Q35.60 64.90 38 62.30L38 62.30L38 29.30L43.30 30.10L43.30 75.50Q43.30 78.70 43.80 80.35Q44.30 82.00 45.50 82.90L45.50 82.90Q46.70 84.10 48.65 84.35Q50.60 84.60 52.90 84.60L52.90 84.60L52.40 89.60L51.40 89.60Q44.70 89.60 41.50 86.60L41.50 86.60Q39.70 85.00 38.85 82.50Q38 80 38 75.80L38 75.80L38 68.40Q35.50 70.50 32.35 71.75Q29.20 73 25.40 73ZM97.70 89.60L97.70 89.60Q92.10 89.60 88.05 87.15Q84 84.70 80.80 80.20Q77.60 75.70 74.70 69.60L74.70 69.60Q73.70 69.60 72.70 69.60L72.70 69.60Q64.10 69.60 64.10 64.60L64.10 64.60Q64.10 62.50 65.50 61.45Q66.90 60.40 69.10 60.40L69.10 60.40Q73.70 60.40 77.50 64.10L77.50 64.10Q84.40 62.90 89 58.85Q93.60 54.80 93.60 48.10L93.60 48.10Q93.60 41.40 89.75 37.85Q85.90 34.30 79.20 34.30L79.20 34.30Q75.90 34.30 72.70 35.00Q69.50 35.70 65.90 37.30L65.90 37.30L64.10 32.60Q67.90 31.10 71.70 30.20Q75.50 29.30 79.30 29.30L79.30 29.30Q88.20 29.30 93.65 34.20Q99.10 39.10 99.10 48.10L99.10 48.10Q99.10 53.60 96.60 57.85Q94.10 62.10 89.80 64.90Q85.50 67.70 80 68.90L80 68.90Q82.90 74.40 85.45 77.85Q88 81.30 90.90 82.90Q93.80 84.50 97.90 84.50L97.90 84.50Q100 84.50 101.95 83.95Q103.90 83.40 105.60 82.50L105.60 82.50L107.50 87.20Q103 89.60 97.70 89.60Z"/></svg>