<svg xmlns="http://www.w3.org/2000/svg" xmlns:xlink="http://www.w3.org/1999/xlink" width="110.2" height="130.4"><path d="M25.40 73L25.40 73Q17.90 73 14.10 68.50L14.10 68.50Q12.20 66.40 11.30 63.60Q10.40 60.80 10.40 56.70L10.40 56.70L10.40 44.40Q10.40 41.70 10.05 40.20Q9.70 38.70 8.90 37.60L8.90 37.60Q7.90 36.20 5.85 35.75Q3.80 35.30 1.30 35.30L1.30 35.30L1.80 30.40L2.70 30.40Q9.80 30.40 12.90 34.00L12.90 34.00Q14.40 35.60 15.05 38.05Q15.70 40.50 15.70 44.20L15.70 44.20L15.70 56.50Q15.70 59.90 16.35 61.90Q17 63.90 18.20 65.20L18.20 65.20Q20.60 68.10 26 68.10L26 68.10Q29.50 68.10 32.55 66.50Q35.60 64.90 38 62.30L38 62.30L38 29.30L43.30 30.10L43.30 75.50Q43.30 78.70 43.80 80.35Q44.30 82.00 45.50 82.90L45.50 82.90Q46.70 84.10 48.65 84.35Q50.60 84.60 52.90 84.60L52.90 84.60L52.40 89.60L51.40 89.60Q44.70 89.60 41.50 86.60L41.50 86.60Q39.70 85.00 38.85 82.50Q38 80 38 75.80L38 75.80L38 68.40Q35.50 70.50 32.35 71.75Q29.20 73 25.40 73ZM81.90 90.60L81.90 90.60Q76.80 90.60 73.55 88.55Q70.30 86.50 68.75 83.25Q67.20 80 67.20 76.30L67.20 76.30Q67.20 71.10 69.85 66.15Q72.50 61.20 79.30 54.50L79.30 54.50Q75.20 50.40 69.65 45.15Q64.10 39.90 56.60 33.20L56.60 33.20L60.10 29.30Q67.40 35.90 72.90 41.20Q78.40 46.50 82.70 51.10L82.70 51.10Q87.10 46.70 92.60 41.35Q98.10 36.00 105.20 29.30L105.20 29.30L108.70 33.20Q101.40 40.00 95.85 45.25Q90.30 50.50 86.10 54.60L86.10 54.60Q92 61.10 94.30 65.90Q96.60 70.70 96.60 76.10L96.60 76.10Q96.60 79.90 95.10 83.20Q93.60 86.50 90.35 88.55Q87.10 90.60 81.90 90.60ZM81.90 85.70L81.90 85.70Q86.50 85.70 88.90 83.00Q91.30 80.30 91.30 76L91.30 76Q91.30 71.70 89.45 67.75Q87.60 63.80 82.60 58.20L82.60 58.20Q76.90 64 74.70 68Q72.50 72 72.50 76.40L72.50 76.40Q72.50 80.60 74.90 83.15Q77.30 85.70 81.90 85.70Z"/></svg>