<svg xmlns="http://www.w3.org/2000/svg" xmlns:xlink="http://www.w3.org/1999/xlink" width="110.2" height="130.4"><path d="M25.40 73L25.40 73Q17.90 73 14.10 68.50L14.10 68.50Q12.20 66.40 11.30 63.60Q10.40 60.80 10.40 56.70L10.40 56.70L10.40 44.40Q10.40 41.70 10.05 40.20Q9.70 38.70 8.90 37.60L8.90 37.60Q7.90 36.20 5.85 35.75Q3.80 35.30 1.30 35.30L1.30 35.30L1.80 30.40L2.70 30.40Q9.80 30.40 12.90 34.00L12.90 34.00Q14.40 35.60 15.05 38.05Q15.70 40.50 15.70 44.20L15.70 44.20L15.70 56.50Q15.70 59.90 16.35 61.90Q17 63.90 18.20 65.20L18.20 65.20Q20.60 68.10 26 68.10L26 68.10Q29.50 68.10 32.55 66.50Q35.60 64.90 38 62.30L38 62.30L38 29.30L43.30 30.10L43.30 75.50Q43.30 78.70 43.80 80.35Q44.30 82.00 45.50 82.90L45.50 82.90Q46.70 84.10 48.65 84.35Q50.60 84.60 52.90 84.60L52.90 84.60L52.40 89.60L51.40 89.60Q44.70 89.60 41.50 86.60L41.50 86.60Q39.70 85.00 38.85 82.50Q38 80 38 75.80L38 75.80L38 68.40Q35.50 70.50 32.35 71.75Q29.20 73 25.40 73ZM80.50 73L80.50 73Q73 73 69.20 68.50L69.20 68.50Q67.30 66.40 66.40 63.60Q65.50 60.80 65.50 56.70L65.50 56.70L65.50 44.40Q65.50 41.70 65.15 40.20Q64.80 38.70 64 37.60L64 37.60Q63 36.20 60.95 35.75Q58.90 35.30 56.40 35.30L56.40 35.30L56.90 30.40L57.80 30.40Q64.90 30.40 68 34.00L68 34.00Q69.50 35.60 70.15 38.05Q70.80 40.50 70.80 44.20L70.80 44.20L70.80 56.50Q70.80 59.90 71.45 61.90Q72.10 63.90 73.30 65.20L73.30 65.20Q75.70 68.10 81.10 68.10L81.10 68.10Q84.60 68.10 87.65 66.50Q90.70 64.90 93.10 62.30L93.10 62.30L93.10 29.30L98.40 30.10L98.40 75.50Q98.40 78.70 98.90 80.35Q99.40 82.00 100.60 82.90L100.60 82.90Q101.80 84.10 103.75 84.35Q105.70 84.60 108 84.60L108 84.60L107.50 89.60L106.50 89.60Q99.80 89.60 96.60 86.60L96.60 86.60Q94.80 85.00 93.95 82.50Q93.10 80 93.10 75.80L93.10 75.80L93.10 68.40Q90.60 70.50 87.45 71.75Q84.30 73 80.50 73Z"/></svg>