<svg xmlns="http://www.w3.org/2000/svg" xmlns:xlink="http://www.w3.org/1999/xlink" width="110.2" height="130.4"><path d="M25.40 73L25.40 73Q17.90 73 14.10 68.50L14.10 68.50Q12.20 66.40 11.30 63.60Q10.40 60.80 10.40 56.70L10.40 56.70L10.40 44.40Q10.40 41.70 10.05 40.20Q9.70 38.70 8.90 37.60L8.90 37.60Q7.90 36.20 5.85 35.75Q3.80 35.30 1.30 35.30L1.30 35.30L1.80 30.40L2.70 30.40Q9.80 30.40 12.90 34.00L12.90 34.00Q14.40 35.60 15.05 38.05Q15.70 40.50 15.70 44.20L15.70 44.20L15.70 56.50Q15.70 59.90 16.35 61.90Q17 63.90 18.20 65.20L18.20 65.20Q20.60 68.10 26 68.10L26 68.10Q29.50 68.10 32.55 66.50Q35.60 64.90 38 62.30L38 62.30L38 29.30L43.30 30.10L43.30 75.50Q43.30 78.70 43.80 80.35Q44.30 82.00 45.50 82.90L45.50 82.90Q46.70 84.10 48.65 84.35Q50.60 84.60 52.90 84.60L52.90 84.60L52.40 89.60L51.40 89.60Q44.70 89.60 41.50 86.60L41.50 86.60Q39.70 85.00 38.85 82.50Q38 80 38 75.80L38 75.80L38 68.40Q35.50 70.50 32.35 71.75Q29.20 73 25.40 73ZM88.30 98.50L88.30 98.50Q80.10 98.50 73.95 94.45Q67.80 90.40 63.30 84.20L63.30 84.20L67.80 81.20Q76.80 93.60 88.20 93.60L88.20 93.60Q92.80 93.60 95.45 91.70Q98.10 89.80 98.10 86.20L98.10 86.20Q98.10 82.90 95.90 80.50Q93.70 78.10 87.60 75.40L87.60 75.40Q82.20 73.10 79.20 71.05Q76.20 69 75 66.75Q73.80 64.50 73.80 61.70L73.80 61.70Q73.80 59.70 74.60 58.00L74.60 58.00Q70.80 55.30 68.35 51.75Q65.90 48.20 65.90 43.30L65.90 43.30Q65.90 37.50 70.55 33.40Q75.20 29.30 84.80 29.30L84.80 29.30Q88 29.30 90.85 29.75Q93.70 30.20 96 30.80L96 30.80L95 35.70Q92.90 35.10 90.40 34.70Q87.90 34.30 85 34.30L85 34.30Q78 34.30 74.65 36.95Q71.30 39.60 71.30 43.60L71.30 43.60Q71.30 49.80 77.70 54.20L77.70 54.20Q81.80 51.30 88.70 51.30L88.70 51.30Q94.10 51.30 98.50 52.20L98.50 52.20L97.50 57.10Q93.20 56.20 88.80 56.20L88.80 56.20Q79.30 56.20 79.30 61.90L79.30 61.90Q79.30 64.60 81.50 66.45Q83.70 68.30 89.30 70.70L89.30 70.70Q97.20 74.20 100.40 77.80Q103.60 81.40 103.60 86.30L103.60 86.30Q103.60 91.80 99.65 95.15Q95.70 98.50 88.30 98.50Z"/></svg>