<svg xmlns="http://www.w3.org/2000/svg" xmlns:xlink="http://www.w3.org/1999/xlink" width="110.2" height="130.4"><path d="M25.40 73L25.40 73Q17.90 73 14.10 68.50L14.10 68.50Q12.20 66.40 11.30 63.60Q10.40 60.80 10.40 56.70L10.40 56.70L10.40 44.40Q10.40 41.70 10.05 40.20Q9.70 38.70 8.90 37.60L8.90 37.60Q7.90 36.20 5.85 35.75Q3.80 35.30 1.30 35.30L1.30 35.30L1.80 30.40L2.70 30.40Q9.80 30.40 12.90 34.00L12.90 34.00Q14.40 35.60 15.05 38.05Q15.70 40.50 15.70 44.20L15.70 44.20L15.70 56.50Q15.70 59.90 16.35 61.90Q17 63.90 18.20 65.20L18.20 65.20Q20.60 68.10 26 68.10L26 68.10Q29.50 68.10 32.55 66.50Q35.60 64.90 38 62.30L38 62.30L38 29.30L43.30 30.10L43.30 75.50Q43.30 78.70 43.80 80.35Q44.30 82.00 45.50 82.90L45.50 82.90Q46.70 84.10 48.65 84.35Q50.60 84.60 52.90 84.60L52.90 84.60L52.40 89.60L51.40 89.60Q44.70 89.60 41.50 86.60L41.50 86.60Q39.70 85.00 38.85 82.50Q38 80 38 75.80L38 75.80L38 68.40Q35.50 70.50 32.35 71.75Q29.20 73 25.40 73ZM82.50 90.60L82.50 90.60Q76.90 90.60 72.50 88.55Q68.10 86.50 65.55 82.70Q63 78.90 63 73.60L63 73.60Q63 69.90 64.15 66.70Q65.30 63.50 67.95 60.05Q70.60 56.60 75.20 52.10L75.20 52.10L98.20 29.30L102.20 33.30L80.60 54.20Q76.20 58.50 73.50 61.70Q70.80 64.90 69.60 67.70Q68.40 70.50 68.40 73.70L68.40 73.70Q68.40 79.40 72.35 82.50Q76.30 85.60 82.70 85.60L82.70 85.60Q88.30 85.60 92.80 84.00Q97.30 82.40 101.80 79.60L101.80 79.60L104.30 84.20Q99.80 87.00 94.45 88.80Q89.10 90.60 82.50 90.60Z"/></svg>