<svg xmlns="http://www.w3.org/2000/svg" xmlns:xlink="http://www.w3.org/1999/xlink" width="110.2" height="130.4"><path d="M25.40 73L25.40 73Q17.90 73 14.10 68.50L14.10 68.50Q12.20 66.40 11.30 63.60Q10.40 60.80 10.40 56.70L10.40 56.70L10.40 44.40Q10.40 41.70 10.05 40.20Q9.70 38.70 8.90 37.60L8.90 37.60Q7.90 36.20 5.85 35.75Q3.80 35.30 1.30 35.30L1.30 35.30L1.80 30.40L2.70 30.40Q9.80 30.40 12.90 34.00L12.90 34.00Q14.40 35.60 15.05 38.05Q15.70 40.50 15.70 44.20L15.70 44.20L15.70 56.50Q15.70 59.90 16.35 61.90Q17 63.90 18.20 65.20L18.20 65.20Q20.60 68.10 26 68.10L26 68.10Q29.50 68.10 32.55 66.50Q35.60 64.90 38 62.30L38 62.30L38 29.30L43.30 30.10L43.30 75.50Q43.30 78.70 43.80 80.35Q44.30 82.00 45.50 82.90L45.50 82.90Q46.70 84.10 48.65 84.35Q50.60 84.60 52.90 84.60L52.90 84.60L52.40 89.60L51.40 89.60Q44.70 89.60 41.50 86.60L41.50 86.60Q39.70 85.00 38.85 82.50Q38 80 38 75.80L38 75.80L38 68.40Q35.50 70.50 32.35 71.75Q29.20 73 25.40 73ZM89.90 90.60L89.90 90.60Q81 90.60 74.50 87.00Q68 83.40 64.40 77.05Q60.80 70.70 60.80 62.30L60.80 62.30Q60.80 50.30 68.70 42.00Q76.60 33.70 90.20 29.40L90.20 29.40L91.90 34.30Q79 38.50 72.70 45.45Q66.40 52.40 66.40 62.80L66.40 62.80Q66.40 70 69.40 75.10Q72.40 80.20 77.70 82.85Q83 85.50 89.80 85.50L89.80 85.50Q94 85.50 97.45 84.80Q100.90 84.10 104.50 82.70L104.50 82.70L106.50 87.50Q102.80 89.00 98.75 89.80Q94.70 90.60 89.90 90.60ZM104 59.30L79.10 65.60L77.70 60.40L102.70 54.20L104 59.30Z"/></svg>