<svg xmlns="http://www.w3.org/2000/svg" xmlns:xlink="http://www.w3.org/1999/xlink" width="110.2" height="130.4"><path d="M33.20 98.50L33.20 98.50Q25 98.50 18.85 94.45Q12.70 90.40 8.20 84.20L8.20 84.20L12.70 81.20Q21.70 93.60 33.10 93.60L33.10 93.60Q37.70 93.60 40.35 91.70Q43 89.80 43 86.20L43 86.20Q43 82.90 40.80 80.50Q38.60 78.10 32.50 75.40L32.50 75.40Q27.10 73.10 24.10 71.05Q21.10 69 19.90 66.75Q18.70 64.50 18.70 61.70L18.70 61.70Q18.70 59.70 19.50 58.00L19.50 58.00Q15.70 55.30 13.25 51.75Q10.80 48.20 10.80 43.30L10.80 43.30Q10.80 37.50 15.45 33.40Q20.10 29.30 29.70 29.30L29.70 29.30Q32.90 29.30 35.75 29.75Q38.60 30.20 40.90 30.80L40.90 30.80L39.90 35.70Q37.80 35.10 35.30 34.70Q32.80 34.30 29.90 34.30L29.90 34.30Q22.90 34.30 19.55 36.95Q16.20 39.60 16.20 43.60L16.20 43.60Q16.20 49.80 22.60 54.20L22.60 54.20Q26.70 51.30 33.60 51.30L33.60 51.30Q39 51.30 43.40 52.20L43.40 52.20L42.40 57.10Q38.10 56.20 33.70 56.20L33.70 56.20Q24.20 56.20 24.20 61.90L24.20 61.90Q24.20 64.60 26.40 66.45Q28.60 68.30 34.20 70.70L34.20 70.70Q42.10 74.20 45.30 77.80Q48.50 81.40 48.50 86.30L48.50 86.30Q48.50 91.80 44.55 95.15Q40.60 98.50 33.20 98.50ZM104.20 89.60L103.20 89.60Q96.50 89.60 93.30 86.60L93.30 86.60Q91.60 85.00 90.70 82.50Q89.80 80 89.80 75.80L89.80 75.80L89.80 59.00Q87.70 60.10 85.50 60.65Q83.30 61.20 80.60 61.20L80.60 61.20Q76 61.20 72.40 59.20Q68.80 57.20 66.75 53.60Q64.70 50.00 64.70 45.30L64.70 45.30Q64.70 40.80 66.60 37.20Q68.50 33.60 71.95 31.45Q75.40 29.30 80.10 29.30L80.10 29.30Q83.70 29.30 86.40 30.45Q89.10 31.60 90.90 33.70L90.90 33.70Q95.10 38.10 95.10 46.90L95.10 46.90L95.10 75.50Q95.10 78.70 95.65 80.35Q96.20 82.00 97.30 82.90L97.30 82.90Q98.50 84.10 100.50 84.35Q102.50 84.60 104.70 84.60L104.70 84.60L104.20 89.60ZM70.10 45.50L70.10 45.50Q70.10 50.50 73.05 53.40Q76 56.30 80.70 56.30L80.70 56.30Q85.80 56.30 89.80 53.20L89.80 53.20L89.80 47.70Q89.80 40.40 87.20 37.20L87.20 37.20Q84.70 34.30 80.20 34.30L80.20 34.30Q75.60 34.30 72.85 37.35Q70.10 40.40 70.10 45.50Z"/></svg>