<svg xmlns="http://www.w3.org/2000/svg" xmlns:xlink="http://www.w3.org/1999/xlink" width="110.2" height="130.4"><path d="M33.20 98.50L33.20 98.50Q25 98.50 18.85 94.45Q12.70 90.40 8.20 84.20L8.20 84.20L12.70 81.20Q21.70 93.60 33.10 93.60L33.10 93.60Q37.70 93.60 40.35 91.70Q43 89.80 43 86.20L43 86.20Q43 82.90 40.80 80.50Q38.60 78.10 32.50 75.40L32.50 75.40Q27.10 73.10 24.10 71.05Q21.10 69 19.90 66.75Q18.70 64.50 18.70 61.70L18.70 61.70Q18.70 59.70 19.50 58.00L19.50 58.00Q15.70 55.30 13.25 51.75Q10.80 48.20 10.80 43.30L10.80 43.30Q10.80 37.50 15.45 33.40Q20.10 29.30 29.70 29.30L29.70 29.30Q32.90 29.30 35.75 29.75Q38.60 30.20 40.90 30.80L40.90 30.80L39.90 35.70Q37.80 35.10 35.30 34.70Q32.80 34.30 29.90 34.30L29.90 34.30Q22.90 34.30 19.55 36.95Q16.20 39.60 16.20 43.60L16.20 43.60Q16.20 49.80 22.60 54.20L22.60 54.20Q26.70 51.30 33.60 51.30L33.60 51.30Q39 51.30 43.40 52.20L43.40 52.20L42.40 57.10Q38.10 56.20 33.70 56.20L33.70 56.20Q24.20 56.20 24.20 61.90L24.20 61.90Q24.20 64.60 26.40 66.45Q28.60 68.30 34.20 70.70L34.20 70.70Q42.10 74.20 45.30 77.80Q48.50 81.40 48.50 86.30L48.50 86.30Q48.50 91.80 44.55 95.15Q40.60 98.50 33.20 98.50ZM97.70 89.60L97.70 89.60Q92.10 89.60 88.05 87.15Q84 84.70 80.80 80.20Q77.60 75.70 74.70 69.60L74.70 69.60Q73.70 69.60 72.70 69.60L72.70 69.60Q64.10 69.60 64.10 64.60L64.10 64.60Q64.10 62.50 65.50 61.45Q66.90 60.40 69.10 60.40L69.10 60.40Q73.70 60.40 77.50 64.10L77.50 64.10Q84.40 62.90 89 58.85Q93.60 54.80 93.60 48.10L93.60 48.10Q93.60 41.40 89.75 37.85Q85.90 34.30 79.20 34.30L79.20 34.30Q75.90 34.30 72.70 35.00Q69.50 35.70 65.90 37.30L65.90 37.30L64.10 32.60Q67.90 31.10 71.70 30.20Q75.50 29.30 79.30 29.30L79.30 29.30Q88.20 29.30 93.65 34.20Q99.10 39.10 99.10 48.10L99.10 48.10Q99.10 53.60 96.60 57.85Q94.10 62.10 89.80 64.90Q85.50 67.70 80 68.90L80 68.90Q82.90 74.40 85.45 77.85Q88 81.30 90.90 82.90Q93.80 84.50 97.90 84.50L97.90 84.50Q100 84.50 101.95 83.95Q103.90 83.40 105.60 82.50L105.60 82.50L107.50 87.20Q103 89.60 97.70 89.60Z"/></svg>