<svg xmlns="http://www.w3.org/2000/svg" xmlns:xlink="http://www.w3.org/1999/xlink" width="110.2" height="130.4"><path d="M33.20 98.50L33.20 98.50Q25 98.50 18.85 94.45Q12.70 90.40 8.20 84.20L8.20 84.20L12.70 81.20Q21.70 93.60 33.10 93.60L33.10 93.60Q37.70 93.60 40.35 91.70Q43 89.80 43 86.20L43 86.20Q43 82.90 40.80 80.50Q38.60 78.10 32.50 75.40L32.50 75.40Q27.10 73.10 24.10 71.05Q21.10 69 19.90 66.75Q18.70 64.50 18.70 61.70L18.70 61.70Q18.70 59.70 19.50 58.00L19.50 58.00Q15.70 55.30 13.25 51.75Q10.80 48.20 10.80 43.30L10.80 43.30Q10.80 37.50 15.45 33.40Q20.10 29.30 29.70 29.30L29.70 29.30Q32.90 29.30 35.75 29.75Q38.60 30.20 40.90 30.80L40.90 30.80L39.90 35.70Q37.80 35.10 35.30 34.70Q32.80 34.30 29.90 34.30L29.90 34.30Q22.90 34.30 19.55 36.95Q16.20 39.60 16.20 43.60L16.20 43.60Q16.20 49.80 22.60 54.20L22.60 54.20Q26.70 51.30 33.60 51.30L33.60 51.30Q39 51.30 43.40 52.20L43.40 52.20L42.40 57.10Q38.10 56.20 33.70 56.20L33.70 56.20Q24.20 56.20 24.20 61.90L24.20 61.90Q24.20 64.60 26.40 66.45Q28.60 68.30 34.20 70.70L34.20 70.70Q42.10 74.20 45.30 77.80Q48.50 81.40 48.50 86.30L48.50 86.30Q48.50 91.80 44.55 95.15Q40.60 98.50 33.20 98.50ZM83 90.60L83 90.60Q75.20 90.60 69.55 86.50Q63.90 82.40 59.50 75.10L59.50 75.10L64 72.30Q68.50 79.50 73 82.55Q77.50 85.60 82.90 85.60L82.90 85.60Q88.80 85.60 92.50 82.50Q96.20 79.40 96.20 73.50L96.20 73.50Q96.20 69.20 94.35 65.95Q92.50 62.70 89.20 60.30L89.20 60.30Q83.80 62.60 76.20 63.10L76.20 63.10L75.20 58.00Q84.50 57.40 89.70 54.30Q94.90 51.20 94.90 45.00L94.90 45.00Q94.90 40.10 91.65 37.20Q88.40 34.30 82.30 34.30L82.30 34.30Q78.70 34.30 75.35 35.10Q72 35.90 68.40 37.60L68.40 37.60L66.70 32.90Q70.30 31.30 74.35 30.30Q78.40 29.30 82.40 29.30L82.40 29.30Q91.40 29.30 95.80 33.65Q100.20 38.00 100.20 44.90L100.20 44.90Q100.20 49.00 98.55 52.20Q96.90 55.40 93.90 57.60L93.90 57.60Q97.60 60.90 99.55 64.95Q101.50 69 101.50 73.60L101.50 73.60Q101.50 81.20 96.55 85.90Q91.60 90.60 83 90.60Z"/></svg>