<svg xmlns="http://www.w3.org/2000/svg" xmlns:xlink="http://www.w3.org/1999/xlink" width="110.2" height="130.4"><path d="M33.20 98.50L33.20 98.50Q25 98.50 18.85 94.45Q12.70 90.40 8.20 84.20L8.20 84.20L12.70 81.20Q21.70 93.60 33.10 93.60L33.10 93.60Q37.70 93.60 40.35 91.70Q43 89.80 43 86.20L43 86.20Q43 82.90 40.80 80.50Q38.60 78.10 32.50 75.40L32.50 75.40Q27.10 73.10 24.10 71.05Q21.10 69 19.90 66.75Q18.70 64.50 18.70 61.70L18.70 61.70Q18.70 59.70 19.50 58.00L19.50 58.00Q15.70 55.30 13.25 51.75Q10.80 48.20 10.80 43.30L10.80 43.30Q10.80 37.50 15.45 33.40Q20.10 29.30 29.70 29.30L29.70 29.30Q32.90 29.30 35.75 29.75Q38.60 30.20 40.90 30.80L40.90 30.80L39.90 35.70Q37.80 35.10 35.30 34.70Q32.80 34.30 29.90 34.30L29.90 34.30Q22.90 34.30 19.55 36.95Q16.20 39.60 16.20 43.60L16.20 43.60Q16.20 49.80 22.60 54.20L22.60 54.20Q26.70 51.30 33.60 51.30L33.60 51.30Q39 51.30 43.40 52.20L43.40 52.20L42.40 57.10Q38.10 56.20 33.70 56.20L33.70 56.20Q24.20 56.20 24.20 61.90L24.20 61.90Q24.20 64.60 26.40 66.45Q28.60 68.30 34.20 70.70L34.20 70.70Q42.10 74.20 45.30 77.80Q48.50 81.40 48.50 86.30L48.50 86.30Q48.50 91.80 44.55 95.15Q40.60 98.50 33.20 98.50ZM81.90 90.60L81.90 90.60Q76.80 90.60 73.55 88.55Q70.30 86.50 68.75 83.25Q67.20 80 67.20 76.30L67.20 76.30Q67.20 71.10 69.85 66.15Q72.50 61.20 79.30 54.50L79.30 54.50Q75.20 50.40 69.65 45.15Q64.10 39.90 56.60 33.20L56.60 33.20L60.10 29.30Q67.40 35.90 72.90 41.20Q78.40 46.50 82.70 51.10L82.70 51.10Q87.10 46.70 92.60 41.35Q98.10 36.00 105.20 29.30L105.20 29.30L108.70 33.20Q101.40 40.00 95.85 45.25Q90.30 50.50 86.10 54.60L86.10 54.60Q92 61.10 94.30 65.90Q96.60 70.70 96.60 76.10L96.60 76.10Q96.60 79.90 95.10 83.20Q93.60 86.50 90.35 88.55Q87.10 90.60 81.90 90.60ZM81.90 85.70L81.90 85.70Q86.50 85.70 88.90 83.00Q91.30 80.30 91.30 76L91.30 76Q91.30 71.70 89.45 67.75Q87.60 63.80 82.60 58.20L82.60 58.20Q76.90 64 74.70 68Q72.50 72 72.50 76.40L72.50 76.40Q72.50 80.60 74.90 83.15Q77.30 85.70 81.90 85.70Z"/></svg>