<svg xmlns="http://www.w3.org/2000/svg" xmlns:xlink="http://www.w3.org/1999/xlink" width="110.2" height="130.4"><path d="M33.20 98.50L33.20 98.50Q25 98.50 18.85 94.45Q12.70 90.40 8.20 84.20L8.20 84.20L12.70 81.20Q21.70 93.60 33.10 93.60L33.10 93.60Q37.70 93.60 40.35 91.70Q43 89.80 43 86.20L43 86.20Q43 82.90 40.80 80.50Q38.60 78.10 32.50 75.40L32.50 75.40Q27.10 73.10 24.10 71.05Q21.10 69 19.90 66.75Q18.70 64.50 18.70 61.70L18.70 61.70Q18.70 59.70 19.50 58.00L19.50 58.00Q15.70 55.30 13.25 51.75Q10.80 48.20 10.80 43.30L10.80 43.30Q10.80 37.50 15.45 33.40Q20.10 29.30 29.70 29.30L29.70 29.30Q32.90 29.30 35.75 29.75Q38.60 30.20 40.90 30.80L40.90 30.80L39.90 35.70Q37.80 35.10 35.30 34.70Q32.80 34.30 29.90 34.30L29.90 34.30Q22.90 34.30 19.55 36.95Q16.20 39.60 16.20 43.60L16.20 43.60Q16.20 49.80 22.60 54.20L22.60 54.20Q26.70 51.30 33.60 51.30L33.60 51.30Q39 51.30 43.40 52.20L43.40 52.20L42.40 57.10Q38.10 56.20 33.70 56.20L33.70 56.20Q24.20 56.20 24.20 61.90L24.20 61.90Q24.20 64.60 26.40 66.45Q28.60 68.30 34.20 70.70L34.20 70.70Q42.10 74.20 45.30 77.80Q48.50 81.40 48.50 86.30L48.50 86.30Q48.50 91.80 44.55 95.15Q40.60 98.50 33.20 98.50ZM80.50 73L80.50 73Q73 73 69.20 68.50L69.20 68.50Q67.30 66.40 66.40 63.60Q65.50 60.80 65.50 56.70L65.50 56.70L65.50 44.40Q65.50 41.70 65.15 40.20Q64.80 38.70 64 37.60L64 37.60Q63 36.20 60.95 35.75Q58.90 35.30 56.40 35.30L56.40 35.30L56.90 30.40L57.80 30.40Q64.90 30.40 68 34.00L68 34.00Q69.50 35.60 70.15 38.05Q70.80 40.50 70.80 44.20L70.80 44.20L70.80 56.50Q70.80 59.90 71.45 61.90Q72.10 63.90 73.30 65.20L73.30 65.20Q75.70 68.10 81.10 68.10L81.10 68.10Q84.60 68.10 87.65 66.50Q90.70 64.90 93.10 62.30L93.10 62.30L93.10 29.30L98.40 30.10L98.40 75.50Q98.40 78.70 98.90 80.35Q99.40 82.00 100.60 82.90L100.60 82.90Q101.80 84.10 103.75 84.35Q105.70 84.60 108 84.60L108 84.60L107.50 89.60L106.50 89.60Q99.80 89.60 96.60 86.60L96.60 86.60Q94.80 85.00 93.95 82.50Q93.10 80 93.10 75.80L93.10 75.80L93.10 68.40Q90.60 70.50 87.45 71.75Q84.30 73 80.50 73Z"/></svg>