<svg xmlns="http://www.w3.org/2000/svg" xmlns:xlink="http://www.w3.org/1999/xlink" width="110.2" height="130.4"><path d="M33.20 98.50L33.20 98.50Q25 98.50 18.85 94.45Q12.70 90.40 8.20 84.20L8.20 84.20L12.70 81.20Q21.70 93.60 33.10 93.60L33.10 93.60Q37.70 93.60 40.35 91.70Q43 89.80 43 86.20L43 86.20Q43 82.90 40.80 80.50Q38.60 78.10 32.50 75.40L32.50 75.40Q27.10 73.10 24.10 71.05Q21.10 69 19.90 66.75Q18.70 64.50 18.70 61.70L18.70 61.70Q18.70 59.70 19.50 58.00L19.50 58.00Q15.70 55.30 13.25 51.75Q10.80 48.20 10.80 43.30L10.80 43.30Q10.80 37.50 15.45 33.40Q20.10 29.30 29.70 29.30L29.70 29.30Q32.90 29.30 35.75 29.75Q38.60 30.20 40.90 30.80L40.90 30.80L39.90 35.70Q37.80 35.10 35.30 34.70Q32.80 34.30 29.90 34.30L29.90 34.30Q22.90 34.30 19.55 36.95Q16.20 39.60 16.20 43.60L16.20 43.60Q16.20 49.80 22.60 54.20L22.60 54.20Q26.70 51.30 33.60 51.30L33.60 51.30Q39 51.30 43.40 52.20L43.40 52.20L42.40 57.10Q38.10 56.20 33.70 56.20L33.70 56.20Q24.20 56.20 24.20 61.90L24.20 61.90Q24.20 64.60 26.40 66.45Q28.60 68.30 34.20 70.70L34.20 70.70Q42.10 74.20 45.30 77.80Q48.50 81.40 48.50 86.30L48.50 86.30Q48.50 91.80 44.55 95.15Q40.60 98.50 33.20 98.50ZM83.80 90.50L83.80 90.50Q73.40 90.50 67.15 83.70Q60.90 76.90 58.40 62.20L58.40 62.20L63.80 61.50Q65.70 73.20 70.35 79.40Q75 85.60 83.60 85.60L83.60 85.60Q89.60 85.60 93.05 82.50Q96.50 79.40 97.95 73.60Q99.40 67.80 99.40 59.90L99.40 59.90Q99.40 53.40 97.80 47.55Q96.20 41.70 92.70 38.00Q89.20 34.30 83.50 34.30L83.50 34.30Q78.90 34.30 76.10 36.90Q73.30 39.50 73.30 43.90L73.30 43.90Q73.30 50.90 79.60 54.10Q85.90 57.30 97.30 57.30L97.30 57.30L97.10 62.30Q82.90 62.30 75.35 57.50Q67.80 52.70 67.80 43.70L67.80 43.70Q67.80 37.70 71.90 33.50Q76 29.30 83.60 29.30L83.60 29.30Q90.50 29.30 95.25 33.25Q100 37.20 102.50 44.20Q105 51.20 105 60.50L105 60.50Q105 75.40 99.60 82.95Q94.20 90.50 83.80 90.50Z"/></svg>