<svg xmlns="http://www.w3.org/2000/svg" xmlns:xlink="http://www.w3.org/1999/xlink" width="110.2" height="130.4"><path d="M33.20 98.50L33.20 98.50Q25 98.50 18.85 94.45Q12.70 90.40 8.20 84.20L8.20 84.20L12.70 81.20Q21.70 93.60 33.10 93.60L33.10 93.60Q37.70 93.60 40.35 91.70Q43 89.80 43 86.20L43 86.20Q43 82.90 40.80 80.50Q38.60 78.10 32.50 75.40L32.50 75.40Q27.10 73.10 24.10 71.05Q21.10 69 19.90 66.75Q18.70 64.50 18.70 61.70L18.70 61.70Q18.70 59.70 19.50 58.00L19.50 58.00Q15.70 55.30 13.25 51.75Q10.80 48.20 10.80 43.30L10.80 43.30Q10.80 37.50 15.45 33.40Q20.10 29.30 29.70 29.30L29.70 29.30Q32.90 29.30 35.75 29.75Q38.60 30.20 40.90 30.80L40.90 30.80L39.90 35.70Q37.80 35.10 35.30 34.70Q32.80 34.30 29.90 34.30L29.90 34.30Q22.90 34.30 19.55 36.95Q16.20 39.60 16.20 43.60L16.20 43.60Q16.20 49.80 22.60 54.20L22.60 54.20Q26.70 51.30 33.60 51.30L33.60 51.30Q39 51.30 43.40 52.20L43.40 52.20L42.40 57.10Q38.10 56.20 33.70 56.20L33.70 56.20Q24.20 56.20 24.20 61.90L24.20 61.90Q24.20 64.60 26.40 66.45Q28.60 68.30 34.20 70.70L34.20 70.70Q42.10 74.20 45.30 77.80Q48.50 81.40 48.50 86.30L48.50 86.30Q48.50 91.80 44.55 95.15Q40.60 98.50 33.20 98.50ZM82.50 90.60L82.50 90.60Q76.90 90.60 72.50 88.55Q68.10 86.50 65.55 82.70Q63 78.90 63 73.60L63 73.60Q63 69.90 64.15 66.70Q65.30 63.50 67.95 60.05Q70.60 56.60 75.20 52.10L75.20 52.10L98.20 29.30L102.20 33.30L80.60 54.20Q76.20 58.50 73.50 61.70Q70.80 64.90 69.60 67.70Q68.40 70.50 68.40 73.70L68.40 73.70Q68.40 79.40 72.35 82.50Q76.30 85.60 82.70 85.60L82.70 85.60Q88.30 85.60 92.80 84.00Q97.30 82.40 101.80 79.60L101.80 79.60L104.30 84.20Q99.80 87.00 94.45 88.80Q89.10 90.60 82.50 90.60Z"/></svg>