<svg xmlns="http://www.w3.org/2000/svg" xmlns:xlink="http://www.w3.org/1999/xlink" width="110.2" height="130.4"><path d="M28.70 90.50L28.70 90.50Q18.30 90.50 12.05 83.70Q5.80 76.90 3.30 62.20L3.30 62.20L8.70 61.50Q10.60 73.20 15.25 79.40Q19.90 85.60 28.50 85.60L28.50 85.60Q34.50 85.60 37.95 82.50Q41.40 79.40 42.85 73.60Q44.30 67.80 44.30 59.90L44.30 59.90Q44.30 53.40 42.70 47.55Q41.10 41.70 37.60 38.00Q34.10 34.30 28.40 34.30L28.40 34.30Q23.80 34.30 21 36.90Q18.20 39.50 18.20 43.90L18.20 43.90Q18.20 50.90 24.50 54.10Q30.80 57.30 42.20 57.30L42.20 57.30L42 62.30Q27.80 62.30 20.25 57.50Q12.70 52.70 12.70 43.70L12.70 43.70Q12.70 37.70 16.80 33.50Q20.90 29.30 28.50 29.30L28.50 29.30Q35.40 29.30 40.15 33.25Q44.90 37.20 47.40 44.20Q49.90 51.20 49.90 60.50L49.90 60.50Q49.90 75.40 44.50 82.95Q39.10 90.50 28.70 90.50ZM82.70 79.30L82.70 79.30Q76.80 79.30 72.25 76.65Q67.70 74 65.15 69.45Q62.60 64.90 62.60 59.00L62.60 59.00Q62.60 53.20 65.15 48.65Q67.70 44.10 72.25 41.45Q76.80 38.80 82.60 38.80L82.60 38.80Q88.50 38.80 93 41.40Q97.50 44.00 100.05 48.60Q102.60 53.20 102.60 59.10L102.60 59.10Q102.60 65 100 69.55Q97.40 74.10 92.90 76.70Q88.40 79.30 82.70 79.30ZM82.50 74.30L82.50 74.30Q88.90 74.30 93.05 70Q97.20 65.70 97.20 58.90L97.20 58.90Q97.20 52.20 93.15 48.00Q89.10 43.80 82.70 43.80L82.70 43.80Q76.30 43.80 72.20 48.10Q68.10 52.40 68.10 59.10L68.10 59.10Q68.10 65.80 72.10 70.05Q76.10 74.30 82.50 74.30Z"/></svg>