<svg xmlns="http://www.w3.org/2000/svg" xmlns:xlink="http://www.w3.org/1999/xlink" width="110.2" height="130.4"><path d="M28.70 90.50L28.70 90.50Q18.30 90.50 12.05 83.70Q5.80 76.90 3.30 62.20L3.30 62.20L8.70 61.50Q10.60 73.20 15.25 79.40Q19.90 85.60 28.50 85.60L28.50 85.60Q34.50 85.60 37.95 82.50Q41.40 79.40 42.85 73.60Q44.30 67.80 44.30 59.90L44.30 59.90Q44.30 53.40 42.70 47.55Q41.10 41.70 37.60 38.00Q34.10 34.30 28.40 34.30L28.40 34.30Q23.80 34.30 21 36.90Q18.20 39.50 18.20 43.90L18.20 43.90Q18.20 50.90 24.50 54.10Q30.80 57.30 42.20 57.30L42.20 57.30L42 62.30Q27.80 62.30 20.25 57.50Q12.70 52.70 12.70 43.70L12.70 43.70Q12.70 37.70 16.80 33.50Q20.90 29.30 28.50 29.30L28.50 29.30Q35.40 29.30 40.15 33.25Q44.90 37.20 47.40 44.20Q49.90 51.20 49.90 60.50L49.90 60.50Q49.90 75.40 44.50 82.95Q39.10 90.50 28.70 90.50ZM104.20 89.60L103.20 89.60Q96.50 89.60 93.30 86.60L93.30 86.60Q91.60 85.00 90.70 82.50Q89.80 80 89.80 75.80L89.80 75.80L89.80 59.00Q87.70 60.10 85.50 60.65Q83.30 61.20 80.60 61.20L80.60 61.20Q76 61.20 72.40 59.20Q68.80 57.20 66.75 53.60Q64.70 50.00 64.70 45.30L64.70 45.30Q64.70 40.80 66.60 37.20Q68.50 33.60 71.95 31.45Q75.40 29.30 80.10 29.30L80.10 29.30Q83.70 29.30 86.40 30.45Q89.10 31.60 90.90 33.70L90.90 33.70Q95.10 38.10 95.10 46.90L95.10 46.90L95.10 75.50Q95.10 78.70 95.65 80.35Q96.20 82.00 97.30 82.90L97.30 82.90Q98.50 84.10 100.50 84.35Q102.50 84.60 104.70 84.60L104.70 84.60L104.20 89.60ZM70.10 45.50L70.10 45.50Q70.10 50.50 73.05 53.40Q76 56.30 80.70 56.30L80.70 56.30Q85.80 56.30 89.80 53.20L89.80 53.20L89.80 47.70Q89.80 40.40 87.20 37.20L87.20 37.20Q84.70 34.30 80.20 34.30L80.20 34.30Q75.60 34.30 72.85 37.35Q70.10 40.40 70.10 45.50Z"/></svg>