<svg xmlns="http://www.w3.org/2000/svg" xmlns:xlink="http://www.w3.org/1999/xlink" width="110.2" height="130.4"><path d="M28.70 90.50L28.70 90.50Q18.30 90.50 12.05 83.70Q5.80 76.90 3.30 62.20L3.30 62.20L8.70 61.50Q10.60 73.20 15.25 79.40Q19.90 85.60 28.50 85.60L28.50 85.60Q34.50 85.60 37.95 82.50Q41.40 79.40 42.85 73.60Q44.30 67.80 44.30 59.90L44.30 59.90Q44.30 53.40 42.70 47.55Q41.10 41.70 37.60 38.00Q34.10 34.30 28.40 34.30L28.40 34.30Q23.80 34.30 21 36.90Q18.20 39.50 18.20 43.90L18.20 43.90Q18.20 50.90 24.50 54.10Q30.80 57.30 42.20 57.30L42.20 57.30L42 62.30Q27.80 62.30 20.25 57.50Q12.70 52.70 12.70 43.70L12.70 43.70Q12.70 37.70 16.80 33.50Q20.90 29.30 28.50 29.30L28.50 29.30Q35.40 29.30 40.15 33.25Q44.90 37.20 47.40 44.20Q49.90 51.20 49.90 60.50L49.90 60.50Q49.90 75.40 44.50 82.95Q39.10 90.50 28.70 90.50ZM83 90.60L83 90.60Q75.20 90.60 69.55 86.50Q63.90 82.40 59.50 75.10L59.50 75.10L64 72.30Q68.50 79.50 73 82.55Q77.50 85.60 82.90 85.60L82.90 85.60Q88.80 85.60 92.50 82.50Q96.20 79.40 96.20 73.50L96.20 73.50Q96.20 69.20 94.35 65.95Q92.50 62.70 89.20 60.30L89.20 60.30Q83.80 62.60 76.20 63.10L76.20 63.10L75.20 58.00Q84.50 57.40 89.70 54.30Q94.90 51.20 94.90 45.00L94.90 45.00Q94.90 40.10 91.65 37.20Q88.40 34.30 82.30 34.30L82.30 34.30Q78.70 34.30 75.35 35.10Q72 35.90 68.40 37.60L68.40 37.60L66.70 32.90Q70.30 31.30 74.35 30.30Q78.40 29.30 82.40 29.30L82.40 29.30Q91.40 29.30 95.80 33.65Q100.20 38.00 100.20 44.90L100.20 44.90Q100.20 49.00 98.55 52.20Q96.90 55.40 93.90 57.60L93.90 57.60Q97.60 60.90 99.55 64.95Q101.50 69 101.50 73.60L101.50 73.60Q101.50 81.20 96.55 85.90Q91.60 90.60 83 90.60Z"/></svg>