<svg xmlns="http://www.w3.org/2000/svg" xmlns:xlink="http://www.w3.org/1999/xlink" width="110.2" height="130.4"><path d="M28.70 90.50L28.70 90.50Q18.30 90.50 12.05 83.70Q5.80 76.90 3.30 62.20L3.30 62.20L8.70 61.50Q10.60 73.20 15.25 79.40Q19.90 85.60 28.50 85.60L28.50 85.60Q34.50 85.60 37.95 82.50Q41.40 79.40 42.85 73.60Q44.30 67.80 44.30 59.90L44.30 59.90Q44.30 53.40 42.70 47.55Q41.10 41.70 37.60 38.00Q34.10 34.30 28.40 34.30L28.40 34.30Q23.80 34.30 21 36.90Q18.20 39.50 18.20 43.90L18.20 43.90Q18.20 50.90 24.50 54.10Q30.80 57.30 42.20 57.30L42.20 57.30L42 62.30Q27.80 62.30 20.25 57.50Q12.70 52.70 12.70 43.70L12.70 43.70Q12.70 37.70 16.80 33.50Q20.90 29.30 28.50 29.30L28.50 29.30Q35.40 29.30 40.15 33.25Q44.90 37.20 47.40 44.20Q49.90 51.20 49.90 60.50L49.90 60.50Q49.90 75.40 44.50 82.95Q39.10 90.50 28.70 90.50ZM80.50 73L80.50 73Q73 73 69.20 68.50L69.20 68.50Q67.30 66.40 66.40 63.60Q65.50 60.80 65.50 56.70L65.50 56.70L65.50 44.40Q65.50 41.70 65.15 40.20Q64.80 38.70 64 37.60L64 37.60Q63 36.20 60.95 35.75Q58.90 35.30 56.40 35.30L56.40 35.30L56.90 30.40L57.80 30.40Q64.90 30.40 68 34.00L68 34.00Q69.50 35.60 70.15 38.05Q70.80 40.50 70.80 44.20L70.80 44.20L70.80 56.50Q70.80 59.90 71.45 61.90Q72.10 63.90 73.30 65.20L73.30 65.20Q75.70 68.10 81.10 68.10L81.10 68.10Q84.60 68.10 87.65 66.50Q90.70 64.90 93.10 62.30L93.10 62.30L93.10 29.30L98.40 30.10L98.40 75.50Q98.40 78.70 98.90 80.35Q99.40 82.00 100.60 82.90L100.60 82.90Q101.80 84.10 103.75 84.35Q105.70 84.60 108 84.60L108 84.60L107.50 89.60L106.50 89.60Q99.80 89.60 96.60 86.60L96.60 86.60Q94.80 85.00 93.95 82.50Q93.10 80 93.10 75.80L93.10 75.80L93.10 68.40Q90.60 70.50 87.45 71.75Q84.30 73 80.50 73Z"/></svg>