<svg xmlns="http://www.w3.org/2000/svg" xmlns:xlink="http://www.w3.org/1999/xlink" width="110.2" height="130.4"><path d="M28.70 90.50L28.70 90.50Q18.30 90.50 12.05 83.70Q5.80 76.90 3.30 62.20L3.30 62.20L8.70 61.50Q10.60 73.20 15.25 79.40Q19.90 85.60 28.50 85.60L28.50 85.60Q34.50 85.60 37.95 82.50Q41.40 79.40 42.85 73.60Q44.30 67.80 44.30 59.90L44.30 59.90Q44.30 53.40 42.70 47.55Q41.10 41.70 37.60 38.00Q34.10 34.30 28.40 34.30L28.40 34.30Q23.80 34.30 21 36.90Q18.20 39.50 18.20 43.90L18.20 43.90Q18.20 50.90 24.50 54.10Q30.80 57.30 42.20 57.30L42.20 57.30L42 62.30Q27.80 62.30 20.25 57.50Q12.70 52.70 12.70 43.70L12.70 43.70Q12.70 37.70 16.80 33.50Q20.90 29.30 28.50 29.30L28.50 29.30Q35.40 29.30 40.15 33.25Q44.90 37.20 47.40 44.20Q49.90 51.20 49.90 60.50L49.90 60.50Q49.90 75.40 44.50 82.95Q39.10 90.50 28.70 90.50ZM88.30 98.50L88.30 98.50Q80.10 98.50 73.95 94.45Q67.80 90.40 63.30 84.20L63.30 84.20L67.80 81.20Q76.80 93.60 88.20 93.60L88.20 93.60Q92.80 93.60 95.45 91.70Q98.10 89.80 98.10 86.20L98.10 86.20Q98.10 82.90 95.90 80.50Q93.70 78.10 87.60 75.40L87.60 75.40Q82.20 73.10 79.20 71.05Q76.20 69 75 66.75Q73.80 64.50 73.80 61.70L73.80 61.70Q73.80 59.70 74.60 58.00L74.60 58.00Q70.80 55.30 68.35 51.75Q65.90 48.20 65.90 43.30L65.90 43.30Q65.90 37.50 70.55 33.40Q75.20 29.30 84.80 29.30L84.80 29.30Q88 29.30 90.85 29.75Q93.70 30.20 96 30.80L96 30.80L95 35.70Q92.90 35.10 90.40 34.70Q87.90 34.30 85 34.30L85 34.30Q78 34.30 74.65 36.95Q71.30 39.60 71.30 43.60L71.30 43.60Q71.30 49.80 77.70 54.20L77.70 54.20Q81.80 51.30 88.70 51.30L88.70 51.30Q94.10 51.30 98.50 52.20L98.50 52.20L97.50 57.10Q93.20 56.20 88.80 56.20L88.80 56.20Q79.30 56.20 79.30 61.90L79.30 61.90Q79.30 64.60 81.50 66.45Q83.70 68.30 89.30 70.70L89.30 70.70Q97.20 74.20 100.40 77.80Q103.60 81.40 103.60 86.30L103.60 86.30Q103.60 91.80 99.65 95.15Q95.70 98.50 88.30 98.50Z"/></svg>