<svg xmlns="http://www.w3.org/2000/svg" xmlns:xlink="http://www.w3.org/1999/xlink" width="110.2" height="130.4"><path d="M28.70 90.50L28.70 90.50Q18.30 90.50 12.05 83.70Q5.80 76.90 3.30 62.20L3.30 62.20L8.70 61.50Q10.60 73.20 15.25 79.40Q19.90 85.60 28.50 85.60L28.50 85.60Q34.50 85.60 37.95 82.50Q41.40 79.40 42.85 73.60Q44.30 67.80 44.30 59.90L44.30 59.90Q44.30 53.40 42.70 47.55Q41.10 41.70 37.60 38.00Q34.10 34.30 28.40 34.30L28.40 34.30Q23.80 34.30 21 36.90Q18.20 39.50 18.20 43.90L18.20 43.90Q18.20 50.90 24.50 54.10Q30.80 57.30 42.20 57.30L42.20 57.30L42 62.30Q27.80 62.30 20.25 57.50Q12.70 52.70 12.70 43.70L12.70 43.70Q12.70 37.70 16.80 33.50Q20.90 29.30 28.50 29.30L28.50 29.30Q35.40 29.30 40.15 33.25Q44.90 37.20 47.40 44.20Q49.90 51.20 49.90 60.50L49.90 60.50Q49.90 75.40 44.50 82.95Q39.10 90.50 28.70 90.50ZM83.80 90.50L83.80 90.50Q73.40 90.50 67.15 83.70Q60.90 76.90 58.40 62.20L58.40 62.20L63.80 61.50Q65.70 73.20 70.35 79.40Q75 85.60 83.60 85.60L83.60 85.60Q89.60 85.60 93.05 82.50Q96.50 79.40 97.95 73.60Q99.40 67.80 99.40 59.90L99.40 59.90Q99.40 53.40 97.80 47.55Q96.20 41.70 92.70 38.00Q89.20 34.30 83.50 34.30L83.50 34.30Q78.90 34.30 76.10 36.90Q73.30 39.50 73.30 43.90L73.30 43.90Q73.30 50.90 79.60 54.10Q85.90 57.30 97.30 57.30L97.30 57.30L97.10 62.30Q82.90 62.30 75.35 57.50Q67.80 52.70 67.80 43.70L67.80 43.70Q67.80 37.70 71.90 33.50Q76 29.30 83.60 29.30L83.60 29.30Q90.50 29.30 95.25 33.25Q100 37.20 102.50 44.20Q105 51.20 105 60.50L105 60.50Q105 75.40 99.60 82.95Q94.20 90.50 83.80 90.50Z"/></svg>