<svg xmlns="http://www.w3.org/2000/svg" xmlns:xlink="http://www.w3.org/1999/xlink" width="110.2" height="130.4"><path d="M28.70 90.50L28.70 90.50Q18.30 90.50 12.05 83.70Q5.80 76.90 3.30 62.20L3.30 62.20L8.70 61.50Q10.60 73.20 15.25 79.40Q19.90 85.60 28.50 85.60L28.50 85.60Q34.50 85.60 37.95 82.50Q41.40 79.40 42.85 73.60Q44.30 67.80 44.30 59.90L44.30 59.90Q44.30 53.40 42.70 47.55Q41.10 41.70 37.60 38.00Q34.10 34.30 28.40 34.30L28.40 34.30Q23.80 34.30 21 36.90Q18.20 39.50 18.20 43.90L18.20 43.90Q18.20 50.90 24.50 54.10Q30.80 57.30 42.20 57.30L42.20 57.30L42 62.30Q27.80 62.30 20.25 57.50Q12.70 52.70 12.70 43.70L12.70 43.70Q12.70 37.70 16.80 33.50Q20.90 29.30 28.50 29.30L28.50 29.30Q35.40 29.30 40.15 33.25Q44.90 37.20 47.40 44.20Q49.90 51.20 49.90 60.50L49.90 60.50Q49.90 75.40 44.50 82.95Q39.10 90.50 28.70 90.50ZM82.50 90.60L82.50 90.60Q76.90 90.60 72.50 88.55Q68.10 86.50 65.55 82.70Q63 78.90 63 73.60L63 73.60Q63 69.90 64.15 66.70Q65.30 63.50 67.95 60.05Q70.60 56.60 75.20 52.10L75.20 52.10L98.20 29.30L102.20 33.30L80.60 54.20Q76.20 58.50 73.50 61.70Q70.80 64.90 69.60 67.70Q68.40 70.50 68.40 73.70L68.40 73.70Q68.40 79.40 72.35 82.50Q76.30 85.60 82.70 85.60L82.70 85.60Q88.30 85.60 92.80 84.00Q97.30 82.40 101.80 79.60L101.80 79.60L104.30 84.20Q99.80 87.00 94.45 88.80Q89.10 90.60 82.50 90.60Z"/></svg>