<svg xmlns="http://www.w3.org/2000/svg" xmlns:xlink="http://www.w3.org/1999/xlink" width="110.2" height="130.4"><path d="M28.70 90.50L28.70 90.50Q18.30 90.50 12.05 83.70Q5.80 76.90 3.30 62.20L3.30 62.20L8.70 61.50Q10.60 73.20 15.25 79.40Q19.90 85.60 28.50 85.60L28.50 85.60Q34.50 85.60 37.95 82.50Q41.40 79.40 42.85 73.60Q44.30 67.80 44.30 59.90L44.30 59.90Q44.30 53.40 42.70 47.55Q41.10 41.70 37.60 38.00Q34.10 34.30 28.40 34.30L28.40 34.30Q23.80 34.30 21 36.90Q18.20 39.50 18.20 43.90L18.20 43.90Q18.20 50.90 24.50 54.10Q30.80 57.30 42.20 57.30L42.20 57.30L42 62.30Q27.80 62.30 20.25 57.50Q12.70 52.70 12.70 43.70L12.70 43.70Q12.70 37.70 16.80 33.50Q20.90 29.30 28.50 29.30L28.50 29.30Q35.40 29.30 40.15 33.25Q44.90 37.20 47.40 44.20Q49.90 51.20 49.90 60.50L49.90 60.50Q49.90 75.40 44.50 82.95Q39.10 90.50 28.70 90.50ZM89.90 90.60L89.90 90.60Q81 90.60 74.50 87.00Q68 83.40 64.40 77.05Q60.80 70.70 60.80 62.30L60.80 62.30Q60.80 50.30 68.70 42.00Q76.60 33.70 90.20 29.40L90.20 29.40L91.90 34.30Q79 38.50 72.70 45.45Q66.40 52.40 66.40 62.80L66.40 62.80Q66.40 70 69.40 75.10Q72.40 80.20 77.70 82.85Q83 85.50 89.80 85.50L89.80 85.50Q94 85.50 97.45 84.80Q100.90 84.10 104.50 82.70L104.50 82.70L106.50 87.50Q102.80 89.00 98.75 89.80Q94.70 90.60 89.90 90.60ZM104 59.30L79.10 65.60L77.70 60.40L102.70 54.20L104 59.30Z"/></svg>