<svg xmlns="http://www.w3.org/2000/svg" xmlns:xlink="http://www.w3.org/1999/xlink" width="55.1" height="130.4"><path d="M27.40 90.60L27.40 90.60Q21.80 90.60 17.40 88.55Q13 86.50 10.45 82.70Q7.90 78.90 7.90 73.60L7.90 73.60Q7.90 69.90 9.05 66.70Q10.20 63.50 12.85 60.05Q15.50 56.60 20.10 52.10L20.10 52.10L43.10 29.30L47.10 33.30L25.50 54.20Q21.10 58.50 18.40 61.70Q15.70 64.90 14.50 67.70Q13.30 70.50 13.30 73.70L13.30 73.70Q13.30 79.40 17.25 82.50Q21.20 85.60 27.60 85.60L27.60 85.60Q33.20 85.60 37.70 84.00Q42.20 82.40 46.70 79.60L46.70 79.60L49.20 84.20Q44.70 87.00 39.35 88.80Q34 90.60 27.40 90.60Z"/></svg>