<svg xmlns="http://www.w3.org/2000/svg" xmlns:xlink="http://www.w3.org/1999/xlink" width="110.2" height="130.4"><path d="M27.40 90.60L27.40 90.60Q21.80 90.60 17.40 88.55Q13 86.50 10.45 82.70Q7.90 78.90 7.90 73.60L7.90 73.60Q7.90 69.90 9.05 66.70Q10.20 63.50 12.85 60.05Q15.50 56.60 20.10 52.10L20.10 52.10L43.10 29.30L47.10 33.30L25.50 54.20Q21.10 58.50 18.40 61.70Q15.70 64.90 14.50 67.70Q13.30 70.50 13.30 73.70L13.30 73.70Q13.30 79.40 17.25 82.50Q21.20 85.60 27.60 85.60L27.60 85.60Q33.20 85.60 37.70 84.00Q42.20 82.40 46.70 79.60L46.70 79.60L49.20 84.20Q44.70 87.00 39.35 88.80Q34 90.60 27.40 90.60ZM82.70 79.30L82.70 79.30Q76.80 79.30 72.25 76.65Q67.70 74 65.15 69.45Q62.60 64.90 62.60 59.00L62.60 59.00Q62.60 53.20 65.15 48.65Q67.70 44.10 72.25 41.45Q76.80 38.80 82.60 38.80L82.60 38.80Q88.50 38.80 93 41.40Q97.50 44.00 100.05 48.60Q102.60 53.20 102.60 59.10L102.60 59.10Q102.60 65 100 69.55Q97.40 74.10 92.90 76.70Q88.40 79.30 82.70 79.30ZM82.50 74.30L82.50 74.30Q88.90 74.30 93.05 70Q97.20 65.70 97.20 58.90L97.20 58.90Q97.20 52.20 93.15 48.00Q89.10 43.80 82.70 43.80L82.70 43.80Q76.30 43.80 72.20 48.10Q68.10 52.40 68.10 59.10L68.10 59.10Q68.10 65.80 72.10 70.05Q76.10 74.30 82.50 74.30Z"/></svg>