<svg xmlns="http://www.w3.org/2000/svg" xmlns:xlink="http://www.w3.org/1999/xlink" width="110.2" height="130.4"><path d="M27.40 90.60L27.40 90.60Q21.80 90.60 17.40 88.55Q13 86.50 10.45 82.70Q7.90 78.90 7.90 73.60L7.90 73.60Q7.90 69.90 9.05 66.70Q10.20 63.50 12.85 60.05Q15.50 56.60 20.10 52.10L20.10 52.10L43.10 29.30L47.10 33.30L25.50 54.20Q21.10 58.50 18.40 61.70Q15.70 64.90 14.50 67.70Q13.30 70.50 13.30 73.70L13.30 73.70Q13.30 79.40 17.25 82.50Q21.20 85.60 27.60 85.60L27.60 85.60Q33.20 85.60 37.70 84.00Q42.20 82.40 46.70 79.60L46.70 79.60L49.20 84.20Q44.70 87.00 39.35 88.80Q34 90.60 27.40 90.60ZM97.70 89.60L97.70 89.60Q92.10 89.60 88.05 87.15Q84 84.70 80.80 80.20Q77.60 75.70 74.70 69.60L74.70 69.60Q73.70 69.60 72.70 69.60L72.70 69.60Q64.10 69.60 64.10 64.60L64.10 64.60Q64.10 62.50 65.50 61.45Q66.90 60.40 69.10 60.40L69.10 60.40Q73.70 60.40 77.50 64.10L77.50 64.10Q84.40 62.90 89 58.85Q93.60 54.80 93.60 48.10L93.60 48.10Q93.60 41.40 89.75 37.85Q85.90 34.30 79.20 34.30L79.20 34.30Q75.90 34.30 72.70 35.00Q69.50 35.70 65.90 37.30L65.90 37.30L64.10 32.60Q67.90 31.10 71.70 30.20Q75.50 29.30 79.30 29.30L79.30 29.30Q88.20 29.30 93.65 34.20Q99.10 39.10 99.10 48.10L99.10 48.10Q99.10 53.60 96.60 57.85Q94.10 62.10 89.80 64.90Q85.50 67.70 80 68.90L80 68.90Q82.90 74.40 85.45 77.85Q88 81.30 90.90 82.90Q93.80 84.50 97.90 84.50L97.90 84.50Q100 84.50 101.95 83.95Q103.90 83.40 105.60 82.50L105.60 82.50L107.50 87.20Q103 89.60 97.70 89.60Z"/></svg>