<svg xmlns="http://www.w3.org/2000/svg" xmlns:xlink="http://www.w3.org/1999/xlink" width="110.2" height="130.4"><path d="M27.40 90.60L27.40 90.60Q21.80 90.60 17.40 88.55Q13 86.50 10.45 82.70Q7.90 78.90 7.90 73.60L7.90 73.60Q7.90 69.90 9.05 66.70Q10.20 63.50 12.85 60.05Q15.50 56.60 20.10 52.10L20.10 52.10L43.10 29.30L47.10 33.30L25.50 54.20Q21.10 58.50 18.40 61.70Q15.70 64.90 14.50 67.70Q13.30 70.50 13.30 73.70L13.30 73.70Q13.30 79.40 17.25 82.50Q21.20 85.60 27.60 85.60L27.60 85.60Q33.20 85.60 37.70 84.00Q42.20 82.40 46.70 79.60L46.70 79.60L49.20 84.20Q44.70 87.00 39.35 88.80Q34 90.60 27.40 90.60ZM83.80 90.50L83.80 90.50Q73.40 90.50 67.15 83.70Q60.90 76.90 58.40 62.20L58.40 62.20L63.80 61.50Q65.70 73.20 70.35 79.40Q75 85.60 83.60 85.60L83.60 85.60Q89.60 85.60 93.05 82.50Q96.50 79.40 97.95 73.60Q99.40 67.80 99.40 59.90L99.40 59.90Q99.40 53.40 97.80 47.55Q96.20 41.70 92.70 38.00Q89.20 34.30 83.50 34.30L83.50 34.30Q78.90 34.30 76.10 36.90Q73.30 39.50 73.30 43.90L73.30 43.90Q73.30 50.90 79.60 54.10Q85.90 57.30 97.30 57.30L97.30 57.30L97.10 62.30Q82.90 62.30 75.35 57.50Q67.80 52.70 67.80 43.70L67.80 43.70Q67.80 37.70 71.90 33.50Q76 29.30 83.60 29.30L83.60 29.30Q90.50 29.30 95.25 33.25Q100 37.20 102.50 44.20Q105 51.20 105 60.50L105 60.50Q105 75.40 99.60 82.95Q94.20 90.50 83.80 90.50Z"/></svg>