<svg xmlns="http://www.w3.org/2000/svg" xmlns:xlink="http://www.w3.org/1999/xlink" width="110.2" height="130.4"><path d="M27.40 90.60L27.40 90.60Q21.80 90.60 17.40 88.55Q13 86.50 10.45 82.70Q7.90 78.90 7.90 73.60L7.90 73.60Q7.90 69.90 9.05 66.70Q10.20 63.50 12.85 60.05Q15.50 56.60 20.10 52.10L20.10 52.10L43.10 29.30L47.10 33.30L25.50 54.20Q21.10 58.50 18.40 61.70Q15.70 64.90 14.50 67.70Q13.30 70.50 13.30 73.70L13.30 73.70Q13.30 79.40 17.25 82.50Q21.20 85.60 27.60 85.60L27.60 85.60Q33.20 85.60 37.70 84.00Q42.20 82.40 46.70 79.60L46.70 79.60L49.20 84.20Q44.70 87.00 39.35 88.80Q34 90.60 27.40 90.60ZM82.50 90.60L82.50 90.60Q76.90 90.60 72.50 88.55Q68.10 86.50 65.55 82.70Q63 78.90 63 73.60L63 73.60Q63 69.90 64.15 66.70Q65.30 63.50 67.95 60.05Q70.60 56.60 75.20 52.10L75.20 52.10L98.20 29.30L102.20 33.30L80.60 54.20Q76.20 58.50 73.50 61.70Q70.80 64.90 69.60 67.70Q68.40 70.50 68.40 73.70L68.40 73.70Q68.40 79.40 72.35 82.50Q76.30 85.60 82.70 85.60L82.70 85.60Q88.30 85.60 92.80 84.00Q97.30 82.40 101.80 79.60L101.80 79.60L104.30 84.20Q99.80 87.00 94.45 88.80Q89.10 90.60 82.50 90.60Z"/></svg>