<svg xmlns="http://www.w3.org/2000/svg" xmlns:xlink="http://www.w3.org/1999/xlink" width="110.2" height="130.4"><path d="M27.40 90.60L27.40 90.60Q21.80 90.60 17.40 88.55Q13 86.50 10.45 82.70Q7.90 78.90 7.90 73.60L7.90 73.60Q7.90 69.90 9.05 66.70Q10.20 63.50 12.85 60.05Q15.50 56.60 20.10 52.10L20.10 52.10L43.10 29.30L47.10 33.30L25.50 54.20Q21.10 58.50 18.40 61.70Q15.70 64.90 14.50 67.70Q13.30 70.50 13.30 73.70L13.30 73.70Q13.30 79.40 17.25 82.50Q21.20 85.60 27.60 85.60L27.60 85.60Q33.20 85.60 37.70 84.00Q42.20 82.40 46.70 79.60L46.70 79.60L49.20 84.20Q44.70 87.00 39.35 88.80Q34 90.60 27.40 90.60ZM89.90 90.60L89.90 90.60Q81 90.60 74.50 87.00Q68 83.40 64.40 77.05Q60.80 70.70 60.80 62.30L60.80 62.30Q60.80 50.30 68.70 42.00Q76.60 33.70 90.20 29.40L90.20 29.40L91.90 34.30Q79 38.50 72.70 45.45Q66.40 52.40 66.40 62.80L66.40 62.80Q66.40 70 69.40 75.10Q72.40 80.20 77.70 82.85Q83 85.50 89.80 85.50L89.80 85.50Q94 85.50 97.45 84.80Q100.90 84.10 104.50 82.70L104.50 82.70L106.50 87.50Q102.80 89.00 98.75 89.80Q94.70 90.60 89.90 90.60ZM104 59.30L79.10 65.60L77.70 60.40L102.70 54.20L104 59.30Z"/></svg>