<svg xmlns="http://www.w3.org/2000/svg" xmlns:xlink="http://www.w3.org/1999/xlink" width="55.1" height="130.4"><path d="M34.80 90.60L34.80 90.60Q25.90 90.60 19.40 87.00Q12.90 83.40 9.30 77.05Q5.70 70.70 5.70 62.30L5.70 62.30Q5.70 50.30 13.60 42.00Q21.50 33.70 35.10 29.40L35.10 29.40L36.80 34.30Q23.90 38.50 17.60 45.45Q11.30 52.40 11.30 62.80L11.30 62.80Q11.30 70 14.30 75.10Q17.30 80.20 22.60 82.85Q27.90 85.50 34.70 85.50L34.70 85.50Q38.90 85.50 42.35 84.80Q45.80 84.10 49.40 82.70L49.40 82.70L51.40 87.50Q47.70 89.00 43.65 89.80Q39.60 90.60 34.80 90.60ZM48.90 59.30L24 65.60L22.60 60.40L47.60 54.20L48.90 59.30Z"/></svg>