<svg xmlns="http://www.w3.org/2000/svg" xmlns:xlink="http://www.w3.org/1999/xlink" width="110.2" height="130.4"><path d="M34.80 90.60L34.80 90.60Q25.90 90.60 19.40 87.00Q12.90 83.40 9.30 77.05Q5.70 70.70 5.70 62.30L5.70 62.30Q5.70 50.30 13.60 42.00Q21.50 33.70 35.10 29.40L35.10 29.40L36.80 34.30Q23.90 38.50 17.60 45.45Q11.30 52.40 11.30 62.80L11.30 62.80Q11.30 70 14.30 75.10Q17.30 80.20 22.60 82.85Q27.90 85.50 34.70 85.50L34.70 85.50Q38.90 85.50 42.35 84.80Q45.80 84.10 49.40 82.70L49.40 82.70L51.40 87.50Q47.70 89.00 43.65 89.80Q39.60 90.60 34.80 90.60ZM48.90 59.30L24 65.60L22.60 60.40L47.60 54.20L48.90 59.30ZM104.20 89.60L103.20 89.60Q96.50 89.60 93.30 86.60L93.30 86.60Q91.60 85.00 90.70 82.50Q89.80 80 89.80 75.80L89.80 75.80L89.80 59.00Q87.70 60.10 85.50 60.65Q83.30 61.20 80.60 61.20L80.60 61.20Q76 61.20 72.40 59.20Q68.80 57.20 66.75 53.60Q64.70 50.00 64.70 45.30L64.70 45.30Q64.70 40.80 66.60 37.20Q68.50 33.60 71.95 31.45Q75.40 29.30 80.10 29.30L80.10 29.30Q83.70 29.30 86.40 30.45Q89.10 31.60 90.90 33.70L90.90 33.70Q95.10 38.10 95.10 46.90L95.10 46.90L95.10 75.50Q95.10 78.70 95.65 80.35Q96.20 82.00 97.30 82.90L97.30 82.90Q98.50 84.10 100.50 84.35Q102.50 84.60 104.70 84.60L104.70 84.60L104.20 89.60ZM70.10 45.50L70.10 45.50Q70.10 50.50 73.05 53.40Q76 56.30 80.70 56.30L80.70 56.30Q85.80 56.30 89.80 53.20L89.80 53.20L89.80 47.70Q89.80 40.40 87.20 37.20L87.20 37.20Q84.70 34.30 80.20 34.30L80.20 34.30Q75.60 34.30 72.85 37.35Q70.10 40.40 70.10 45.50Z"/></svg>