<svg xmlns="http://www.w3.org/2000/svg" xmlns:xlink="http://www.w3.org/1999/xlink" width="110.2" height="130.4"><path d="M34.80 90.60L34.80 90.60Q25.90 90.60 19.40 87.00Q12.90 83.40 9.30 77.05Q5.70 70.70 5.70 62.30L5.70 62.30Q5.70 50.30 13.60 42.00Q21.50 33.70 35.10 29.40L35.10 29.40L36.80 34.30Q23.90 38.50 17.60 45.45Q11.30 52.40 11.30 62.80L11.30 62.80Q11.30 70 14.30 75.10Q17.30 80.20 22.60 82.85Q27.90 85.50 34.70 85.50L34.70 85.50Q38.90 85.50 42.35 84.80Q45.80 84.10 49.40 82.70L49.40 82.70L51.40 87.50Q47.70 89.00 43.65 89.80Q39.60 90.60 34.80 90.60ZM48.90 59.30L24 65.60L22.60 60.40L47.60 54.20L48.90 59.30ZM83 90.60L83 90.60Q75.20 90.60 69.55 86.50Q63.90 82.40 59.50 75.10L59.50 75.10L64 72.30Q68.50 79.50 73 82.55Q77.50 85.60 82.90 85.60L82.90 85.60Q88.80 85.60 92.50 82.50Q96.20 79.40 96.20 73.50L96.20 73.50Q96.20 69.20 94.35 65.95Q92.50 62.70 89.20 60.30L89.20 60.30Q83.80 62.60 76.20 63.10L76.20 63.10L75.20 58.00Q84.50 57.40 89.70 54.30Q94.90 51.20 94.90 45.00L94.90 45.00Q94.90 40.10 91.65 37.20Q88.40 34.30 82.30 34.30L82.30 34.30Q78.70 34.30 75.35 35.10Q72 35.90 68.40 37.60L68.40 37.60L66.70 32.90Q70.30 31.30 74.35 30.30Q78.40 29.30 82.40 29.30L82.40 29.30Q91.40 29.30 95.80 33.65Q100.20 38.00 100.20 44.90L100.20 44.90Q100.20 49.00 98.55 52.20Q96.90 55.40 93.90 57.60L93.90 57.60Q97.60 60.90 99.55 64.95Q101.50 69 101.50 73.60L101.50 73.60Q101.50 81.20 96.55 85.90Q91.60 90.60 83 90.60Z"/></svg>