<svg xmlns="http://www.w3.org/2000/svg" xmlns:xlink="http://www.w3.org/1999/xlink" width="110.2" height="130.4"><path d="M34.80 90.60L34.80 90.60Q25.90 90.60 19.40 87.00Q12.90 83.40 9.30 77.05Q5.70 70.70 5.70 62.30L5.70 62.30Q5.70 50.30 13.60 42.00Q21.50 33.70 35.10 29.40L35.10 29.40L36.80 34.30Q23.90 38.50 17.60 45.45Q11.30 52.40 11.30 62.80L11.30 62.80Q11.30 70 14.30 75.10Q17.30 80.20 22.60 82.85Q27.90 85.50 34.70 85.50L34.70 85.50Q38.90 85.50 42.35 84.80Q45.80 84.10 49.40 82.70L49.40 82.70L51.40 87.50Q47.70 89.00 43.65 89.80Q39.60 90.60 34.80 90.60ZM48.90 59.30L24 65.60L22.60 60.40L47.60 54.20L48.90 59.30ZM81.90 90.60L81.90 90.60Q76.80 90.60 73.55 88.55Q70.30 86.50 68.75 83.25Q67.20 80 67.20 76.30L67.20 76.30Q67.20 71.10 69.85 66.15Q72.50 61.20 79.30 54.50L79.30 54.50Q75.20 50.40 69.65 45.15Q64.10 39.90 56.60 33.20L56.60 33.20L60.10 29.30Q67.40 35.90 72.90 41.20Q78.40 46.50 82.70 51.10L82.70 51.10Q87.10 46.70 92.60 41.35Q98.10 36.00 105.20 29.30L105.20 29.30L108.70 33.20Q101.40 40.00 95.85 45.25Q90.30 50.50 86.10 54.60L86.10 54.60Q92 61.10 94.30 65.90Q96.60 70.70 96.60 76.10L96.60 76.10Q96.60 79.90 95.10 83.20Q93.60 86.50 90.35 88.55Q87.10 90.60 81.90 90.60ZM81.90 85.70L81.90 85.70Q86.50 85.70 88.90 83.00Q91.30 80.30 91.30 76L91.30 76Q91.30 71.70 89.45 67.75Q87.60 63.80 82.60 58.20L82.60 58.20Q76.90 64 74.70 68Q72.50 72 72.50 76.40L72.50 76.40Q72.50 80.60 74.90 83.15Q77.30 85.70 81.90 85.70Z"/></svg>