<svg xmlns="http://www.w3.org/2000/svg" xmlns:xlink="http://www.w3.org/1999/xlink" width="110.2" height="130.4"><path d="M34.80 90.60L34.80 90.60Q25.90 90.60 19.40 87.00Q12.90 83.40 9.30 77.05Q5.70 70.70 5.70 62.30L5.70 62.30Q5.70 50.30 13.60 42.00Q21.50 33.70 35.10 29.40L35.10 29.40L36.80 34.30Q23.90 38.50 17.60 45.45Q11.30 52.40 11.30 62.80L11.30 62.80Q11.30 70 14.30 75.10Q17.30 80.20 22.60 82.85Q27.90 85.50 34.70 85.50L34.70 85.50Q38.90 85.50 42.35 84.80Q45.80 84.10 49.40 82.70L49.40 82.70L51.40 87.50Q47.70 89.00 43.65 89.80Q39.60 90.60 34.80 90.60ZM48.90 59.30L24 65.60L22.60 60.40L47.60 54.20L48.90 59.30ZM80.50 73L80.50 73Q73 73 69.20 68.50L69.20 68.50Q67.30 66.40 66.40 63.60Q65.50 60.80 65.50 56.70L65.50 56.70L65.50 44.40Q65.50 41.70 65.15 40.20Q64.80 38.70 64 37.60L64 37.60Q63 36.20 60.95 35.75Q58.90 35.30 56.40 35.30L56.40 35.30L56.90 30.40L57.80 30.40Q64.90 30.40 68 34.00L68 34.00Q69.50 35.60 70.15 38.05Q70.80 40.50 70.80 44.20L70.80 44.20L70.80 56.50Q70.80 59.90 71.45 61.90Q72.10 63.90 73.30 65.20L73.30 65.20Q75.70 68.10 81.10 68.10L81.10 68.10Q84.60 68.10 87.65 66.50Q90.70 64.90 93.10 62.30L93.10 62.30L93.10 29.30L98.40 30.10L98.40 75.50Q98.40 78.70 98.90 80.35Q99.40 82.00 100.60 82.90L100.60 82.90Q101.80 84.10 103.75 84.35Q105.70 84.60 108 84.60L108 84.60L107.50 89.60L106.50 89.60Q99.80 89.60 96.60 86.60L96.60 86.60Q94.80 85.00 93.95 82.50Q93.10 80 93.10 75.80L93.10 75.80L93.10 68.40Q90.60 70.50 87.45 71.75Q84.30 73 80.50 73Z"/></svg>