<svg xmlns="http://www.w3.org/2000/svg" xmlns:xlink="http://www.w3.org/1999/xlink" width="110.2" height="130.4"><path d="M34.80 90.60L34.80 90.60Q25.90 90.60 19.40 87.00Q12.90 83.40 9.30 77.05Q5.70 70.70 5.70 62.30L5.70 62.30Q5.70 50.30 13.60 42.00Q21.50 33.70 35.10 29.40L35.10 29.40L36.80 34.30Q23.90 38.50 17.60 45.45Q11.30 52.40 11.30 62.80L11.30 62.80Q11.30 70 14.30 75.10Q17.30 80.20 22.60 82.85Q27.90 85.50 34.70 85.50L34.70 85.50Q38.90 85.50 42.35 84.80Q45.80 84.10 49.40 82.70L49.40 82.70L51.40 87.50Q47.70 89.00 43.65 89.80Q39.60 90.60 34.80 90.60ZM48.90 59.30L24 65.60L22.60 60.40L47.60 54.20L48.90 59.30ZM89.90 90.60L89.90 90.60Q81 90.60 74.50 87.00Q68 83.40 64.40 77.05Q60.80 70.70 60.80 62.30L60.80 62.30Q60.80 50.30 68.70 42.00Q76.60 33.70 90.20 29.40L90.20 29.40L91.90 34.30Q79 38.50 72.70 45.45Q66.40 52.40 66.40 62.80L66.40 62.80Q66.40 70 69.40 75.10Q72.40 80.20 77.70 82.85Q83 85.50 89.80 85.50L89.80 85.50Q94 85.50 97.45 84.80Q100.90 84.10 104.50 82.70L104.50 82.70L106.50 87.50Q102.80 89.00 98.75 89.80Q94.70 90.60 89.90 90.60ZM104 59.30L79.10 65.60L77.70 60.40L102.70 54.20L104 59.30Z"/></svg>