<svg xmlns="http://www.w3.org/2000/svg" xmlns:xlink="http://www.w3.org/1999/xlink" width="68.4" height="130.4"><path d="M41.40 89.60L39.80 89.60Q34 89.60 29.45 86.95Q24.90 84.30 21.10 79.80Q17.30 75.30 13.70 69.80L13.70 69.80Q12.70 69.80 11.60 69.80L11.60 69.80Q3.10 69.80 3.10 64.70L3.10 64.70Q3.10 62.70 4.45 61.60Q5.80 60.50 8.20 60.50L8.20 60.50Q10.30 60.50 12.30 61.35Q14.30 62.20 16.50 64.30L16.50 64.30Q23.30 63.10 27.90 58.90Q32.50 54.70 32.50 47.90L32.50 47.90Q32.50 41.40 28.65 37.85Q24.80 34.30 18.10 34.30L18.10 34.30Q11.70 34.30 4.80 37.30L4.80 37.30L3 32.60Q6.60 31.10 10.45 30.20Q14.30 29.30 18.20 29.30L18.20 29.30Q27.10 29.30 32.55 34.20Q38 39.10 38 47.90L38 47.90Q38 53.40 35.50 57.75Q33 62.10 28.75 64.95Q24.50 67.80 19.10 69L19.10 69Q23 74.80 26.30 78.20Q29.60 81.60 32.95 83.05Q36.30 84.50 40.50 84.50L40.50 84.50L42 84.50L41.40 89.60ZM67.30 89.60L66.40 89.60Q63.30 89.60 60.80 88.95Q58.30 88.30 56.50 86.60L56.50 86.60Q54.60 84.90 53.80 82.40Q53.00 79.90 53.00 75.80L53.00 75.80L53.00 22.40Q53.00 15.80 54.35 11.70Q55.70 7.60 59.10 4.70L59.10 4.70Q61.30 2.80 64.45 1.70Q67.60 0.60 71.70 0.60L71.70 0.60Q80.80 0.60 88.05 5.85Q95.30 11.10 102.60 19.60L102.60 19.60L98.70 22.70Q92.30 15.10 85.95 10.30Q79.60 5.50 72 5.50L72 5.50Q66.10 5.50 62.70 8.40L62.70 8.40Q60.30 10.50 59.30 14Q58.30 17.50 58.30 24.10L58.30 24.10L58.30 75.50Q58.30 78.70 58.80 80.35Q59.30 82.00 60.50 82.90L60.50 82.90Q61.70 84.10 63.65 84.35Q65.60 84.60 67.90 84.60L67.90 84.60L67.30 89.60Z"/></svg>