<svg xmlns="http://www.w3.org/2000/svg" xmlns:xlink="http://www.w3.org/1999/xlink" width="80.4" height="130.4"><path d="M25.30 84.60L21.80 88.40Q17.10 84.60 13.20 80.75Q9.30 76.90 7.05 72.65Q4.80 68.40 4.80 63.40L4.80 63.40Q4.80 59.80 6 56.95Q7.20 54.10 9.50 52.20L9.50 52.20Q12.30 49.70 16.70 48.50Q21.10 47.30 29 47.30L29 47.30L39.90 47.30L39.90 29.30L45.20 30.10L45.20 75.50Q45.20 78.70 45.75 80.35Q46.30 82.00 47.40 82.90L47.40 82.90Q48.60 84.10 50.60 84.35Q52.60 84.60 54.80 84.60L54.80 84.60L54.30 89.60L53.30 89.60Q46.60 89.60 43.40 86.60L43.40 86.60Q41.70 85.00 40.80 82.50Q39.90 80 39.90 75.80L39.90 75.80L39.90 52.30L28.50 52.30Q21.90 52.30 18.80 53.10Q15.70 53.90 13.60 55.60L13.60 55.60Q10.20 58.40 10.20 63.40L10.20 63.40Q10.20 69.40 14.45 74.35Q18.70 79.30 25.30 84.60L25.30 84.60ZM79.30 89.60L78.40 89.60Q75.30 89.60 72.80 88.95Q70.30 88.30 68.50 86.60L68.50 86.60Q66.60 84.90 65.80 82.40Q65 79.90 65 75.80L65 75.80L65 22.40Q65 15.80 66.35 11.70Q67.70 7.60 71.10 4.70L71.10 4.70Q73.30 2.80 76.45 1.70Q79.60 0.60 83.70 0.60L83.70 0.60Q92.80 0.60 100.05 5.85Q107.30 11.10 114.60 19.60L114.60 19.60L110.70 22.70Q104.30 15.10 97.95 10.30Q91.60 5.50 84 5.50L84 5.50Q78.10 5.50 74.70 8.40L74.70 8.40Q72.30 10.50 71.30 14Q70.30 17.50 70.30 24.10L70.30 24.10L70.30 75.50Q70.30 78.70 70.80 80.35Q71.30 82.00 72.50 82.90L72.50 82.90Q73.70 84.10 75.65 84.35Q77.60 84.60 79.90 84.60L79.90 84.60L79.30 89.60Z"/></svg>