<svg xmlns="http://www.w3.org/2000/svg" xmlns:xlink="http://www.w3.org/1999/xlink" width="97.70000000000002" height="130.4"><path d="M25.60 73.40L25.60 73.40Q18.10 73.40 14.20 69.10L14.20 69.10Q12.10 66.80 11.10 63.65Q10.10 60.50 10.10 55.20L10.10 55.20L10.10 44.40Q10.10 41.70 9.75 40.20Q9.40 38.70 8.60 37.60L8.60 37.60Q7.60 36.20 5.55 35.75Q3.50 35.30 0.90 35.30L0.90 35.30L1.50 30.40L2.30 30.40Q9.50 30.40 12.60 34.00L12.60 34.00Q14.10 35.60 14.75 38.05Q15.40 40.50 15.40 44.20L15.40 44.20L15.40 55.10Q15.40 59.40 16.10 61.90Q16.80 64.40 18.30 65.90L18.30 65.90Q20.80 68.50 25.60 68.50L25.60 68.50Q30.60 68.50 33.20 65.50L33.20 65.50Q34.40 64 35.05 61.75Q35.70 59.50 35.70 55.60L35.70 55.60L35.70 41.70L41 42.30L41 54.20Q43.20 57.70 47.60 57.60L47.60 57.60Q50.70 57.60 53 56.25Q55.30 54.90 57.10 52.70L57.10 52.70L57.10 29.30L62.40 30.10L62.40 75.50Q62.40 78.70 62.95 80.30Q63.50 81.90 64.70 82.90L64.70 82.90Q65.80 84.10 67.80 84.35Q69.80 84.60 72.10 84.60L72.10 84.60L71.50 89.60L70.60 89.60Q64 89.60 60.70 86.60L60.70 86.60Q58.90 85.00 58 82.50Q57.10 80 57.10 75.80L57.10 75.80L57.10 59.20Q55.30 60.70 53 61.60Q50.70 62.50 47.60 62.50L47.60 62.50Q45.80 62.50 44.05 62.00Q42.30 61.50 40.70 60.40L40.70 60.40Q39.90 66.40 35.85 69.90Q31.80 73.40 25.60 73.40ZM96.60 89.60L95.70 89.60Q92.60 89.60 90.10 88.95Q87.60 88.30 85.80 86.60L85.80 86.60Q83.90 84.90 83.10 82.40Q82.30 79.90 82.30 75.80L82.30 75.80L82.30 22.40Q82.30 15.80 83.65 11.70Q85.00 7.60 88.40 4.70L88.40 4.70Q90.60 2.80 93.75 1.70Q96.90 0.60 101.00 0.60L101.00 0.60Q110.10 0.60 117.35 5.85Q124.60 11.10 131.90 19.60L131.90 19.60L128 22.70Q121.60 15.10 115.25 10.30Q108.90 5.50 101.30 5.50L101.30 5.50Q95.40 5.50 92.00 8.40L92.00 8.40Q89.60 10.50 88.60 14Q87.60 17.50 87.60 24.10L87.60 24.10L87.60 75.50Q87.60 78.70 88.10 80.35Q88.60 82.00 89.80 82.90L89.80 82.90Q91.00 84.10 92.95 84.35Q94.90 84.60 97.20 84.60L97.20 84.60L96.60 89.60Z"/></svg>