<svg xmlns="http://www.w3.org/2000/svg" xmlns:xlink="http://www.w3.org/1999/xlink" width="97.70000000000002" height="130.4"><path d="M25.60 73.40L25.60 73.40Q18.10 73.40 14.20 69.10L14.20 69.10Q12.10 66.80 11.10 63.65Q10.10 60.50 10.10 55.20L10.10 55.20L10.10 44.40Q10.10 41.70 9.75 40.20Q9.40 38.70 8.60 37.60L8.60 37.60Q7.60 36.20 5.55 35.75Q3.50 35.30 0.90 35.30L0.90 35.30L1.50 30.40L2.30 30.40Q9.50 30.40 12.60 34.00L12.60 34.00Q14.10 35.60 14.75 38.05Q15.40 40.50 15.40 44.20L15.40 44.20L15.40 55.10Q15.40 59.40 16.10 61.90Q16.80 64.40 18.30 65.90L18.30 65.90Q20.80 68.50 25.60 68.50L25.60 68.50Q30.60 68.50 33.20 65.50L33.20 65.50Q34.40 64 35.05 61.75Q35.70 59.50 35.70 55.60L35.70 55.60L35.70 41.70L41 42.30L41 54.20Q43.20 57.70 47.60 57.60L47.60 57.60Q50.70 57.60 53 56.25Q55.30 54.90 57.10 52.70L57.10 52.70L57.10 29.30L62.40 30.10L62.40 75.50Q62.40 78.70 62.95 80.30Q63.50 81.90 64.70 82.90L64.70 82.90Q65.80 84.10 67.80 84.35Q69.80 84.60 72.10 84.60L72.10 84.60L71.50 89.60L70.60 89.60Q64 89.60 60.70 86.60L60.70 86.60Q58.90 85.00 58 82.50Q57.10 80 57.10 75.80L57.10 75.80L57.10 59.20Q55.30 60.70 53 61.60Q50.70 62.50 47.60 62.50L47.60 62.50Q45.80 62.50 44.05 62.00Q42.30 61.50 40.70 60.40L40.70 60.40Q39.90 66.40 35.85 69.90Q31.80 73.40 25.60 73.40ZM96.70 89.60L95.70 89.60Q92.70 89.60 90.15 88.95Q87.60 88.30 85.80 86.60L85.80 86.60Q82.30 83.30 82.30 75.80L82.30 75.80L82.30 29.10Q80.90 17.70 77.40 11.60Q73.90 5.50 68.40 5.50L68.40 5.50Q64.80 5.50 62.80 8.10Q60.80 10.70 60.80 15.80L60.80 15.80Q60.80 19.70 61.40 22.80L61.40 22.80L56.30 22.80Q56.00 21.30 55.75 19.20Q55.50 17.10 55.50 15.20L55.50 15.20Q55.50 8.60 58.85 4.60Q62.20 0.60 68.40 0.60L68.40 0.60Q74.30 0.60 78.30 4.55Q82.30 8.50 84.55 14.95Q86.80 21.40 87.60 28.80L87.60 28.80L87.60 75.50Q87.60 78.80 88.10 80.35Q88.60 81.90 89.80 82.90L89.80 82.90Q91.00 84.10 93.00 84.35Q95.00 84.60 97.20 84.60L97.20 84.60L96.70 89.60Z"/></svg>