<svg xmlns="http://www.w3.org/2000/svg" xmlns:xlink="http://www.w3.org/1999/xlink" width="72.60000000000001" height="130.4"><path d="M25.60 73.40L25.60 73.40Q18.10 73.40 14.20 69.10L14.20 69.10Q12.10 66.80 11.10 63.65Q10.10 60.50 10.10 55.20L10.10 55.20L10.10 44.40Q10.10 41.70 9.75 40.20Q9.40 38.70 8.60 37.60L8.60 37.60Q7.60 36.20 5.55 35.75Q3.50 35.30 0.90 35.30L0.90 35.30L1.50 30.40L2.30 30.40Q9.50 30.40 12.60 34.00L12.60 34.00Q14.10 35.60 14.75 38.05Q15.40 40.50 15.40 44.20L15.40 44.20L15.40 55.10Q15.40 59.40 16.10 61.90Q16.80 64.40 18.30 65.90L18.30 65.90Q20.80 68.50 25.60 68.50L25.60 68.50Q30.60 68.50 33.20 65.50L33.20 65.50Q34.40 64 35.05 61.75Q35.70 59.50 35.70 55.60L35.70 55.60L35.70 41.70L41 42.30L41 54.20Q43.20 57.70 47.60 57.60L47.60 57.60Q50.70 57.60 53 56.25Q55.30 54.90 57.10 52.70L57.10 52.70L57.10 29.30L62.40 30.10L62.40 75.50Q62.40 78.70 62.95 80.30Q63.50 81.90 64.70 82.90L64.70 82.90Q65.80 84.10 67.80 84.35Q69.80 84.60 72.10 84.60L72.10 84.60L71.50 89.60L70.60 89.60Q64 89.60 60.70 86.60L60.70 86.60Q58.90 85.00 58 82.50Q57.10 80 57.10 75.80L57.10 75.80L57.10 59.20Q55.30 60.70 53 61.60Q50.70 62.50 47.60 62.50L47.60 62.50Q45.80 62.50 44.05 62.00Q42.30 61.50 40.70 60.40L40.70 60.40Q39.90 66.40 35.85 69.90Q31.80 73.40 25.60 73.40ZM55.10 116.10L55.10 116.10Q48.00 116.10 44.10 112.50Q40.20 108.90 40.20 103.00L40.20 103.00Q40.20 97.60 44.30 93.85Q48.40 90.10 56.30 90.10L56.30 90.10Q63.60 90.10 68.95 92.85Q74.30 95.60 78.40 99.95Q82.50 104.30 85.90 109.20L85.90 109.20L81.80 111.90Q78.10 106.80 74.45 102.95Q70.80 99.10 66.45 96.95Q62.10 94.80 56.50 94.80L56.50 94.80Q50.70 94.80 47.95 97.15Q45.20 99.50 45.20 103.10L45.20 103.10Q45.20 107.30 47.90 109.25Q50.60 111.20 54.80 111.20L54.80 111.20Q57.50 111.20 59.75 110.65Q62.00 110.10 64.20 109.10L64.20 109.10L65.90 113.90Q63.30 114.90 60.60 115.50Q57.90 116.10 55.10 116.10Z"/></svg>