<svg xmlns="http://www.w3.org/2000/svg" xmlns:xlink="http://www.w3.org/1999/xlink" width="97.70000000000002" height="130.4"><path d="M25.60 73.40L25.60 73.40Q18.10 73.40 14.20 69.10L14.20 69.10Q12.10 66.80 11.10 63.65Q10.10 60.50 10.10 55.20L10.10 55.20L10.10 44.40Q10.10 41.70 9.75 40.20Q9.40 38.70 8.60 37.60L8.60 37.60Q7.60 36.20 5.55 35.75Q3.50 35.30 0.90 35.30L0.90 35.30L1.50 30.40L2.30 30.40Q9.50 30.40 12.60 34.00L12.60 34.00Q14.10 35.60 14.75 38.05Q15.40 40.50 15.40 44.20L15.40 44.20L15.40 55.10Q15.40 59.40 16.10 61.90Q16.80 64.40 18.30 65.90L18.30 65.90Q20.80 68.50 25.60 68.50L25.60 68.50Q30.60 68.50 33.20 65.50L33.20 65.50Q34.40 64 35.05 61.75Q35.70 59.50 35.70 55.60L35.70 55.60L35.70 41.70L41 42.30L41 54.20Q43.20 57.70 47.60 57.60L47.60 57.60Q50.70 57.60 53 56.25Q55.30 54.90 57.10 52.70L57.10 52.70L57.10 29.30L62.40 30.10L62.40 75.50Q62.40 78.70 62.95 80.30Q63.50 81.90 64.70 82.90L64.70 82.90Q65.80 84.10 67.80 84.35Q69.80 84.60 72.10 84.60L72.10 84.60L71.50 89.60L70.60 89.60Q64 89.60 60.70 86.60L60.70 86.60Q58.90 85.00 58 82.50Q57.10 80 57.10 75.80L57.10 75.80L57.10 59.20Q55.30 60.70 53 61.60Q50.70 62.50 47.60 62.50L47.60 62.50Q45.80 62.50 44.05 62.00Q42.30 61.50 40.70 60.40L40.70 60.40Q39.90 66.40 35.85 69.90Q31.80 73.40 25.60 73.40ZM96.70 89.60L95.70 89.60Q89.10 89.60 85.80 86.60L85.80 86.60Q84.00 85.00 83.15 82.50Q82.30 80 82.30 75.80L82.30 75.80L82.30 29.30L87.60 30.00L87.60 75.50Q87.60 78.80 88.10 80.40Q88.60 82.00 89.90 83.00L89.90 83.00Q91.10 84.10 92.95 84.35Q94.80 84.60 97.20 84.60L97.20 84.60L96.70 89.60ZM87.10 25.50L82.30 25.50Q80.10 17.90 78.10 13.40Q76.10 8.90 73.55 6.90Q71.00 4.90 67.10 4.90L67.10 4.90Q64.30 4.90 61.30 5.80L61.30 5.80L59.70 1.20Q61.70 0.60 63.65 0.30Q65.60 0 67.40 0L67.40 0Q72.10 0 75.60 2.15Q79.10 4.30 81.85 9.80Q84.60 15.30 87.10 25.50L87.10 25.50Z"/></svg>