<svg xmlns="http://www.w3.org/2000/svg" xmlns:xlink="http://www.w3.org/1999/xlink" width="80.7" height="130.4"><path d="M26.40 73L26.40 73Q22.80 73 19.95 72Q17.10 71 15.20 69.20L15.20 69.20Q12.60 66.90 11.35 63.65Q10.10 60.40 10.10 55.60L10.10 55.60L10.10 44.40Q10.10 41.70 9.75 40.20Q9.40 38.70 8.60 37.60L8.60 37.60Q7.60 36.20 5.55 35.75Q3.50 35.30 0.90 35.30L0.90 35.30L1.50 30.40L2.30 30.40Q9.50 30.40 12.60 34.00L12.60 34.00Q14.10 35.60 14.75 38.05Q15.40 40.50 15.40 44.20L15.40 44.20L15.40 55.20Q15.40 59.40 16.30 61.80Q17.20 64.20 18.90 65.70L18.90 65.70Q21.60 68.10 26.80 68.10L26.80 68.10Q30.50 68.10 33.85 66.55Q37.20 65 40.10 62.40L40.10 62.40L40.10 29.30L45.40 30.10L45.40 75.50Q45.40 78.70 45.95 80.35Q46.50 82.00 47.60 82.90L47.60 82.90Q48.80 84.10 50.80 84.35Q52.80 84.60 55.10 84.60L55.10 84.60L54.50 89.60L53.60 89.60Q46.80 89.60 43.60 86.60L43.60 86.60Q41.90 85.00 41 82.50Q40.10 80 40.10 75.80L40.10 75.80L40.10 68.40Q37.30 70.50 33.80 71.75Q30.30 73 26.40 73ZM79.60 89.60L78.70 89.60Q75.60 89.60 73.10 88.95Q70.60 88.30 68.80 86.60L68.80 86.60Q66.90 84.90 66.10 82.40Q65.30 79.90 65.30 75.80L65.30 75.80L65.30 22.40Q65.30 15.80 66.65 11.70Q68 7.60 71.40 4.70L71.40 4.70Q73.60 2.80 76.75 1.70Q79.90 0.60 84 0.60L84 0.60Q93.10 0.60 100.35 5.85Q107.60 11.10 114.90 19.60L114.90 19.60L111 22.70Q104.60 15.10 98.25 10.30Q91.90 5.50 84.30 5.50L84.30 5.50Q78.40 5.50 75 8.40L75 8.40Q72.60 10.50 71.60 14Q70.60 17.50 70.60 24.10L70.60 24.10L70.60 75.50Q70.60 78.70 71.10 80.35Q71.60 82.00 72.80 82.90L72.80 82.90Q74 84.10 75.95 84.35Q77.90 84.60 80.20 84.60L80.20 84.60L79.60 89.60Z"/></svg>