<svg xmlns="http://www.w3.org/2000/svg" xmlns:xlink="http://www.w3.org/1999/xlink" width="70.9" height="130.4"><path d="M25.40 90.60L25.40 90.60Q17.10 90.60 11.40 86.40Q5.70 82.20 1.10 75L1.10 75L5.80 72.10Q10.20 79 14.75 82.30Q19.30 85.60 25.30 85.60L25.30 85.60Q30.60 85.60 33.70 82.85Q36.80 80.10 36.80 75.20L36.80 75.20Q36.80 71.90 35.60 69.45Q34.40 67 31.70 64.65Q29 62.30 24.40 59.40L24.40 59.40Q17.30 55.00 14.30 51.15Q11.30 47.30 11.30 42.20L11.30 42.20Q11.30 36.50 15.55 32.90Q19.80 29.30 27.40 29.30L27.40 29.30Q29.80 29.30 32.10 29.55Q34.40 29.80 37 30.40L37 30.40L35.90 35.20Q33.60 34.70 31.60 34.50Q29.60 34.30 27.30 34.30L27.30 34.30Q22.20 34.30 19.45 36.40Q16.70 38.50 16.70 42.30L16.70 42.30Q16.70 46.10 19.30 48.80Q21.90 51.50 28 55.30L28 55.30Q35.50 60.00 38.95 64.35Q42.40 68.70 42.40 75L42.40 75Q42.40 82.00 37.90 86.30Q33.40 90.60 25.40 90.60ZM69.80 89.60L68.90 89.60Q65.80 89.60 63.30 88.95Q60.80 88.30 59.00 86.60L59.00 86.60Q57.10 84.90 56.30 82.40Q55.50 79.90 55.50 75.80L55.50 75.80L55.50 22.40Q55.50 15.80 56.85 11.70Q58.20 7.60 61.60 4.70L61.60 4.70Q63.80 2.80 66.95 1.70Q70.10 0.60 74.20 0.60L74.20 0.60Q83.30 0.60 90.55 5.85Q97.80 11.10 105.10 19.60L105.10 19.60L101.20 22.70Q94.80 15.10 88.45 10.30Q82.10 5.50 74.50 5.50L74.50 5.50Q68.60 5.50 65.20 8.40L65.20 8.40Q62.80 10.50 61.80 14Q60.80 17.50 60.80 24.10L60.80 24.10L60.80 75.50Q60.80 78.70 61.30 80.35Q61.80 82.00 63 82.90L63 82.90Q64.20 84.10 66.15 84.35Q68.10 84.60 70.40 84.60L70.40 84.60L69.80 89.60Z"/></svg>